<svg width="297" height="1045" viewBox="0 0 297 1045" fill="none" xmlns="http://www.w3.org/2000/svg">
<path d="M61.1289 180.289L62.4052 184.08L65.1289 183.163V180.289H61.1289ZM61.1289 80.123H65.1289V77.24L62.3938 76.3283L61.1289 80.123ZM4 61.0801H0V63.9631L2.73508 64.8748L4 61.0801ZM4 0.333008L5.39545 -3.41568L0 -5.42416V0.333008L4 0.333008ZM281.266 103.546H285.266V100.767L282.661 99.7972L281.266 103.546ZM281.266 156.485L282.668 160.232L285.266 159.259V156.485H281.266ZM4 260.27H0V266.038L5.40225 264.016L4 260.27ZM4 199.522L2.72372 195.732L0 196.649V199.522H4ZM107.403 95.5479L108.664 91.7517L103.403 90.0046V95.5479H107.403ZM107.403 164.864H103.403V170.427L108.677 168.656L107.403 164.864ZM211.188 130.016L212.461 133.808L223.816 129.995L212.448 126.219L211.188 130.016ZM65.1289 180.289V80.123H57.1289V180.289H65.1289ZM62.3938 76.3283L5.26492 57.2853L2.73508 64.8748L59.864 83.9178L62.3938 76.3283ZM8 61.0801V0.333008L0 0.333008V61.0801H8ZM2.60455 4.0817L279.87 107.295L282.661 99.7972L5.39545 -3.41568L2.60455 4.0817ZM277.266 103.546V156.485H285.266V103.546H277.266ZM279.863 152.739L2.59775 256.523L5.40225 264.016L282.668 160.232L279.863 152.739ZM8 260.27V199.522H0V260.27H8ZM5.27628 203.313L62.4052 184.08L59.8526 176.498L2.72372 195.732L5.27628 203.313ZM103.403 95.5479V164.864H111.403V95.5479H103.403ZM108.677 168.656L212.461 133.808L209.914 126.224L106.13 161.072L108.677 168.656ZM212.448 126.219L108.664 91.7517L106.143 99.344L209.927 133.812L212.448 126.219ZM27.8037 447.081L25.3723 450.257L25.3828 450.265L27.8037 447.081ZM25.8994 334.537L28.3552 337.695L36.1068 331.665L26.3487 330.562L25.8994 334.537ZM4 332.062H0V335.635L3.55069 336.036L4 332.062ZM4 282.55V278.55H0V282.55H4ZM296.5 282.55H300.5V278.55H296.5V282.55ZM296.5 337.584V341.584H300.5V337.584H296.5ZM191.573 337.584V333.584H180.737L188.974 340.625L191.573 337.584ZM186.051 446.7L183.616 443.526L183.604 443.536L183.592 443.545L186.051 446.7ZM154.63 403.282L152.371 399.981L152.361 399.988L152.351 399.995L154.63 403.282ZM147.584 337.584L149.256 333.95L148.46 333.584H147.584V337.584ZM66.2705 337.584V333.584H65.3861L64.5842 333.957L66.2705 337.584ZM70.8408 409.186L69.6257 412.997L69.628 412.997L70.8408 409.186ZM105.118 464.219C72.6295 464.219 47.8258 457.279 30.2246 443.897L25.3828 450.265C44.852 465.067 71.5912 472.219 105.118 472.219V464.219ZM30.2351 443.905C12.9137 430.645 4.19141 412.195 4.19141 388.048H-3.80859C-3.80859 414.428 5.87735 435.334 25.3723 450.257L30.2351 443.905ZM4.19141 388.048C4.19141 366.897 12.2234 350.241 28.3552 337.695L23.4437 331.38C5.29803 345.493 -3.80859 364.512 -3.80859 388.048H4.19141ZM26.3487 330.562L4.44931 328.087L3.55069 336.036L25.4501 338.512L26.3487 330.562ZM8 332.062V282.55H0V332.062H8ZM4 286.55H296.5V278.55H4V286.55ZM292.5 282.55V337.584H300.5V282.55H292.5ZM296.5 333.584H191.573V341.584H296.5V333.584ZM188.974 340.625C202.881 352.51 209.854 368.065 209.854 387.667H217.854C217.854 365.883 209.973 348.048 194.172 334.543L188.974 340.625ZM209.854 387.667C209.854 411.669 201.081 430.129 183.616 443.526L188.485 449.874C208.091 434.834 217.854 413.938 217.854 387.667H209.854ZM183.592 443.545C166.135 457.149 141.167 464.219 108.165 464.219V472.219C142.194 472.219 169.15 464.942 188.51 449.855L183.592 443.545ZM108.165 464.219H105.118V472.219H108.165V464.219ZM109.117 417.185C130.185 417.185 146.368 413.878 156.909 406.569L152.351 399.995C143.848 405.89 129.69 409.185 109.117 409.185V417.185ZM156.889 406.583C167.769 399.139 173.103 387.979 173.103 373.766H165.103C165.103 385.704 160.787 394.223 152.371 399.981L156.889 406.583ZM173.103 373.766C173.103 364.463 171.196 356.321 167.161 349.536C163.109 342.724 157.069 337.546 149.256 333.95L145.912 341.218C152.445 344.224 157.163 348.377 160.285 353.625C163.422 358.901 165.103 365.548 165.103 373.766H173.103ZM147.584 333.584H66.2705V341.584H147.584V333.584ZM64.5842 333.957C56.7127 337.616 50.6296 342.857 46.5493 349.729C42.4843 356.575 40.5615 364.779 40.5615 374.146H48.5615C48.5615 365.867 50.2569 359.154 53.4282 353.813C56.5843 348.498 61.3557 344.28 67.9568 341.211L64.5842 333.957ZM40.5615 374.146C40.5615 383.706 42.9274 391.964 47.9313 398.636C52.9263 405.296 60.2807 410.017 69.6257 412.997L72.0559 405.375C63.8814 402.768 58.0962 398.856 54.3314 393.836C50.5755 388.829 48.5615 382.36 48.5615 374.146H40.5615ZM69.628 412.997C78.6145 415.857 91.8796 417.185 109.117 417.185V409.185C92.0774 409.185 79.825 407.847 72.0536 405.374L69.628 412.997ZM200.714 539.439L204.159 537.408L204.156 537.401L204.152 537.395L200.714 539.439ZM188.336 659.029L185.466 656.243L185.461 656.248L185.456 656.253L188.336 659.029ZM119.02 688.546L119.128 692.544L119.212 692.542L119.297 692.536L119.02 688.546ZM104.928 688.927V692.927H104.982L105.036 692.925L104.928 688.927ZM28.7559 662.457L26.037 665.391L26.0468 665.4L28.7559 662.457ZM28.7559 520.206L26.037 517.272L26.0318 517.277L26.0266 517.282L28.7559 520.206ZM59.9863 559.815L57.6765 556.55L57.667 556.556L57.6576 556.563L59.9863 559.815ZM59.7959 622.657L57.4217 625.876L57.4313 625.883L57.4408 625.89L59.7959 622.657ZM153.487 559.815L151.177 563.081L151.187 563.088L151.196 563.094L153.487 559.815ZM108.927 497.736C128.844 497.736 146.443 501.568 161.814 509.132L165.346 501.954C148.725 493.775 129.889 489.736 108.927 489.736V497.736ZM161.814 509.132C177.145 516.676 188.929 527.451 197.276 541.484L204.152 537.395C194.979 521.974 182.008 510.152 165.346 501.954L161.814 509.132ZM197.268 541.471C205.619 555.63 209.854 572.112 209.854 591.046H217.854C217.854 570.878 213.329 552.956 204.159 537.408L197.268 541.471ZM209.854 591.046C209.854 617.964 201.651 639.575 185.466 656.243L191.206 661.816C209.044 643.445 217.854 619.733 217.854 591.046H209.854ZM185.456 656.253C169.261 673.053 147.156 682.579 118.742 684.556L119.297 692.536C149.282 690.45 173.388 680.299 191.216 661.805L185.456 656.253ZM118.911 684.547L104.82 684.928L105.036 692.925L119.128 692.544L118.911 684.547ZM104.928 684.927C74.0946 684.927 49.7458 676.342 31.4649 659.514L26.0468 665.4C46.1057 683.865 72.5382 692.927 104.928 692.927V684.927ZM31.4747 659.523C13.3697 642.746 4.19141 620.197 4.19141 591.427H-3.80859C-3.80859 622.071 6.05606 646.875 26.037 665.391L31.4747 659.523ZM4.19141 591.427C4.19141 562.657 13.3699 540.038 31.4851 523.13L26.0266 517.282C6.05588 535.921 -3.80859 560.782 -3.80859 591.427H4.19141ZM31.4747 523.14C49.5987 506.345 74.4309 497.736 106.451 497.736V489.736C72.9636 489.736 45.9989 498.774 26.037 517.272L31.4747 523.14ZM106.451 497.736H108.927V489.736H106.451V497.736ZM104.928 544.771C84.9626 544.771 69.0351 548.516 57.6765 556.55L62.2962 563.081C71.7578 556.389 85.7914 552.771 104.928 552.771V544.771ZM57.6576 556.563C46.2264 564.748 40.5615 576.552 40.5615 591.427H48.5615C48.5615 578.879 53.1798 569.609 62.3151 563.068L57.6576 556.563ZM40.5615 591.427C40.5615 605.943 46.1775 617.584 57.4217 625.876L62.1701 619.438C53.1018 612.75 48.5615 603.57 48.5615 591.427H40.5615ZM57.4408 625.89C68.7591 634.135 86.1832 637.893 108.927 637.893V629.893C86.7289 629.893 71.3991 626.16 62.151 619.424L57.4408 625.89ZM108.927 637.893C128.547 637.893 144.335 634.07 155.805 625.917L151.17 619.397C141.565 626.225 127.647 629.893 108.927 629.893V637.893ZM155.805 625.917C167.459 617.633 173.293 605.847 173.293 591.046H165.293C165.293 603.412 160.59 612.701 151.17 619.397L155.805 625.917ZM173.293 591.046C173.293 576.355 167.445 564.689 155.779 556.537L151.196 563.094C160.604 569.669 165.293 578.823 165.293 591.046H173.293ZM155.797 556.55C144.378 548.473 127.185 544.771 104.928 544.771V552.771C126.596 552.771 141.776 556.431 151.177 563.081L155.797 556.55ZM24.9473 846.222L25.2374 850.211L35.2076 849.486L27.4893 843.133L24.9473 846.222ZM19.2344 739.2L16.5422 736.242L16.5341 736.249L16.5262 736.256L19.2344 739.2ZM75.0303 721.49V717.49H75.0096L74.9888 717.49L75.0303 721.49ZM210.045 721.49H214.045V717.49H210.045V721.49ZM210.045 776.524V780.524H214.045V776.524H210.045ZM64.1758 844.317L62.2773 847.838L63.1661 848.317H64.1758V844.317ZM210.045 844.317H214.045V840.317H210.045V844.317ZM210.045 899.542V903.542H214.045V899.542H210.045ZM4 899.542H0V903.542H4V899.542ZM4 847.745L3.70987 843.756L0 844.025V847.745H4ZM27.4893 843.133C12.029 830.408 4.19141 812.818 4.19141 789.854H-3.80859C-3.80859 814.879 4.85776 834.867 22.4053 849.31L27.4893 843.133ZM4.19141 789.854C4.19141 768.55 10.2874 752.867 21.9426 742.144L16.5262 736.256C2.79071 748.893 -3.80859 766.979 -3.80859 789.854H4.19141ZM21.9265 742.159C33.6382 731.501 51.1356 725.738 75.0717 725.49L74.9888 717.49C49.9211 717.75 30.2211 723.794 16.5422 736.242L21.9265 742.159ZM75.0303 725.49H210.045V717.49H75.0303V725.49ZM206.045 721.49V776.524H214.045V721.49H206.045ZM210.045 772.524H76.9346V780.524H210.045V772.524ZM76.9346 772.524C65.6777 772.524 56.4886 775.081 50.1034 780.899C43.6477 786.782 40.752 795.358 40.752 805.851H48.752C48.752 796.792 51.2199 790.705 55.4918 786.813C59.8341 782.856 66.7364 780.524 76.9346 780.524V772.524ZM40.752 805.851C40.752 825.52 47.6711 839.962 62.2773 847.838L66.0742 840.797C54.782 834.708 48.752 823.506 48.752 805.851H40.752ZM64.1758 848.317H210.045V840.317H64.1758V848.317ZM206.045 844.317V899.542H214.045V844.317H206.045ZM210.045 895.542H4V903.542H210.045V895.542ZM8 899.542V847.745H0V899.542H8ZM4.29013 851.735L25.2374 850.211L24.6571 842.232L3.70987 843.756L4.29013 851.735ZM260.699 1006.94V1010.94H264.699V1006.94H260.699ZM210.045 1006.94V1002.94H206.045V1006.94H210.045ZM210.045 1042.17V1046.17H214.045V1042.17H210.045ZM169.674 1042.17H165.674V1046.17H169.674V1042.17ZM169.674 1006.94H173.674V1002.94H169.674V1006.94ZM46.8467 1044.27V1048.27H51.6744L50.7769 1043.53L46.8467 1044.27ZM5.14258 1044.27L1.31754 1045.44L2.18317 1048.27H5.14258V1044.27ZM58.6533 951.91V947.91H58.6142L58.5752 947.911L58.6533 951.91ZM169.674 951.91V955.91H173.674V951.91H169.674ZM169.674 921.822V917.822H165.674V921.822H169.674ZM210.045 921.822H214.045V917.822H210.045V921.822ZM210.045 951.91H206.045V955.91H210.045V951.91ZM260.699 951.91H264.699V947.91H260.699V951.91ZM260.699 1002.94H210.045V1010.94H260.699V1002.94ZM206.045 1006.94V1042.17H214.045V1006.94H206.045ZM210.045 1038.17H169.674V1046.17H210.045V1038.17ZM173.674 1042.17V1006.94H165.674V1042.17H173.674ZM169.674 1002.94H66.8418V1010.94H169.674V1002.94ZM66.8418 1002.94C58.8986 1002.94 52.2192 1004.43 47.8145 1008.33L53.1151 1014.32C55.312 1012.38 59.5507 1010.94 66.8418 1010.94V1002.94ZM47.8145 1008.33C43.1513 1012.45 41.5137 1019.6 41.5137 1028.08H49.5137C49.5137 1020.06 51.1768 1016.03 53.1151 1014.32L47.8145 1008.33ZM41.5137 1028.08C41.5137 1034.36 41.9708 1040.01 42.9164 1045.01L50.7769 1043.53C49.9453 1039.13 49.5137 1033.99 49.5137 1028.08H41.5137ZM46.8467 1040.27H5.14258V1048.27H46.8467V1040.27ZM8.96762 1043.1C5.7843 1032.69 4.19141 1021.98 4.19141 1010.94H-3.80859C-3.80859 1022.76 -2.10071 1034.26 1.31754 1045.44L8.96762 1043.1ZM4.19141 1010.94C4.19141 992.279 8.8985 978.89 17.649 970.054C26.4065 961.211 39.8569 956.278 58.7315 955.909L58.5752 947.911C38.4751 948.304 22.6946 953.59 11.9648 964.425C1.22797 975.267 -3.80859 991.013 -3.80859 1010.94H4.19141ZM58.6533 955.91H169.674V947.91H58.6533V955.91ZM173.674 951.91V921.822H165.674V951.91H173.674ZM169.674 925.822H210.045V917.822H169.674V925.822ZM206.045 921.822V951.91H214.045V921.822H206.045ZM210.045 955.91H260.699V947.91H210.045V955.91ZM256.699 951.91V1006.94H264.699V951.91H256.699Z" fill="#F64C72"/>
</svg>
