<svg width="1910" height="968" viewBox="0 0 1910 968" fill="none" xmlns="http://www.w3.org/2000/svg">
<g clip-path="url(#clip0_1_2)">
<path d="M388.357 528.626V532.626H392.357V528.626H388.357ZM286.004 528.626V524.626H282.004V528.626H286.004ZM286.004 807V811H290.004V807H286.004ZM217.156 807H213.156V811H217.156V807ZM217.156 528.626H221.156V524.626H217.156V528.626ZM116.18 528.626H112.18V532.626H116.18V528.626ZM116.18 472.859V468.859H112.18V472.859H116.18ZM388.357 472.859H392.357V468.859H388.357V472.859ZM388.357 524.626H286.004V532.626H388.357V524.626ZM282.004 528.626V807H290.004V528.626H282.004ZM286.004 803H217.156V811H286.004V803ZM221.156 807V528.626H213.156V807H221.156ZM217.156 524.626H116.18V532.626H217.156V524.626ZM120.18 528.626V472.859H112.18V528.626H120.18ZM116.18 476.859H388.357V468.859H116.18V476.859ZM384.357 472.859V528.626H392.357V472.859H384.357ZM488.187 585.77H484.187V596.818L491.259 588.33L488.187 585.77ZM636.438 647.962H640.438V647.937L640.438 647.913L636.438 647.962ZM636.438 807V811H640.438V807H636.438ZM570.115 807H566.115V811H570.115V807ZM560.936 618.357L557.946 621.015L557.961 621.032L557.976 621.048L560.936 618.357ZM488.187 630.521L484.729 628.509L484.187 629.442V630.521H488.187ZM488.187 807V811H492.187V807H488.187ZM421.863 807H417.863V811H421.863V807ZM421.863 454.5V450.5H417.863V454.5H421.863ZM488.187 454.5H492.187V450.5H488.187V454.5ZM491.259 588.33C508.122 568.095 529.119 558.1 554.51 558.1V550.1C526.658 550.1 503.44 561.218 485.114 583.209L491.259 588.33ZM554.51 558.1C580.647 558.1 599.685 565.664 612.369 580.196C625.15 594.838 632.062 617.209 632.439 648.011L640.438 647.913C640.05 616.14 632.925 591.58 618.396 574.935C603.77 558.179 582.226 550.1 554.51 550.1V558.1ZM632.438 647.962V807H640.438V647.962H632.438ZM636.438 803H570.115V811H636.438V803ZM574.115 807V649.798H566.115V807H574.115ZM574.115 649.798C574.115 635.112 570.975 623.454 563.895 615.667L557.976 621.048C563.136 626.724 566.115 636.027 566.115 649.798H574.115ZM563.925 615.7C556.714 607.588 545.165 604.03 530.413 604.03V612.03C544.118 612.03 552.917 615.357 557.946 621.015L563.925 615.7ZM530.413 604.03C509.765 604.03 494.264 612.116 484.729 628.509L491.644 632.532C499.551 618.938 512.201 612.03 530.413 612.03V604.03ZM484.187 630.521V807H492.187V630.521H484.187ZM488.187 803H421.863V811H488.187V803ZM425.863 807V454.5H417.863V807H425.863ZM421.863 458.5H488.187V450.5H421.863V458.5ZM484.187 454.5V585.77H492.187V454.5H484.187ZM711.712 778.084L708.912 780.941L708.922 780.95L711.712 778.084ZM691.976 615.604L695.564 617.37L695.57 617.359L691.976 615.604ZM732.825 570.164L734.883 573.594L734.892 573.589L732.825 570.164ZM873.504 586.229L870.541 588.916L870.547 588.922L870.552 588.928L873.504 586.229ZM902.879 704.417V708.417H906.879V704.417H902.879ZM744.759 704.417V700.417H740.196L740.793 704.941L744.759 704.417ZM764.036 743.431L761.337 746.383L761.347 746.392L761.358 746.402L764.036 743.431ZM865.013 730.35L867.996 727.685L864.799 724.105L861.854 727.896L865.013 730.35ZM897.601 766.839L900.867 769.147L902.704 766.548L900.584 764.174L897.601 766.839ZM857.21 799.886L858.88 803.52L858.893 803.514L858.907 803.508L857.21 799.886ZM761.053 621.111L758.125 618.386L758.112 618.399L758.1 618.413L761.053 621.111ZM745.447 659.207L741.485 658.657L740.853 663.207H745.447V659.207ZM837.703 659.207V663.207H841.703V659.207H837.703ZM837.703 653.929H841.703V653.887L841.702 653.845L837.703 653.929ZM825.77 619.964L822.86 622.709L822.873 622.723L822.886 622.736L825.77 619.964ZM800.755 807.59C765.23 807.59 736.6 796.727 714.502 775.218L708.922 780.95C732.722 804.116 763.455 815.59 800.755 815.59V807.59ZM714.511 775.227C692.61 753.767 681.518 725.106 681.518 688.812H673.518C673.518 726.872 685.221 757.727 708.912 780.941L714.511 775.227ZM681.518 688.812V682.386H673.518V688.812H681.518ZM681.518 682.386C681.518 657.972 686.232 636.33 695.564 617.37L688.387 613.837C678.441 634.044 673.518 656.923 673.518 682.386H681.518ZM695.57 617.359C704.894 598.266 717.999 583.724 734.883 573.594L730.767 566.734C712.462 577.717 698.334 593.468 688.381 613.848L695.57 617.359ZM734.892 573.589C751.959 563.29 771.427 558.1 793.411 558.1V550.1C770.109 550.1 749.187 555.619 730.759 566.739L734.892 573.589ZM793.411 558.1C826.463 558.1 852.003 568.48 870.541 588.916L876.467 583.541C856.144 561.139 828.289 550.1 793.411 550.1V558.1ZM870.552 588.928C889.253 609.382 898.879 638.657 898.879 677.337H906.879C906.879 637.378 896.922 605.914 876.456 583.529L870.552 588.928ZM898.879 677.337V704.417H906.879V677.337H898.879ZM902.879 700.417H744.759V708.417H902.879V700.417ZM740.793 704.941C743.042 721.965 749.844 735.875 761.337 746.383L766.735 740.479C756.809 731.403 750.76 719.304 748.724 703.893L740.793 704.941ZM761.358 746.402C773.052 756.943 787.74 762.118 805.115 762.118V754.118C789.443 754.118 776.746 749.502 766.714 740.46L761.358 746.402ZM805.115 762.118C831.773 762.118 852.957 752.388 868.172 732.804L861.854 727.896C848.305 745.336 829.558 754.118 805.115 754.118V762.118ZM862.029 733.014L894.617 769.503L900.584 764.174L867.996 727.685L862.029 733.014ZM894.334 764.531C884.824 777.99 871.924 788.575 855.513 796.264L858.907 803.508C876.461 795.285 890.488 783.839 900.867 769.147L894.334 764.531ZM855.54 796.251C839.134 803.789 820.894 807.59 800.755 807.59V815.59C821.925 815.59 841.321 811.588 858.88 803.52L855.54 796.251ZM793.182 603.801C779.019 603.801 767.213 608.625 758.125 618.386L763.98 623.837C771.416 615.85 781.029 611.801 793.182 611.801V603.801ZM758.1 618.413C749.271 628.075 743.85 641.633 741.485 658.657L749.409 659.757C751.635 643.734 756.617 631.895 764.006 623.81L758.1 618.413ZM745.447 663.207H837.703V655.207H745.447V663.207ZM841.703 659.207V653.929H833.703V659.207H841.703ZM841.702 653.845C841.382 638.493 837.203 626.084 828.653 617.191L822.886 622.736C829.635 629.755 833.412 639.99 833.704 654.012L841.702 653.845ZM828.679 617.219C820.086 608.11 808.051 603.801 793.182 603.801V611.801C806.463 611.801 816.154 615.6 822.86 622.709L828.679 617.219ZM1010.74 807V811H1014.74V807H1010.74ZM944.188 807H940.188V811H944.188V807ZM944.188 558.689V554.689H940.188V558.689H944.188ZM1010.74 558.689H1014.74V554.689H1010.74V558.689ZM950.154 469.876L947.392 466.983L947.376 466.998L947.359 467.014L950.154 469.876ZM1004.31 519.217L1001.59 516.293L1001.57 516.308L1001.55 516.323L1004.31 519.217ZM950.384 519.217L947.622 522.11L947.638 522.126L947.655 522.141L950.384 519.217ZM1010.74 803H944.188V811H1010.74V803ZM948.188 807V558.689H940.188V807H948.188ZM944.188 562.689H1010.74V554.689H944.188V562.689ZM1006.74 558.689V807H1014.74V558.689H1006.74ZM944.286 494.432C944.286 485.467 947.208 478.345 952.949 472.737L947.359 467.014C939.943 474.258 936.286 483.507 936.286 494.432H944.286ZM952.916 472.769C958.739 467.211 966.765 464.237 977.464 464.237V456.237C965.213 456.237 955.033 459.689 947.392 466.983L952.916 472.769ZM977.464 464.237C987.993 464.237 995.949 467.201 1001.78 472.769L1007.31 466.983C999.675 459.699 989.578 456.237 977.464 456.237V464.237ZM1001.78 472.769C1007.66 478.385 1010.64 485.496 1010.64 494.432H1018.64C1018.64 483.478 1014.89 474.219 1007.31 466.983L1001.78 472.769ZM1010.64 494.432C1010.64 503.51 1007.6 510.682 1001.59 516.293L1007.04 522.141C1014.8 514.9 1018.64 505.548 1018.64 494.432H1010.64ZM1001.55 516.323C995.709 521.901 987.823 524.855 977.464 524.855V532.855C989.442 532.855 999.456 529.384 1007.08 522.11L1001.55 516.323ZM977.464 524.855C967.108 524.855 959.123 521.902 953.113 516.293L947.655 522.141C955.414 529.384 965.482 532.855 977.464 532.855V524.855ZM953.146 516.323C947.276 510.721 944.286 503.539 944.286 494.432H936.286C936.286 505.519 940.028 514.861 947.622 522.11L953.146 516.323ZM1187.91 719.334L1185.86 722.77L1185.9 722.793L1185.94 722.815L1187.91 719.334ZM1149.35 706.712L1148.53 710.627L1148.54 710.629L1149.35 706.712ZM1088.08 576.36L1090.59 579.474L1090.59 579.471L1088.08 576.36ZM1235.41 576.36L1232.94 579.501L1232.94 579.506L1232.95 579.511L1235.41 576.36ZM1263.87 634.192V638.192H1267.87V634.192H1263.87ZM1197.55 634.192H1193.55V638.192H1197.55V634.192ZM1188.37 610.784L1185.5 613.577L1185.52 613.595L1185.54 613.613L1188.37 610.784ZM1134.9 646.126L1132.68 649.454L1132.72 649.482L1132.76 649.51L1134.9 646.126ZM1170.24 657.83L1169.44 661.75L1169.46 661.753L1169.47 661.757L1170.24 657.83ZM1212 668.846L1213.38 665.09L1213.38 665.088L1212 668.846ZM1235.41 790.706L1237.74 793.958L1237.75 793.951L1237.76 793.945L1235.41 790.706ZM1104.6 800.574L1102.91 804.199L1102.93 804.209L1102.95 804.218L1104.6 800.574ZM1066.74 770.052L1063.47 772.358L1063.47 772.368L1063.48 772.377L1066.74 770.052ZM1052.97 728.055V724.055H1048.97V728.055H1052.97ZM1115.85 728.055L1119.84 727.847L1119.65 724.055H1115.85V728.055ZM1190.2 757.43L1192.58 760.648L1192.58 760.643L1192.59 760.639L1190.2 757.43ZM1204.07 738.382C1204.07 728.591 1199.02 721.026 1189.88 715.853L1185.94 722.815C1193.02 726.822 1196.07 731.955 1196.07 738.382H1204.07ZM1189.96 715.898C1181.41 710.801 1168.01 706.488 1150.16 702.795L1148.54 710.629C1166.19 714.28 1178.5 718.381 1185.86 722.77L1189.96 715.898ZM1150.18 702.797C1120.97 696.669 1099.56 687.489 1085.51 675.551C1071.61 663.743 1064.77 649.126 1064.77 631.438H1056.77C1056.77 651.541 1064.69 668.364 1080.33 681.647C1095.8 694.8 1118.68 704.363 1148.53 710.627L1150.18 702.797ZM1064.77 631.438C1064.77 610.7 1073.26 593.456 1090.59 579.474L1085.57 573.247C1066.49 588.64 1056.77 608.114 1056.77 631.438H1064.77ZM1090.59 579.471C1108.08 565.338 1131.06 558.1 1159.91 558.1V550.1C1129.7 550.1 1104.8 557.701 1085.56 573.25L1090.59 579.471ZM1159.91 558.1C1190.81 558.1 1215.02 565.371 1232.94 579.501L1237.89 573.22C1218.17 557.669 1192.04 550.1 1159.91 550.1V558.1ZM1232.95 579.511C1250.97 593.607 1259.87 611.731 1259.87 634.192H1267.87C1267.87 609.225 1257.8 588.794 1237.88 573.21L1232.95 579.511ZM1263.87 630.192H1197.55V638.192H1263.87V630.192ZM1201.55 634.192C1201.55 623.758 1198.14 614.901 1191.2 607.956L1185.54 613.613C1190.83 618.907 1193.55 625.656 1193.55 634.192H1201.55ZM1191.23 607.991C1184.06 600.64 1173.24 597.375 1159.68 597.375V605.375C1172.13 605.375 1180.44 608.382 1185.5 613.577L1191.23 607.991ZM1159.68 597.375C1147.96 597.375 1138.28 600.022 1131.2 605.863L1136.29 612.034C1141.45 607.777 1149.07 605.375 1159.68 605.375V597.375ZM1131.2 605.863C1124.18 611.657 1120.57 619.206 1120.57 628.226H1128.57C1128.57 621.64 1131.08 616.337 1136.29 612.034L1131.2 605.863ZM1120.57 628.226C1120.57 637.094 1124.84 644.233 1132.68 649.454L1137.11 642.798C1131.18 638.84 1128.57 634.045 1128.57 628.226H1120.57ZM1132.76 649.51C1140.44 654.353 1152.83 658.366 1169.44 661.75L1171.04 653.911C1154.6 650.563 1143.42 646.773 1137.03 642.742L1132.76 649.51ZM1169.47 661.757C1185.87 664.944 1199.57 668.567 1210.63 672.603L1213.38 665.088C1201.8 660.863 1187.66 657.142 1171 653.904L1169.47 661.757ZM1210.63 672.601C1227.67 678.851 1240.1 687.263 1248.28 697.654C1256.42 707.996 1260.56 720.578 1260.56 735.628H1268.56C1268.56 719.008 1263.94 704.625 1254.56 692.706C1245.22 680.836 1231.38 671.692 1213.38 665.09L1210.63 672.601ZM1260.56 735.628C1260.56 756.902 1251.53 774.091 1233.07 787.467L1237.76 793.945C1258.16 779.17 1268.56 759.641 1268.56 735.628H1260.56ZM1233.08 787.455C1214.5 800.767 1190.3 807.59 1160.14 807.59V815.59C1191.49 815.59 1217.46 808.49 1237.74 793.958L1233.08 787.455ZM1160.14 807.59C1139.81 807.59 1121.87 804.003 1106.25 796.93L1102.95 804.218C1119.77 811.833 1138.86 815.59 1160.14 815.59V807.59ZM1106.29 796.949C1090.78 789.708 1078.72 779.952 1069.99 767.727L1063.48 772.377C1073.11 785.855 1086.3 796.447 1102.91 804.199L1106.29 796.949ZM1070 767.745C1061.27 755.371 1056.97 742.17 1056.97 728.055H1048.97C1048.97 743.927 1053.84 758.723 1063.47 772.358L1070 767.745ZM1052.97 732.055H1115.85V724.055H1052.97V732.055ZM1111.85 728.262C1112.52 741.012 1117.31 751.201 1126.48 758.299L1131.38 751.971C1124.33 746.523 1120.4 738.659 1119.84 727.847L1111.85 728.262ZM1126.48 758.299C1135.49 765.268 1147.3 768.544 1161.52 768.544V760.544C1148.5 760.544 1138.58 757.547 1131.38 751.971L1126.48 758.299ZM1161.52 768.544C1174.6 768.544 1185.17 766.119 1192.58 760.648L1187.83 754.211C1182.39 758.226 1173.83 760.544 1161.52 760.544V768.544ZM1192.59 760.639C1200.12 755.033 1204.07 747.522 1204.07 738.382H1196.07C1196.07 744.847 1193.44 750.035 1187.82 754.221L1192.59 760.639ZM1332.72 778.084L1329.92 780.941L1329.93 780.95L1332.72 778.084ZM1312.98 615.604L1316.57 617.37L1316.58 617.359L1312.98 615.604ZM1353.83 570.164L1355.89 573.594L1355.9 573.589L1353.83 570.164ZM1494.51 586.229L1491.55 588.916L1491.55 588.922L1491.56 588.928L1494.51 586.229ZM1523.88 704.417V708.417H1527.88V704.417H1523.88ZM1365.76 704.417V700.417H1361.2L1361.8 704.941L1365.76 704.417ZM1385.04 743.431L1382.34 746.383L1382.35 746.392L1382.36 746.402L1385.04 743.431ZM1486.02 730.35L1489 727.685L1485.8 724.105L1482.86 727.896L1486.02 730.35ZM1518.61 766.839L1521.87 769.147L1523.71 766.548L1521.59 764.174L1518.61 766.839ZM1478.22 799.886L1479.89 803.52L1479.9 803.514L1479.91 803.508L1478.22 799.886ZM1382.06 621.111L1379.13 618.386L1379.12 618.399L1379.11 618.413L1382.06 621.111ZM1366.45 659.207L1362.49 658.657L1361.86 663.207H1366.45V659.207ZM1458.71 659.207V663.207H1462.71V659.207H1458.71ZM1458.71 653.929H1462.71V653.887L1462.71 653.845L1458.71 653.929ZM1446.78 619.964L1443.87 622.709L1443.88 622.723L1443.89 622.736L1446.78 619.964ZM1421.76 807.59C1386.24 807.59 1357.61 796.727 1335.51 775.218L1329.93 780.95C1353.73 804.116 1384.46 815.59 1421.76 815.59V807.59ZM1335.52 775.227C1313.62 753.767 1302.52 725.106 1302.52 688.812H1294.52C1294.52 726.872 1306.23 757.727 1329.92 780.941L1335.52 775.227ZM1302.52 688.812V682.386H1294.52V688.812H1302.52ZM1302.52 682.386C1302.52 657.972 1307.24 636.33 1316.57 617.37L1309.39 613.837C1299.45 634.044 1294.52 656.923 1294.52 682.386H1302.52ZM1316.58 617.359C1325.9 598.266 1339.01 583.724 1355.89 573.594L1351.77 566.734C1333.47 577.717 1319.34 593.468 1309.39 613.848L1316.58 617.359ZM1355.9 573.589C1372.96 563.29 1392.43 558.1 1414.42 558.1V550.1C1391.11 550.1 1370.19 555.619 1351.76 566.739L1355.9 573.589ZM1414.42 558.1C1447.47 558.1 1473.01 568.48 1491.55 588.916L1497.47 583.541C1477.15 561.139 1449.29 550.1 1414.42 550.1V558.1ZM1491.56 588.928C1510.26 609.382 1519.88 638.657 1519.88 677.337H1527.88C1527.88 637.378 1517.93 605.914 1497.46 583.529L1491.56 588.928ZM1519.88 677.337V704.417H1527.88V677.337H1519.88ZM1523.88 700.417H1365.76V708.417H1523.88V700.417ZM1361.8 704.941C1364.05 721.965 1370.85 735.875 1382.34 746.383L1387.74 740.479C1377.81 731.403 1371.77 719.304 1369.73 703.893L1361.8 704.941ZM1382.36 746.402C1394.06 756.943 1408.75 762.118 1426.12 762.118V754.118C1410.45 754.118 1397.75 749.502 1387.72 740.46L1382.36 746.402ZM1426.12 762.118C1452.78 762.118 1473.96 752.388 1489.18 732.804L1482.86 727.896C1469.31 745.336 1450.56 754.118 1426.12 754.118V762.118ZM1483.04 733.014L1515.62 769.503L1521.59 764.174L1489 727.685L1483.04 733.014ZM1515.34 764.531C1505.83 777.99 1492.93 788.575 1476.52 796.264L1479.91 803.508C1497.47 795.285 1511.49 783.839 1521.87 769.147L1515.34 764.531ZM1476.55 796.251C1460.14 803.789 1441.9 807.59 1421.76 807.59V815.59C1442.93 815.59 1462.33 811.588 1479.89 803.52L1476.55 796.251ZM1414.19 603.801C1400.03 603.801 1388.22 608.625 1379.13 618.386L1384.99 623.837C1392.42 615.85 1402.03 611.801 1414.19 611.801V603.801ZM1379.11 618.413C1370.28 628.075 1364.86 641.633 1362.49 658.657L1370.42 659.757C1372.64 643.734 1377.62 631.895 1385.01 623.81L1379.11 618.413ZM1366.45 663.207H1458.71V655.207H1366.45V663.207ZM1462.71 659.207V653.929H1454.71V659.207H1462.71ZM1462.71 653.845C1462.39 638.493 1458.21 626.084 1449.66 617.191L1443.89 622.736C1450.64 629.755 1454.42 639.99 1454.71 654.012L1462.71 653.845ZM1449.68 617.219C1441.09 608.11 1429.06 603.801 1414.19 603.801V611.801C1427.47 611.801 1437.16 615.6 1443.87 622.709L1449.68 617.219ZM1622.8 558.689L1626.79 558.402L1626.52 554.689H1622.8V558.689ZM1624.86 587.376L1620.87 587.663L1621.61 597.849L1627.98 589.875L1624.86 587.376ZM1754.98 577.278L1758.06 574.721L1754.98 577.278ZM1774.72 646.585H1778.72V646.565L1778.72 646.545L1774.72 646.585ZM1774.72 807V811H1778.72V807H1774.72ZM1708.4 807H1704.4V811H1708.4V807ZM1699.22 617.669L1696.32 620.428L1696.34 620.445L1696.35 620.462L1699.22 617.669ZM1626.7 631.897L1623.25 629.874L1622.7 630.811V631.897H1626.7ZM1626.7 807V811H1630.7V807H1626.7ZM1560.37 807H1556.37V811H1560.37V807ZM1560.37 558.689V554.689H1556.37V558.689H1560.37ZM1618.81 558.977L1620.87 587.663L1628.85 587.089L1626.79 558.402L1618.81 558.977ZM1627.98 589.875C1644.93 568.693 1667.54 558.1 1696.23 558.1V550.1C1665.25 550.1 1640.29 561.69 1621.74 584.877L1627.98 589.875ZM1696.23 558.1C1721.75 558.1 1740.04 565.562 1751.91 579.836L1758.06 574.721C1744.23 558.089 1723.34 550.1 1696.23 550.1V558.1ZM1751.91 579.836C1763.93 594.291 1770.42 616.329 1770.72 646.625L1778.72 646.545C1778.41 615.338 1771.74 591.171 1758.06 574.721L1751.91 579.836ZM1770.72 646.585V807H1778.72V646.585H1770.72ZM1774.72 803H1708.4V811H1774.72V803ZM1712.4 807V648.191H1704.4V807H1712.4ZM1712.4 648.191C1712.4 633.678 1709.26 622.239 1702.08 614.876L1696.35 620.462C1701.41 625.645 1704.4 634.554 1704.4 648.191H1712.4ZM1702.11 614.91C1694.89 607.324 1683.38 604.03 1668.69 604.03V612.03C1682.47 612.03 1691.31 615.162 1696.32 620.428L1702.11 614.91ZM1668.69 604.03C1648.63 604.03 1633.31 612.72 1623.25 629.874L1630.15 633.921C1638.75 619.252 1651.43 612.03 1668.69 612.03V604.03ZM1622.7 631.897V807H1630.7V631.897H1622.7ZM1626.7 803H1560.37V811H1626.7V803ZM1564.37 807V558.689H1556.37V807H1564.37ZM1560.37 562.689H1622.8V554.689H1560.37V562.689Z" fill="#F64C72"/>
<path d="M164.546 122.859H233.394V354.188C233.394 375.454 228.651 394.272 219.165 410.643C209.832 426.86 196.598 439.406 179.463 448.279C162.327 457.153 142.974 461.59 121.401 461.59C86.0596 461.59 58.5205 452.64 38.7842 434.739C19.0479 416.686 9.17969 391.212 9.17969 358.318H78.4863C78.4863 374.689 81.9287 386.775 88.8135 394.578C95.6982 402.381 106.561 406.282 121.401 406.282C134.559 406.282 145.039 401.769 152.842 392.742C160.645 383.715 164.546 370.864 164.546 354.188V122.859ZM431.904 457C428.844 451.033 426.626 443.613 425.249 434.739C409.185 452.64 388.301 461.59 362.598 461.59C338.271 461.59 318.076 454.552 302.012 440.477C286.1 426.401 278.145 408.654 278.145 387.234C278.145 360.919 287.86 340.724 307.29 326.648C326.873 312.573 355.101 305.459 391.973 305.306H422.495V291.077C422.495 279.603 419.512 270.423 413.545 263.538C407.731 256.653 398.475 253.211 385.776 253.211C374.608 253.211 365.811 255.888 359.385 261.243C353.112 266.598 349.976 273.942 349.976 283.274H283.652C283.652 268.893 288.089 255.582 296.963 243.343C305.837 231.103 318.382 221.541 334.6 214.656C350.817 207.618 369.023 204.1 389.219 204.1C419.818 204.1 444.067 211.826 461.968 227.278C480.021 242.578 489.048 264.15 489.048 291.995V399.627C489.201 423.188 492.49 441.012 498.916 453.099V457H431.904ZM377.056 410.872C386.847 410.872 395.874 408.73 404.136 404.446C412.397 400.009 418.517 394.119 422.495 386.775V344.09H397.71C364.51 344.09 346.839 355.564 344.697 378.514L344.468 382.415C344.468 390.677 347.375 397.485 353.188 402.84C359.002 408.195 366.958 410.872 377.056 410.872ZM643.267 408.118C655.506 408.118 665.451 404.752 673.101 398.021C680.75 391.289 684.728 382.339 685.034 371.17H747.227C747.074 387.999 742.484 403.452 733.457 417.527C724.43 431.45 712.038 442.312 696.279 450.115C680.674 457.765 663.385 461.59 644.414 461.59C608.919 461.59 580.921 450.345 560.42 427.854C539.919 405.211 529.668 374 529.668 334.222V329.861C529.668 291.613 539.842 261.09 560.19 238.294C580.539 215.498 608.46 204.1 643.955 204.1C675.013 204.1 699.875 212.973 718.54 230.721C737.358 248.315 746.921 271.8 747.227 301.175H685.034C684.728 288.323 680.75 277.92 673.101 269.964C665.451 261.855 655.353 257.801 642.808 257.801C627.355 257.801 615.651 263.462 607.695 274.783C599.893 285.952 595.991 304.158 595.991 329.402V336.287C595.991 361.837 599.893 380.197 607.695 391.365C615.498 402.534 627.355 408.118 643.267 408.118ZM875.283 357.4L851.416 381.268V457H785.093V104.5H851.416V299.798L864.268 283.274L927.837 208.689H1007.47L917.739 312.19L1015.27 457H939.082L875.283 357.4Z" fill="white"/>
<path d="M1890.98 53.5088V66.6924H1846.69C1842.62 66.6924 1839.01 65.7842 1835.88 63.9678C1832.77 62.1807 1830.37 59.6465 1828.67 56.3652C1826.97 53.084 1826.12 49.3779 1826.12 45.2471C1826.12 38.4795 1827.83 33.2061 1831.26 29.4268C1834.72 25.6475 1839.6 23.7578 1845.9 23.7578V37.0293C1842.76 37.0293 1840.45 37.6885 1838.95 39.0068C1837.46 40.3252 1836.71 42.4053 1836.71 45.2471C1836.71 47.7666 1837.58 49.7734 1839.3 51.2676C1841.03 52.7617 1843.49 53.5088 1846.69 53.5088H1890.98ZM1831.83 105.628C1828.03 102.493 1826.12 98.1572 1826.12 92.6201C1826.12 87.5225 1827.59 83.626 1830.52 80.9307C1833.45 78.2646 1837.74 76.9023 1843.39 76.8438H1874.55V89.5439H1843.83C1838.88 89.5439 1836.4 91.7998 1836.4 96.3115C1836.4 100.618 1837.9 103.577 1840.89 105.188H1874.55V117.933H1827V105.979L1831.83 105.628ZM1874.55 139.202L1869.06 139.598C1873.3 142.996 1875.43 147.552 1875.43 153.265C1875.43 158.304 1873.95 162.054 1870.99 164.515C1868.03 166.976 1863.61 168.235 1857.72 168.294H1827V155.594H1857.41C1860.11 155.594 1862.05 155.008 1863.25 153.836C1864.49 152.664 1865.1 150.716 1865.1 147.991C1865.1 144.417 1863.58 141.736 1860.53 139.949H1827V127.249H1874.55V139.202ZM1827 191.365V178.621H1874.55V191.365H1827ZM1886.85 177.874C1888.76 177.874 1890.33 178.504 1891.56 179.764C1892.79 181.053 1893.4 182.796 1893.4 184.993C1893.4 187.161 1892.79 188.89 1891.56 190.179C1890.33 191.468 1888.76 192.112 1886.85 192.112C1884.92 192.112 1883.34 191.453 1882.11 190.135C1880.88 188.846 1880.26 187.132 1880.26 184.993C1880.26 182.854 1880.88 181.126 1882.11 179.808C1883.34 178.519 1884.92 177.874 1886.85 177.874ZM1851.21 199.891C1855.93 199.891 1860.13 200.799 1863.83 202.615C1867.52 204.432 1870.37 207.039 1872.4 210.438C1874.42 213.865 1875.43 217.835 1875.43 222.347C1875.43 228.763 1873.46 233.992 1869.54 238.035C1865.61 242.107 1860.28 244.378 1853.54 244.847L1850.29 244.935C1843 244.935 1837.14 242.898 1832.71 238.826C1828.32 234.754 1826.12 229.29 1826.12 222.435C1826.12 215.579 1828.32 210.101 1832.71 205.999C1837.11 201.927 1843.08 199.891 1850.64 199.891H1851.21ZM1850.29 212.591C1845.78 212.591 1842.32 213.44 1839.92 215.14C1837.55 216.839 1836.36 219.271 1836.36 222.435C1836.36 225.511 1837.53 227.913 1839.88 229.642C1842.25 231.37 1846.03 232.234 1851.21 232.234C1855.64 232.234 1859.07 231.37 1861.5 229.642C1863.93 227.913 1865.14 225.481 1865.14 222.347C1865.14 219.241 1863.93 216.839 1861.5 215.14C1859.09 213.44 1855.36 212.591 1850.29 212.591ZM1862.64 279.476C1862.87 277.747 1862.99 276.224 1862.99 274.905C1862.99 270.101 1861.37 266.951 1858.11 265.457H1827V252.757H1874.55V264.754L1868.88 265.105C1873.25 267.654 1875.43 271.185 1875.43 275.696C1875.43 277.103 1875.24 278.421 1874.86 279.651L1862.64 279.476ZM1853.15 347.371V322.059H1827V308.875H1890.98V350.535H1880.31V322.059H1863.78V347.371H1853.15ZM1862.64 382.923C1862.87 381.194 1862.99 379.671 1862.99 378.353C1862.99 373.548 1861.37 370.398 1858.11 368.904H1827V356.204H1874.55V368.201L1868.88 368.553C1873.25 371.102 1875.43 374.632 1875.43 379.144C1875.43 380.55 1875.24 381.868 1874.86 383.099L1862.64 382.923ZM1851.21 385.516C1855.93 385.516 1860.13 386.424 1863.83 388.24C1867.52 390.057 1870.37 392.664 1872.4 396.062C1874.42 399.49 1875.43 403.46 1875.43 407.972C1875.43 414.388 1873.46 419.617 1869.54 423.66C1865.61 427.732 1860.28 430.003 1853.54 430.472L1850.29 430.56C1843 430.56 1837.14 428.523 1832.71 424.451C1828.32 420.379 1826.12 414.915 1826.12 408.06C1826.12 401.204 1828.32 395.726 1832.71 391.624C1837.11 387.552 1843.08 385.516 1850.64 385.516H1851.21ZM1850.29 398.216C1845.78 398.216 1842.32 399.065 1839.92 400.765C1837.55 402.464 1836.36 404.896 1836.36 408.06C1836.36 411.136 1837.53 413.538 1839.88 415.267C1842.25 416.995 1846.03 417.859 1851.21 417.859C1855.64 417.859 1859.07 416.995 1861.5 415.267C1863.93 413.538 1865.14 411.106 1865.14 407.972C1865.14 404.866 1863.93 402.464 1861.5 400.765C1859.09 399.065 1855.36 398.216 1850.29 398.216ZM1874.55 450.071L1869.06 450.467C1873.3 453.865 1875.43 458.421 1875.43 464.134C1875.43 469.173 1873.95 472.923 1870.99 475.384C1868.03 477.845 1863.61 479.104 1857.72 479.163H1827V466.463H1857.41C1860.11 466.463 1862.05 465.877 1863.25 464.705C1864.49 463.533 1865.1 461.585 1865.1 458.86C1865.1 455.286 1863.58 452.605 1860.53 450.818H1827V438.118H1874.55V450.071ZM1886.24 504.036H1874.55V512.166H1865.23V504.036H1841.5C1839.74 504.036 1838.48 504.373 1837.72 505.047C1836.96 505.721 1836.58 507.01 1836.58 508.914C1836.58 510.32 1836.68 511.565 1836.89 512.649H1827.26C1826.5 510.159 1826.12 507.596 1826.12 504.959C1826.12 496.053 1830.62 491.512 1839.61 491.336H1865.23V484.393H1874.55V491.336H1886.24V504.036ZM1854.73 580.984V555.672H1837.59V585.379H1827V542.488H1890.98V585.291H1880.31V555.672H1865.06V580.984H1854.73ZM1874.55 603.968L1869.06 604.363C1873.3 607.762 1875.43 612.317 1875.43 618.03C1875.43 623.069 1873.95 626.819 1870.99 629.28C1868.03 631.741 1863.61 633.001 1857.72 633.06H1827V620.359H1857.41C1860.11 620.359 1862.05 619.773 1863.25 618.602C1864.49 617.43 1865.1 615.481 1865.1 612.757C1865.1 609.183 1863.58 606.502 1860.53 604.715H1827V592.015H1874.55V603.968ZM1851.13 640.75C1858.54 640.75 1864.44 642.405 1868.84 645.716C1873.23 649.056 1875.43 653.611 1875.43 659.383C1875.43 664.012 1873.7 667.835 1870.24 670.853H1894.5V683.597H1827V672.127L1832.05 671.512C1828.1 668.348 1826.12 664.275 1826.12 659.295C1826.12 653.699 1828.32 649.202 1832.71 645.804C1837.14 642.435 1843.27 640.75 1851.13 640.75ZM1850.2 653.45C1845.75 653.45 1842.34 654.227 1839.96 655.779C1837.59 657.332 1836.4 659.588 1836.4 662.547C1836.4 666.473 1838.06 669.241 1841.37 670.853H1860.13C1863.45 669.271 1865.1 666.531 1865.1 662.635C1865.1 656.512 1860.13 653.45 1850.2 653.45ZM1845.46 766.521L1890.98 775.135V788.274L1827 774.08V760.809L1869.8 750.394L1827 739.979V726.707L1890.98 712.513V725.652L1845.54 734.31L1890.98 744.856V756.019L1845.46 766.521ZM1826.12 815.081C1826.12 808.108 1828.26 802.425 1832.54 798.03C1836.81 793.665 1842.51 791.482 1849.63 791.482H1850.86C1855.64 791.482 1859.9 792.405 1863.65 794.251C1867.43 796.097 1870.33 798.704 1872.35 802.073C1874.4 805.472 1875.43 809.339 1875.43 813.675C1875.43 820.179 1873.38 825.291 1869.28 829.012C1865.17 832.762 1859.36 834.637 1851.83 834.637H1846.64V804.358C1843.54 804.769 1841.05 805.999 1839.17 808.05C1837.3 810.13 1836.36 812.752 1836.36 815.916C1836.36 820.809 1838.13 824.632 1841.68 827.386L1834.69 833.626C1832 831.722 1829.89 829.144 1828.36 825.892C1826.87 822.64 1826.12 819.036 1826.12 815.081ZM1865.14 813.631C1865.14 811.111 1864.29 809.061 1862.6 807.479C1860.9 805.926 1858.46 804.93 1855.3 804.49V822.156H1856.31C1859.12 822.098 1861.29 821.336 1862.82 819.871C1864.37 818.406 1865.14 816.326 1865.14 813.631ZM1850.33 884.734C1842.72 884.734 1836.77 883.108 1832.49 879.856C1828.25 876.604 1826.12 872.063 1826.12 866.233C1826.12 861.077 1828.1 856.961 1832.05 853.885L1827 853.313V841.888H1894.5V854.588H1870.29C1873.71 857.518 1875.43 861.37 1875.43 866.146C1875.43 871.946 1873.29 876.487 1869.01 879.769C1864.76 883.079 1858.77 884.734 1851.04 884.734H1850.33ZM1851.26 872.034C1856.06 872.034 1859.56 871.272 1861.76 869.749C1863.99 868.226 1865.1 865.955 1865.1 862.938C1865.1 858.895 1863.45 856.111 1860.13 854.588H1841.37C1838.03 856.141 1836.36 858.953 1836.36 863.025C1836.36 867.127 1838.38 869.822 1842.42 871.111C1844.36 871.727 1847.3 872.034 1851.26 872.034ZM1722 27.7129H1785.98V47.4004C1785.98 53.0254 1784.71 58.0498 1782.16 62.4736C1779.64 66.9268 1776.04 70.3984 1771.35 72.8887C1766.69 75.3789 1761.39 76.624 1755.44 76.624H1752.5C1746.55 76.624 1741.26 75.3936 1736.63 72.9326C1732 70.501 1728.42 67.0586 1725.87 62.6055C1723.32 58.1523 1722.03 53.1279 1722 47.5322V27.7129ZM1775.31 40.8965H1732.59V47.2686C1732.59 52.4248 1734.28 56.3652 1737.64 59.0898C1741.01 61.8145 1745.83 63.2061 1752.1 63.2646H1755.49C1761.99 63.2646 1766.91 61.917 1770.25 59.2217C1773.62 56.5264 1775.31 52.5859 1775.31 47.4004V40.8965ZM1721.12 107.298C1721.12 100.325 1723.26 94.6416 1727.54 90.2471C1731.81 85.8818 1737.51 83.6992 1744.63 83.6992H1745.86C1750.64 83.6992 1754.9 84.6221 1758.65 86.4678C1762.43 88.3135 1765.33 90.9209 1767.35 94.29C1769.4 97.6885 1770.43 101.556 1770.43 105.892C1770.43 112.396 1768.38 117.508 1764.28 121.229C1760.17 124.979 1754.36 126.854 1746.83 126.854H1741.64V96.5752C1738.54 96.9854 1736.05 98.2158 1734.17 100.267C1732.3 102.347 1731.36 104.969 1731.36 108.133C1731.36 113.025 1733.13 116.849 1736.68 119.603L1729.69 125.843C1727 123.938 1724.89 121.36 1723.36 118.108C1721.87 114.856 1721.12 111.253 1721.12 107.298ZM1760.14 105.848C1760.14 103.328 1759.29 101.277 1757.6 99.6953C1755.9 98.1426 1753.46 97.1465 1750.3 96.707V114.373H1751.31C1754.12 114.314 1756.29 113.553 1757.82 112.088C1759.37 110.623 1760.14 108.543 1760.14 105.848ZM1737.51 151.287L1769.55 160.12V173.392L1722 157.352V145.223L1769.55 129.183V142.454L1737.51 151.287ZM1721.12 200.286C1721.12 193.313 1723.26 187.63 1727.54 183.235C1731.81 178.87 1737.51 176.688 1744.63 176.688H1745.86C1750.64 176.688 1754.9 177.61 1758.65 179.456C1762.43 181.302 1765.33 183.909 1767.35 187.278C1769.4 190.677 1770.43 194.544 1770.43 198.88C1770.43 205.384 1768.38 210.496 1764.28 214.217C1760.17 217.967 1754.36 219.842 1746.83 219.842H1741.64V189.563C1738.54 189.974 1736.05 191.204 1734.17 193.255C1732.3 195.335 1731.36 197.957 1731.36 201.121C1731.36 206.014 1733.13 209.837 1736.68 212.591L1729.69 218.831C1727 216.927 1724.89 214.349 1723.36 211.097C1721.87 207.845 1721.12 204.241 1721.12 200.286ZM1760.14 198.836C1760.14 196.316 1759.29 194.266 1757.6 192.684C1755.9 191.131 1753.46 190.135 1750.3 189.695V207.361H1751.31C1754.12 207.303 1756.29 206.541 1757.82 205.076C1759.37 203.611 1760.14 201.531 1760.14 198.836ZM1722 240.496V227.752H1789.5V240.496H1722ZM1746.21 249.021C1750.93 249.021 1755.13 249.93 1758.83 251.746C1762.52 253.562 1765.37 256.17 1767.4 259.568C1769.42 262.996 1770.43 266.966 1770.43 271.478C1770.43 277.894 1768.46 283.123 1764.54 287.166C1760.61 291.238 1755.28 293.509 1748.54 293.978L1745.29 294.065C1738 294.065 1732.14 292.029 1727.71 287.957C1723.32 283.885 1721.12 278.421 1721.12 271.565C1721.12 264.71 1723.32 259.231 1727.71 255.13C1732.11 251.058 1738.08 249.021 1745.64 249.021H1746.21ZM1745.29 261.722C1740.78 261.722 1737.32 262.571 1734.92 264.271C1732.55 265.97 1731.36 268.401 1731.36 271.565C1731.36 274.642 1732.53 277.044 1734.88 278.772C1737.25 280.501 1741.03 281.365 1746.21 281.365C1750.64 281.365 1754.07 280.501 1756.5 278.772C1758.93 277.044 1760.14 274.612 1760.14 271.478C1760.14 268.372 1758.93 265.97 1756.5 264.271C1754.09 262.571 1750.36 261.722 1745.29 261.722ZM1745.33 344.69C1738.01 344.69 1732.14 343.021 1727.71 339.681C1723.32 336.37 1721.12 331.888 1721.12 326.233C1721.12 321.429 1722.79 317.547 1726.13 314.588H1703.72V301.888H1769.55V313.665L1764.89 314.104C1768.58 317.181 1770.43 321.194 1770.43 326.146C1770.43 332.005 1768.26 336.561 1763.92 339.812C1759.59 343.064 1753.61 344.69 1745.99 344.69H1745.33ZM1746.26 331.99C1750.68 331.99 1754.09 331.199 1756.5 329.617C1758.9 328.064 1760.1 325.794 1760.1 322.806C1760.1 318.821 1758.58 316.082 1755.53 314.588H1736.06C1732.93 316.141 1731.36 318.909 1731.36 322.894C1731.36 328.958 1736.33 331.99 1746.26 331.99ZM1721.12 374.485C1721.12 367.513 1723.26 361.829 1727.54 357.435C1731.81 353.069 1737.51 350.887 1744.63 350.887H1745.86C1750.64 350.887 1754.9 351.81 1758.65 353.655C1762.43 355.501 1765.33 358.108 1767.35 361.478C1769.4 364.876 1770.43 368.743 1770.43 373.079C1770.43 379.583 1768.38 384.695 1764.28 388.416C1760.17 392.166 1754.36 394.041 1746.83 394.041H1741.64V363.763C1738.54 364.173 1736.05 365.403 1734.17 367.454C1732.3 369.534 1731.36 372.156 1731.36 375.32C1731.36 380.213 1733.13 384.036 1736.68 386.79L1729.69 393.03C1727 391.126 1724.89 388.548 1723.36 385.296C1721.87 382.044 1721.12 378.44 1721.12 374.485ZM1760.14 373.035C1760.14 370.516 1759.29 368.465 1757.6 366.883C1755.9 365.33 1753.46 364.334 1750.3 363.895V381.561H1751.31C1754.12 381.502 1756.29 380.74 1757.82 379.275C1759.37 377.811 1760.14 375.73 1760.14 373.035ZM1757.64 428.011C1757.87 426.282 1757.99 424.759 1757.99 423.44C1757.99 418.636 1756.37 415.486 1753.11 413.992H1722V401.292H1769.55V413.289L1763.88 413.641C1768.25 416.189 1770.43 419.72 1770.43 424.231C1770.43 425.638 1770.24 426.956 1769.86 428.187L1757.64 428.011Z" fill="white"/>
</g>
<defs>
<clipPath id="clip0_1_2">
<rect width="1910" height="968" fill="white"/>
</clipPath>
</defs>
</svg>
