<svg width="382" height="1454" viewBox="0 0 382 1454" fill="none" xmlns="http://www.w3.org/2000/svg">
<path d="M186.195 58.9844H190.195V54.9844H186.195V58.9844ZM86 58.9844H82V62.9844H86V58.9844ZM86 0.390625V-3.60937H82V0.390625H86ZM370.375 0.390625H374.375V-3.60937H370.375V0.390625ZM358.656 167.578L355.056 165.836L355.05 165.847L358.656 167.578ZM325.258 205.078L323.191 201.654L323.184 201.658L323.177 201.662L325.258 205.078ZM210.219 189.453L207.16 192.03L207.161 192.032L210.219 189.453ZM233.656 58.9844V54.9844H229.656V58.9844H233.656ZM244.594 146.68L247.583 144.022L247.573 144.01L247.562 143.999L244.594 146.68ZM322.914 112.695L326.913 112.767L326.914 112.731V112.695H322.914ZM322.914 58.9844H326.914V54.9844H322.914V58.9844ZM186.195 54.9844L86 54.9844V62.9844L186.195 62.9844V54.9844ZM90 58.9844V0.390625H82V58.9844H90ZM86 4.39063L370.375 4.39063V-3.60937L86 -3.60937V4.39063ZM366.375 0.390625V111.328H374.375V0.390625L366.375 0.390625ZM366.375 111.328C366.375 132.193 362.56 150.327 355.056 165.836L362.257 169.32C370.378 152.537 374.375 133.172 374.375 111.328H366.375ZM355.05 165.847C347.55 181.472 336.93 193.361 323.191 201.654L327.325 208.503C342.492 199.348 354.137 186.236 362.262 169.309L355.05 165.847ZM323.177 201.662C309.54 209.968 293.932 214.164 276.234 214.164V222.164C295.256 222.164 312.33 217.636 327.339 208.494L323.177 201.662ZM276.234 214.164C249.399 214.164 228.571 205.005 213.276 186.874L207.161 192.032C224.159 212.182 247.341 222.164 276.234 222.164V214.164ZM213.278 186.876C198.056 168.808 190.195 143.469 190.195 110.352H182.195C182.195 144.682 190.35 172.077 207.16 192.03L213.278 186.876ZM190.195 110.352V58.9844H182.195V110.352H190.195ZM229.656 58.9844V111.328H237.656V58.9844H229.656ZM229.656 111.328C229.656 127.396 233.435 140.293 241.625 149.361L247.562 143.999C241.169 136.921 237.656 126.25 237.656 111.328H229.656ZM241.604 149.337C249.828 158.589 261.448 162.984 275.844 162.984V154.984C263.156 154.984 253.943 151.177 247.583 144.022L241.604 149.337ZM275.844 162.984C290.615 162.984 302.93 158.608 312.395 149.573L306.871 143.786C299.148 151.158 288.938 154.984 275.844 154.984V162.984ZM312.395 149.573C321.923 140.478 326.638 128.041 326.913 112.767L318.915 112.623C318.669 126.255 314.53 136.475 306.871 143.786L312.395 149.573ZM326.914 112.695V58.9844H318.914V112.695H326.914ZM322.914 54.9844H233.656V62.9844H322.914V54.9844ZM244.398 373.633L240.435 373.095L239.828 377.567L244.341 377.632L244.398 373.633ZM224.281 311.328L225.951 307.693L225.156 307.328H224.281V311.328ZM86 311.328H82V315.328H86V311.328ZM86 254.883V250.883H82V254.883H86ZM297.328 254.883H301.328V250.883H297.328V254.883ZM297.328 308.203L297.576 312.195L301.328 311.963V308.203H297.328ZM272.133 309.766L271.885 305.773L258.757 306.587L270.116 313.22L272.133 309.766ZM298.695 374.414L298.638 378.414L301.631 378.457L302.516 375.597L298.695 374.414ZM248.362 374.17C249.421 366.363 249.961 359.406 249.961 353.32H241.961C241.961 358.953 241.459 365.538 240.435 373.095L248.362 374.17ZM249.961 353.32C249.961 331.038 242.322 315.215 225.951 307.693L222.611 314.963C235.146 320.722 241.961 332.894 241.961 353.32H249.961ZM224.281 307.328H86V315.328H224.281V307.328ZM90 311.328V254.883H82V311.328H90ZM86 258.883H297.328V250.883H86V258.883ZM293.328 254.883V308.203H301.328V254.883H293.328ZM297.081 304.211L271.885 305.773L272.38 313.758L297.576 312.195L297.081 304.211ZM270.116 313.22C288.467 323.935 297.234 338.401 297.234 356.836H305.234C305.234 335.167 294.601 318.253 274.15 306.311L270.116 313.22ZM297.234 356.836C297.234 362.722 296.438 368.179 294.874 373.231L302.516 375.597C304.338 369.712 305.234 363.45 305.234 356.836H297.234ZM298.753 370.414L244.456 369.633L244.341 377.632L298.638 378.414L298.753 370.414ZM249.672 397.266L251.438 393.677L249.672 397.266ZM287.758 432.031L291.203 429.999L291.199 429.993L291.196 429.986L287.758 432.031ZM275.062 554.688L272.193 551.901L272.188 551.906L272.183 551.911L275.062 554.688ZM203.969 584.961L204.077 588.959L204.162 588.957L204.246 588.951L203.969 584.961ZM189.516 585.352V589.352H189.57L189.624 589.35L189.516 585.352ZM111.391 558.203L108.672 561.137L108.682 561.146L111.391 558.203ZM111.391 412.305L108.672 409.371L108.667 409.376L108.661 409.38L111.391 412.305ZM143.422 452.93L141.112 449.664L141.103 449.671L141.093 449.677L143.422 452.93ZM143.227 517.383L140.852 520.602L140.862 520.609L140.871 520.616L143.227 517.383ZM239.32 452.93L237.01 456.195L237.02 456.202L237.029 456.208L239.32 452.93ZM193.617 389.156C214.058 389.156 232.124 393.089 247.906 400.855L251.438 393.677C234.407 385.296 215.103 381.156 193.617 381.156V389.156ZM247.906 400.855C263.647 408.6 275.748 419.666 284.32 434.076L291.196 429.986C281.799 414.189 268.51 402.077 251.438 393.677L247.906 400.855ZM284.312 434.063C292.887 448.603 297.234 465.526 297.234 484.961H305.234C305.234 464.292 300.597 445.928 291.203 429.999L284.312 434.063ZM297.234 484.961C297.234 512.592 288.814 534.784 272.193 551.901L277.932 557.474C296.207 538.654 305.234 514.361 305.234 484.961H297.234ZM272.183 551.911C255.551 569.164 232.854 578.942 203.691 580.971L204.246 588.951C234.98 586.813 259.678 576.409 277.942 557.464L272.183 551.911ZM203.861 580.962L189.408 581.353L189.624 589.35L204.077 588.959L203.861 580.962ZM189.516 581.352C157.872 581.352 132.872 572.541 114.1 555.26L108.682 561.146C129.232 580.063 156.316 589.352 189.516 589.352V581.352ZM114.109 555.269C95.5162 538.039 86.0938 514.883 86.0938 485.352H78.0938C78.0938 516.757 88.2025 542.169 108.672 561.137L114.109 555.269ZM86.0938 485.352C86.0938 455.82 95.5164 432.592 114.12 415.229L108.661 409.38C88.2024 428.476 78.0938 453.945 78.0938 485.352H86.0938ZM114.109 415.239C132.722 397.991 158.218 389.156 191.078 389.156V381.156C156.751 381.156 129.122 390.42 108.672 409.371L114.109 415.239ZM191.078 389.156H193.617V381.156H191.078V389.156ZM189.516 437.602C169.049 437.602 152.738 441.441 141.112 449.664L145.732 456.195C155.46 449.314 169.878 445.602 189.516 445.602L189.516 437.602ZM141.093 449.677C129.398 458.052 123.602 470.126 123.602 485.352H131.602C131.602 472.452 136.352 462.912 145.751 456.182L141.093 449.677ZM123.602 485.352C123.602 500.21 129.348 512.117 140.852 520.602L145.601 514.164C136.272 507.284 131.602 497.837 131.602 485.352H123.602ZM140.871 520.616C152.453 529.052 170.297 532.906 193.617 532.906V524.906C170.843 524.906 155.093 521.078 145.582 514.15L140.871 520.616ZM193.617 532.906C213.729 532.906 229.898 528.988 241.638 520.643L237.003 514.123C227.128 521.142 212.829 524.906 193.617 524.906V532.906ZM241.638 520.643C253.562 512.167 259.531 500.111 259.531 484.961H251.531C251.531 497.676 246.693 507.234 237.003 514.123L241.638 520.643ZM259.531 484.961C259.531 469.925 253.548 457.992 241.612 449.651L237.029 456.208C246.707 462.972 251.531 472.393 251.531 484.961H259.531ZM241.63 449.664C229.944 441.398 212.336 437.602 189.516 437.602L189.516 445.602C211.747 445.602 227.342 449.357 237.01 456.195L241.63 449.664ZM297.328 679.883V683.883H301.328V679.883H297.328ZM20.1797 661.328L22.9492 658.442L22.942 658.435L22.9347 658.428L20.1797 661.328ZM3.96875 579.883V575.883H0.845642L0.0881653 578.913L3.96875 579.883ZM48.6953 579.883L52.6367 580.565L53.4471 575.883H48.6953V579.883ZM297.328 623.242H301.328V619.242H297.328V623.242ZM372.914 627.148L375.807 624.387L375.792 624.37L375.776 624.353L372.914 627.148ZM372.914 673.438L370.053 670.643L370.037 670.659L370.021 670.676L372.914 673.438ZM330.922 673.242L333.846 670.513L333.831 670.497L333.815 670.48L330.922 673.242ZM330.922 627.344L328.028 624.582L328.013 624.598L327.998 624.615L330.922 627.344ZM297.328 675.883H74.4766V683.883H297.328V675.883ZM74.4766 675.883C51.8763 675.883 34.8893 669.9 22.9492 658.442L17.4102 664.214C31.2513 677.496 50.4622 683.883 74.4766 683.883V675.883ZM22.9347 658.428C10.9274 647.021 4.64844 630.367 4.64844 607.812H-3.35156C-3.35156 631.873 3.39032 650.896 17.4247 664.228L22.9347 658.428ZM4.64844 607.812C4.64844 598.351 5.72043 589.369 7.84933 580.853L0.0881653 578.913C-2.21002 588.105 -3.35156 597.743 -3.35156 607.812H4.64844ZM3.96875 583.883H48.6953V575.883H3.96875V583.883ZM44.7539 579.201C43.5557 586.124 42.9375 592.286 42.9375 597.656H50.9375C50.9375 592.871 51.4912 587.184 52.6367 580.565L44.7539 579.201ZM42.9375 597.656C42.9375 606.864 45.3915 614.489 50.9812 619.757C56.5264 624.983 64.477 627.242 74.0859 627.242V619.242C65.5959 619.242 59.9723 617.237 56.468 613.935C53.0083 610.674 50.9375 605.506 50.9375 597.656H42.9375ZM74.0859 627.242H297.328V619.242H74.0859V627.242ZM293.328 623.242L293.328 679.883H301.328L301.328 623.242H293.328ZM352.016 622.75C359.499 622.75 365.402 625.182 370.053 629.943L375.776 624.353C369.489 617.917 361.459 614.75 352.016 614.75V622.75ZM370.021 629.91C374.622 634.731 377.117 641.401 377.117 650.391H385.117C385.117 639.849 382.144 631.024 375.807 624.387L370.021 629.91ZM377.117 650.391C377.117 659.384 374.621 665.965 370.053 670.643L375.776 676.232C382.145 669.712 385.117 660.928 385.117 650.391H377.117ZM370.021 670.676C365.363 675.555 359.47 678.031 352.016 678.031V686.031C361.489 686.031 369.528 682.778 375.807 676.199L370.021 670.676ZM352.016 678.031C344.441 678.031 338.499 675.498 333.846 670.513L327.998 675.971C334.282 682.705 342.403 686.031 352.016 686.031V678.031ZM333.815 670.48C329.195 665.64 326.719 659.086 326.719 650.391H318.719C318.719 660.706 321.712 669.386 328.028 676.004L333.815 670.48ZM326.719 650.391C326.719 641.698 329.194 635.057 333.846 630.073L327.998 624.615C321.712 631.349 318.719 640.073 318.719 650.391H326.719ZM333.815 630.106C338.461 625.239 344.412 622.75 352.016 622.75V614.75C342.432 614.75 334.32 617.99 328.028 624.582L333.815 630.106ZM110.609 745.508L107.752 742.708L107.743 742.718L110.609 745.508ZM248.891 728.711L247.124 732.3L247.135 732.305L248.891 728.711ZM287.563 763.477L284.133 765.535L284.138 765.543L287.563 763.477ZM273.891 883.203L271.203 880.24L271.197 880.246L271.192 880.251L273.891 883.203ZM173.305 908.203H169.305V912.203H173.305V908.203ZM173.305 773.633H177.305V769.07L172.781 769.667L173.305 773.633ZM140.102 790.039L137.149 787.34L137.14 787.35L137.13 787.361L140.102 790.039ZM151.234 875.977L153.899 878.96L157.479 875.763L153.688 872.818L151.234 875.977ZM120.18 903.711L117.872 906.978L120.471 908.814L122.844 906.694L120.18 903.711ZM92.0547 869.336L88.42 871.006L88.4262 871.019L88.4325 871.033L92.0547 869.336ZM244.203 787.5L246.929 784.572L246.915 784.56L246.901 784.547L244.203 787.5ZM211.781 774.219L212.332 770.257L207.781 769.625V774.219H211.781ZM211.781 852.734H207.781V856.734H211.781V852.734ZM216.273 852.734V856.734H216.315L216.357 856.734L216.273 852.734ZM245.18 842.578L242.435 839.669L242.421 839.682L242.407 839.695L245.18 842.578ZM86.0938 821.289C86.0938 791.187 95.2934 766.978 113.476 748.298L107.743 742.718C87.9045 763.1 78.0938 789.412 78.0938 821.289H86.0938ZM113.466 748.307C131.6 729.801 155.828 720.406 186.586 720.406V712.406C154.062 712.406 127.64 722.412 107.752 742.708L113.466 748.307ZM186.586 720.406H192.055V712.406H186.586V720.406ZM192.055 720.406C212.754 720.406 231.081 724.403 247.124 732.3L250.657 725.122C233.367 716.612 213.804 712.406 192.055 712.406V720.406ZM247.135 732.305C263.288 740.194 275.574 751.271 284.133 765.535L290.992 761.419C281.582 745.734 268.087 733.634 250.646 725.117L247.135 732.305ZM284.138 765.543C292.842 779.967 297.234 796.427 297.234 815.039H305.234C305.234 795.109 300.513 777.195 290.987 761.41L284.138 765.543ZM297.234 815.039C297.234 843.032 288.449 864.596 271.203 880.24L276.578 886.166C295.79 868.737 305.234 844.858 305.234 815.039H297.234ZM271.192 880.251C253.928 896.035 229.175 904.203 196.352 904.203V912.203C230.455 912.203 257.395 903.704 276.59 886.155L271.192 880.251ZM196.352 904.203H173.305V912.203H196.352V904.203ZM177.305 908.203V773.633H169.305V908.203H177.305ZM172.781 769.667C158.172 771.597 146.199 777.442 137.149 787.34L143.054 792.738C150.671 784.407 160.833 779.315 173.828 777.598L172.781 769.667ZM137.13 787.361C128.048 797.437 123.602 810.086 123.602 825H131.602C131.602 811.789 135.488 801.131 143.073 792.717L137.13 787.361ZM123.602 825C123.602 847.852 131.953 866.063 148.78 879.135L153.688 872.818C139.005 861.411 131.602 845.637 131.602 825H123.602ZM148.57 872.993L117.515 900.728L122.844 906.694L153.899 878.96L148.57 872.993ZM122.488 900.444C111.125 892.416 102.18 881.521 95.6769 867.639L88.4325 871.033C95.471 886.057 105.276 898.079 117.872 906.978L122.488 900.444ZM95.6894 867.666C89.3137 853.789 86.0938 838.352 86.0938 821.289H78.0938C78.0938 839.383 81.5144 855.976 88.42 871.006L95.6894 867.666ZM259.531 814.844C259.531 802.641 255.368 792.429 246.929 784.572L241.477 790.428C248.143 796.633 251.531 804.651 251.531 814.844H259.531ZM246.901 784.547C238.561 776.926 226.894 772.279 212.332 770.257L211.231 778.181C224.793 780.064 234.741 784.272 241.505 790.453L246.901 784.547ZM207.781 774.219V852.734H215.781V774.219H207.781ZM211.781 856.734H216.273V848.734H211.781V856.734ZM216.357 856.734C229.522 856.459 240.244 852.873 247.952 845.461L242.407 839.695C236.573 845.304 228.025 848.489 216.19 848.735L216.357 856.734ZM247.925 845.488C255.826 838.034 259.531 827.617 259.531 814.844H251.531C251.531 826.029 248.336 834.102 242.435 839.669L247.925 845.488ZM136.195 1053.71L139.198 1051.07L136.195 1053.71ZM159.047 1063.87H163.047V1059.98L159.156 1059.87L159.047 1063.87ZM159.047 1116.8L159.01 1120.8L163.047 1120.83V1116.8H159.047ZM119.594 1105.08L117.418 1108.43L117.426 1108.44L117.434 1108.45L119.594 1105.08ZM91.8594 1073.44L88.2677 1075.2L88.2712 1075.21L88.2747 1075.21L91.8594 1073.44ZM110.805 957.812L108.12 954.847L108.11 954.856L110.805 957.812ZM272.133 957.617L274.796 954.633L272.133 957.617ZM278.578 1092.38L275.679 1089.63L275.668 1089.64L275.656 1089.65L278.578 1092.38ZM218.617 1116.8H214.617V1120.84L218.659 1120.8L218.617 1116.8ZM218.617 1063.87L218.522 1059.87L214.617 1059.96V1063.87H218.617ZM245.18 1053.71L242.435 1050.8L242.421 1050.81L242.407 1050.83L245.18 1053.71ZM241.078 998.047L243.378 994.774L243.369 994.768L241.078 998.047ZM141.859 998.047L139.569 994.768L141.859 998.047ZM123.602 1028.32C123.602 1039.5 126.697 1048.97 133.192 1056.35L139.198 1051.07C134.236 1045.43 131.602 1037.97 131.602 1028.32H123.602ZM133.192 1056.35C139.731 1063.78 148.44 1067.58 158.937 1067.87L159.156 1059.87C150.643 1059.64 144.118 1056.66 139.198 1051.07L133.192 1056.35ZM155.047 1063.87V1116.8H163.047V1063.87H155.047ZM159.083 1112.8C145.508 1112.67 133.094 1108.98 121.753 1101.71L117.434 1108.45C130.052 1116.54 143.94 1120.66 159.01 1120.8L159.083 1112.8ZM121.77 1101.72C110.56 1094.45 101.786 1084.47 95.444 1071.66L88.2747 1075.21C95.2144 1089.23 104.929 1100.34 117.418 1108.43L121.77 1101.72ZM95.451 1071.68C89.2332 1058.99 86.0938 1044.89 86.0938 1029.3H78.0938C78.0938 1046 81.4647 1061.32 88.2677 1075.2L95.451 1071.68ZM86.0938 1029.3C86.0938 1000.01 95.3307 977.331 113.499 960.769L108.11 954.856C87.9975 973.19 78.0938 998.169 78.0938 1029.3H86.0938ZM113.489 960.778C131.825 944.177 157.322 935.641 190.492 935.641V927.641C155.954 927.641 128.327 936.552 108.12 954.847L113.489 960.778ZM190.492 935.641H194.203V927.641H190.492V935.641ZM194.203 935.641C226.029 935.641 250.972 944.091 269.469 960.601L274.796 954.633C254.491 936.508 227.481 927.641 194.203 927.641V935.641ZM269.469 960.601C287.88 977.035 297.234 999.635 297.234 1028.91H305.234C305.234 997.761 295.188 972.835 274.796 954.633L269.469 960.601ZM297.234 1028.91C297.234 1054.54 289.936 1074.63 275.679 1089.63L281.477 1095.14C297.429 1078.36 305.234 1056.14 305.234 1028.91H297.234ZM275.656 1089.65C261.536 1104.75 242.65 1112.55 218.576 1112.8L218.659 1120.8C244.584 1120.53 265.672 1112.04 281.5 1095.11L275.656 1089.65ZM222.617 1116.8V1063.87H214.617V1116.8H222.617ZM218.712 1067.87C230.475 1067.59 240.342 1063.91 247.952 1056.59L242.407 1050.83C236.475 1056.53 228.635 1059.63 218.522 1059.87L218.712 1067.87ZM247.925 1056.62C255.731 1049.26 259.531 1039.56 259.531 1027.93H251.531C251.531 1037.66 248.43 1045.15 242.435 1050.8L247.925 1056.62ZM259.531 1027.93C259.531 1013.65 254.216 1002.39 243.378 994.774L238.778 1001.32C247.211 1007.25 251.531 1015.9 251.531 1027.93H259.531ZM243.369 994.768C232.827 987.403 216.296 984.086 194.594 984.086V992.086C215.861 992.086 230.319 995.41 238.787 1001.33L243.369 994.768ZM194.594 984.086H188.734V992.086H194.594V984.086ZM188.734 984.086C166.784 984.086 150.116 987.399 139.569 994.768L144.15 1001.33C152.613 995.414 167.195 992.086 188.734 992.086V984.086ZM139.569 994.768C128.801 1002.29 123.602 1013.72 123.602 1028.32H131.602C131.602 1015.83 135.907 1007.08 144.15 1001.33L139.569 994.768ZM349.281 1216.6V1220.6H353.281V1216.6H349.281ZM297.328 1216.6V1212.6H293.328V1216.6H297.328ZM297.328 1252.73V1256.73H301.328V1252.73H297.328ZM255.922 1252.73H251.922V1256.73H255.922V1252.73ZM255.922 1216.6H259.922V1212.6H255.922V1216.6ZM133.656 1221.09L136.307 1224.09L133.656 1221.09ZM129.945 1254.88V1258.88H134.773L133.876 1254.14L129.945 1254.88ZM87.1719 1254.88L83.3468 1256.05L84.2125 1258.88H87.1719V1254.88ZM142.055 1160.16V1156.16H142.016L141.977 1156.16L142.055 1160.16ZM255.922 1160.16V1164.16H259.922V1160.16H255.922ZM255.922 1129.3V1125.3H251.922V1129.3H255.922ZM297.328 1129.3H301.328V1125.3H297.328V1129.3ZM297.328 1160.16H293.328V1164.16H297.328V1160.16ZM349.281 1160.16H353.281V1156.16H349.281V1160.16ZM349.281 1212.6H297.328V1220.6H349.281V1212.6ZM293.328 1216.6V1252.73H301.328V1216.6H293.328ZM297.328 1248.73H255.922V1256.73H297.328V1248.73ZM259.922 1252.73V1216.6H251.922V1252.73H259.922ZM255.922 1212.6H150.453V1220.6H255.922V1212.6ZM150.453 1212.6C142.315 1212.6 135.495 1214.13 131.006 1218.1L136.307 1224.09C138.588 1222.07 142.967 1220.6 150.453 1220.6V1212.6ZM131.006 1218.1C126.258 1222.3 124.578 1229.58 124.578 1238.28H132.578C132.578 1230.05 134.284 1225.88 136.307 1224.09L131.006 1218.1ZM124.578 1238.28C124.578 1244.72 125.047 1250.51 126.015 1255.63L133.876 1254.14C133.021 1249.62 132.578 1244.35 132.578 1238.28H124.578ZM129.945 1250.88H87.1719V1258.88H129.945V1250.88ZM90.9969 1253.71C87.729 1243.03 86.0938 1232.03 86.0938 1220.7H78.0938C78.0938 1232.81 79.844 1244.6 83.3468 1256.05L90.9969 1253.71ZM86.0938 1220.7C86.0938 1201.54 90.9258 1187.78 99.9261 1178.69C108.933 1169.6 122.759 1164.53 142.133 1164.16L141.977 1156.16C121.377 1156.56 105.221 1161.98 94.2419 1173.06C83.2552 1184.16 78.0938 1200.28 78.0938 1220.7H86.0938ZM142.055 1164.16H255.922V1156.16H142.055V1164.16ZM259.922 1160.16L259.922 1129.3H251.922L251.922 1160.16H259.922ZM255.922 1133.3H297.328V1125.3H255.922V1133.3ZM293.328 1129.3L293.328 1160.16H301.328L301.328 1129.3H293.328ZM297.328 1164.16H349.281V1156.16H297.328V1164.16ZM345.281 1160.16V1216.6H353.281V1160.16H345.281ZM160.609 1388.28L157.174 1386.23L157.151 1386.27L157.128 1386.31L160.609 1388.28ZM171.352 1355.47L167.437 1354.65L167.435 1354.66L171.352 1355.47ZM282.289 1303.32L279.176 1305.83L279.178 1305.83L282.289 1303.32ZM282.289 1428.71L279.148 1426.23L279.143 1426.24L279.139 1426.25L282.289 1428.71ZM233.07 1452.93H229.07V1456.93H233.07V1452.93ZM233.07 1396.48V1392.48H229.07V1396.48H233.07ZM252.992 1388.67L250.199 1385.81L250.181 1385.83L250.164 1385.84L252.992 1388.67ZM222.914 1343.16L219.586 1340.95L219.558 1340.99L219.53 1341.03L222.914 1343.16ZM212.953 1373.24L209.034 1372.44L209.03 1372.46L209.027 1372.48L212.953 1373.24ZM203.578 1408.79L207.333 1410.17L207.336 1410.16L203.578 1408.79ZM99.8672 1428.71L96.6157 1431.04L96.6218 1431.05L96.6278 1431.06L99.8672 1428.71ZM91.4688 1317.38L87.844 1315.69L87.8344 1315.71L87.8249 1315.73L91.4688 1317.38ZM117.445 1285.16L115.139 1281.89L115.129 1281.89L115.12 1281.9L117.445 1285.16ZM153.188 1273.44H157.188V1269.44H153.188V1273.44ZM153.188 1326.95L153.395 1330.95L157.188 1330.75V1326.95H153.188ZM128.188 1390.23L124.969 1392.61L124.974 1392.62L124.979 1392.62L128.188 1390.23ZM144.398 1402.63C152.982 1402.63 159.601 1398.18 164.09 1390.25L157.128 1386.31C153.805 1392.18 149.617 1394.63 144.398 1394.63V1402.63ZM164.045 1390.33C168.436 1382.96 172.123 1371.49 175.269 1356.28L167.435 1354.66C164.331 1369.66 160.855 1380.06 157.174 1386.23L164.045 1390.33ZM175.266 1356.29C180.472 1331.48 188.256 1313.37 198.326 1301.52C208.265 1289.82 220.541 1284.08 235.414 1284.08V1276.08C218.126 1276.08 203.644 1282.9 192.229 1296.34C180.945 1309.62 172.778 1329.19 167.437 1354.65L175.266 1356.29ZM235.414 1284.08C252.871 1284.08 267.381 1291.21 279.176 1305.83L285.402 1300.81C272.197 1284.44 255.457 1276.08 235.414 1276.08V1284.08ZM279.178 1305.83C291.101 1320.58 297.234 1340 297.234 1364.45H305.234C305.234 1338.64 298.738 1317.31 285.4 1300.81L279.178 1305.83ZM297.234 1364.45C297.234 1390.66 291.068 1411.12 279.148 1426.23L285.43 1431.19C298.77 1414.27 305.234 1391.89 305.234 1364.45H297.234ZM279.139 1426.25C267.253 1441.44 252 1448.93 233.07 1448.93V1456.93C254.505 1456.93 272.065 1448.27 285.44 1431.18L279.139 1426.25ZM237.07 1452.93V1396.48H229.07V1452.93H237.07ZM233.07 1400.48C242.092 1400.48 249.786 1397.53 255.821 1391.5L250.164 1385.84C245.781 1390.23 240.194 1392.48 233.07 1392.48V1400.48ZM255.785 1391.54C262.202 1385.28 265 1375.88 265 1364.26H257C257 1374.77 254.46 1381.65 250.199 1385.81L255.785 1391.54ZM265 1364.26C265 1354.2 262.729 1345.81 257.64 1339.64L251.469 1344.73C254.974 1348.98 257 1355.31 257 1364.26H265ZM257.64 1339.64C252.598 1333.53 246.006 1330.38 238.148 1330.38V1338.38C243.572 1338.38 247.917 1340.43 251.469 1344.73L257.64 1339.64ZM238.148 1330.38C230.374 1330.38 224.124 1334.14 219.586 1340.95L226.242 1345.38C229.517 1340.47 233.423 1338.38 238.148 1338.38V1330.38ZM219.53 1341.03C215.348 1347.67 211.916 1358.29 209.034 1372.44L216.873 1374.04C219.719 1360.07 222.928 1350.64 226.298 1345.3L219.53 1341.03ZM209.027 1372.48C206.318 1386.41 203.242 1398.04 199.82 1407.42L207.336 1410.16C210.946 1400.27 214.12 1388.2 216.88 1374.01L209.027 1372.48ZM199.823 1407.41C194.53 1421.84 187.425 1432.32 178.692 1439.19C170.008 1446.02 159.433 1449.52 146.742 1449.52V1457.52C161.004 1457.52 173.379 1453.55 183.64 1445.48C193.852 1437.44 201.689 1425.56 207.333 1410.17L199.823 1407.41ZM146.742 1449.52C128.841 1449.52 114.386 1441.93 103.107 1426.36L96.6278 1431.06C109.307 1448.56 126.102 1457.52 146.742 1457.52V1449.52ZM103.119 1426.38C91.8795 1410.7 86.0938 1390.22 86.0938 1364.65H78.0938C78.0938 1391.42 84.157 1413.65 96.6157 1431.04L103.119 1426.38ZM86.0938 1364.65C86.0938 1347.41 89.1336 1332.24 95.1126 1319.03L87.8249 1315.73C81.3039 1330.13 78.0938 1346.47 78.0938 1364.65H86.0938ZM95.0935 1319.07C101.219 1305.95 109.46 1295.78 119.77 1288.41L115.12 1281.9C103.556 1290.16 94.4792 1301.47 87.844 1315.69L95.0935 1319.07ZM119.752 1288.42C130.189 1281.06 141.305 1277.44 153.188 1277.44V1269.44C139.549 1269.44 126.837 1273.63 115.139 1281.89L119.752 1288.42ZM149.188 1273.44V1326.95H157.188V1273.44H149.188ZM152.98 1322.96C141.985 1323.53 133.14 1327.67 126.977 1335.64L133.304 1340.53C137.819 1334.7 144.338 1331.42 153.395 1330.95L152.98 1322.96ZM126.977 1335.64C120.942 1343.44 118.133 1353.64 118.133 1365.82H126.133C126.133 1354.83 128.662 1346.53 133.304 1340.53L126.977 1335.64ZM118.133 1365.82C118.133 1377.02 120.204 1386.15 124.969 1392.61L131.406 1387.86C128.098 1383.38 126.133 1376.24 126.133 1365.82H118.133ZM124.979 1392.62C129.855 1399.18 136.42 1402.63 144.398 1402.63V1394.63C139.096 1394.63 134.853 1392.49 131.396 1387.85L124.979 1392.62Z" fill="#F64C72"/>
</svg>
