<svg width="227" height="696" viewBox="0 0 227 696" fill="none" xmlns="http://www.w3.org/2000/svg">
<mask id="path-1-outside-1_1_6" maskUnits="userSpaceOnUse" x="-1" y="-0.9375" width="229" height="698" fill="black">
<rect fill="white" x="-1" y="-0.9375" width="229" height="698"/>
<path fill-rule="evenodd" clip-rule="evenodd" d="M211.75 4.0625L178.703 4.0625V66.0781L7 66.0781V108.125L178.703 108.125V171.125H211.75V4.0625ZM174.703 112.125L3 112.125V62.0781L174.703 62.0781V0.0625L215.75 0.0625V175.125H174.703V112.125ZM49.4582 304.853L49.4468 304.85C39.6019 301.502 30.9317 296.558 23.4825 290.003C16.0786 283.499 10.3465 275.506 6.28056 266.085C2.18402 256.593 0.1875 245.819 0.1875 233.844C0.1875 221.867 2.18439 211.053 6.27457 201.476L6.27754 201.469L6.28056 201.462C10.3448 192.045 16.0715 184.013 23.4625 177.421L23.4838 177.402L23.5053 177.383C30.9516 170.93 39.6143 166.04 49.4468 162.697L49.4582 162.693C59.3798 159.353 70.081 157.703 81.5312 157.703H84.4844C96.021 157.703 106.725 159.351 116.562 162.695C126.489 166.037 135.164 170.931 142.53 177.401C149.931 183.902 155.662 191.89 159.728 201.305C163.924 210.802 165.969 221.582 165.969 233.562C165.969 245.544 163.923 256.365 159.734 265.947C155.672 275.451 149.945 283.49 142.54 289.997C135.174 296.563 126.496 301.507 116.562 304.852C106.725 308.195 96.0211 309.844 84.4844 309.844H81.5313C70.081 309.844 59.3798 308.193 49.4582 304.853ZM115.281 301.062C124.75 297.875 132.953 293.188 139.891 287C146.828 280.906 152.219 273.359 156.062 264.359C160 255.359 161.969 245.094 161.969 233.562C161.969 222.031 160 211.812 156.062 202.906C152.219 194 146.828 186.5 139.891 180.406C132.953 174.312 124.75 169.672 115.281 166.484C105.906 163.297 95.6406 161.703 84.4844 161.703H81.5312C70.4688 161.703 60.2031 163.297 50.7344 166.484C41.3594 169.672 33.1562 174.312 26.125 180.406C19.1875 186.594 13.7969 194.141 9.95312 203.047C6.10938 212.047 4.1875 222.312 4.1875 233.844C4.1875 245.375 6.10938 255.594 9.95313 264.5C13.7969 273.406 19.1875 280.906 26.125 287C33.1563 293.188 41.3594 297.875 50.7344 301.062C60.2031 304.25 70.4688 305.844 81.5313 305.844H84.4844C95.6406 305.844 105.906 304.25 115.281 301.062ZM64.5009 259.462L64.5326 259.469C69.7485 260.618 75.4102 261.203 81.5313 261.203H84.4844C90.4095 261.203 95.9262 260.62 101.047 259.472L101.086 259.463L101.125 259.455C106.275 258.408 110.712 256.727 114.489 254.461L114.533 254.434L114.579 254.408C118.325 252.291 121.186 249.53 123.249 246.118C125.235 242.832 126.328 238.708 126.328 233.562C126.328 228.427 125.24 224.308 123.26 221.025C121.195 217.696 118.318 214.915 114.534 212.691C110.746 210.504 106.293 208.862 101.125 207.81L101.111 207.808C95.9688 206.744 90.4301 206.203 84.4844 206.203H81.5312C75.3902 206.203 69.7068 206.745 64.4691 207.81C59.3165 208.858 54.875 210.494 51.0943 212.671C47.5329 214.866 44.7918 217.666 42.8018 221.089C40.8906 224.376 39.8281 228.565 39.8281 233.844C39.8281 238.908 40.8797 243.012 42.8018 246.318C44.7884 249.735 47.5196 252.479 51.0633 254.577C54.8508 256.762 59.3024 258.404 64.4691 259.455L64.5009 259.462ZM116.547 209.234C120.859 211.766 124.234 215 126.672 218.938C129.109 222.969 130.328 227.844 130.328 233.562C130.328 239.281 129.109 244.156 126.672 248.188C124.234 252.219 120.859 255.453 116.547 257.891C112.328 260.422 107.453 262.25 101.922 263.375C96.4844 264.594 90.6719 265.203 84.4844 265.203H81.5313C75.1563 265.203 69.2031 264.594 63.6719 263.375C58.1406 262.25 53.2656 260.469 49.0469 258.031C44.9219 255.594 41.6875 252.359 39.3438 248.328C37 244.297 35.8281 239.469 35.8281 233.844C35.8281 228.031 37 223.109 39.3438 219.078C41.6875 215.047 44.9219 211.766 49.0469 209.234C53.2656 206.797 58.1406 205.016 63.6719 203.891C69.2031 202.766 75.1562 202.203 81.5312 202.203H84.4844C90.6719 202.203 96.4844 202.766 101.922 203.891C107.453 205.016 112.328 206.797 116.547 209.234ZM49.4582 467.416L49.4468 467.412C39.6019 464.065 30.9317 459.121 23.4825 452.565C16.0786 446.061 10.3465 438.069 6.28056 428.647C2.18402 419.156 0.1875 408.381 0.1875 396.406C0.1875 384.43 2.18439 373.615 6.27457 364.038L6.27754 364.031L6.28056 364.024C10.3448 354.607 16.0715 346.576 23.4625 339.984L23.4838 339.965L23.5053 339.946C30.9516 333.492 39.6143 328.603 49.4468 325.26L49.4582 325.256C59.3798 321.916 70.081 320.266 81.5313 320.266H84.4844C96.021 320.266 106.725 321.914 116.562 325.257C126.489 328.6 135.164 333.493 142.53 339.963C149.931 346.464 155.662 354.452 159.728 363.867C163.924 373.364 165.969 384.144 165.969 396.125C165.969 408.107 163.923 418.927 159.734 428.509C155.672 438.014 149.945 446.053 142.54 452.559C135.174 459.126 126.496 464.07 116.562 467.414C106.725 470.758 96.0211 472.406 84.4844 472.406H81.5313C70.081 472.406 59.3798 470.756 49.4582 467.416ZM115.281 463.625C124.75 460.438 132.953 455.75 139.891 449.562C146.828 443.469 152.219 435.922 156.063 426.922C160 417.922 161.969 407.656 161.969 396.125C161.969 384.594 160 374.375 156.063 365.469C152.219 356.562 146.828 349.062 139.891 342.969C132.953 336.875 124.75 332.234 115.281 329.047C105.906 325.859 95.6406 324.266 84.4844 324.266H81.5313C70.4688 324.266 60.2031 325.859 50.7344 329.047C41.3594 332.234 33.1563 336.875 26.125 342.969C19.1875 349.156 13.7969 356.703 9.95313 365.609C6.10938 374.609 4.1875 384.875 4.1875 396.406C4.1875 407.938 6.10938 418.156 9.95313 427.062C13.7969 435.969 19.1875 443.469 26.125 449.562C33.1563 455.75 41.3594 460.438 50.7344 463.625C60.2031 466.812 70.4688 468.406 81.5313 468.406H84.4844C95.6406 468.406 105.906 466.812 115.281 463.625ZM64.5009 422.024L64.5326 422.031C69.7485 423.18 75.4102 423.766 81.5313 423.766H84.4844C90.4095 423.766 95.9262 423.182 101.047 422.034L101.086 422.026L101.125 422.018C106.275 420.97 110.712 419.289 114.489 417.023L114.533 416.996L114.579 416.971C118.325 414.853 121.186 412.093 123.249 408.68C125.235 405.395 126.328 401.27 126.328 396.125C126.328 390.989 125.239 386.87 123.26 383.587C121.195 380.258 118.318 377.477 114.534 375.253C110.746 373.067 106.293 371.424 101.125 370.373L101.111 370.37C95.9688 369.306 90.4301 368.766 84.4844 368.766H81.5313C75.3902 368.766 69.7068 369.308 64.4691 370.373C59.3165 371.421 54.875 373.057 51.0943 375.234C47.5329 377.428 44.7918 380.228 42.8018 383.651C40.8906 386.938 39.8281 391.128 39.8281 396.406C39.8281 401.471 40.8797 405.574 42.8018 408.88C44.7884 412.297 47.5196 415.041 51.0633 417.139C54.8508 419.325 59.3024 420.967 64.4691 422.018L64.5009 422.024ZM116.547 371.797C120.859 374.328 124.234 377.562 126.672 381.5C129.109 385.531 130.328 390.406 130.328 396.125C130.328 401.844 129.109 406.719 126.672 410.75C124.234 414.781 120.859 418.016 116.547 420.453C112.328 422.984 107.453 424.812 101.922 425.938C96.4844 427.156 90.6719 427.766 84.4844 427.766H81.5313C75.1563 427.766 69.2031 427.156 63.6719 425.938C58.1406 424.812 53.2656 423.031 49.0469 420.594C44.9219 418.156 41.6875 414.922 39.3438 410.891C37 406.859 35.8281 402.031 35.8281 396.406C35.8281 390.594 37 385.672 39.3438 381.641C41.6875 377.609 44.9219 374.328 49.0469 371.797C53.2656 369.359 58.1406 367.578 63.6719 366.453C69.2031 365.328 75.1563 364.766 81.5313 364.766H84.4844C90.6719 364.766 96.4844 365.328 101.922 366.453C107.453 367.578 112.328 369.359 116.547 371.797ZM227 540.047H3V491.406H227V540.047ZM59.7336 638.207L59.7544 638.161C61.6241 634.082 63.4266 627.923 65.0917 619.505L65.0997 619.464L65.1086 619.424C66.8339 611.564 68.997 604.202 71.605 597.344L71.6171 597.312L71.6298 597.28C74.365 590.442 77.6682 584.406 81.5656 579.209L81.5768 579.194L81.5882 579.18C85.562 573.983 90.2942 569.854 95.7831 566.85L95.7968 566.843L95.8106 566.835C101.525 563.767 107.955 562.281 115 562.281C121.965 562.281 128.562 563.771 134.741 566.758L134.765 566.77L134.789 566.782C140.938 569.857 146.334 574.198 150.975 579.746C155.752 585.44 159.4 592.28 161.972 600.188C164.658 608.252 165.969 617.215 165.969 627.031C165.969 640.661 163.796 652.586 159.296 662.687C154.831 672.802 148.588 680.739 140.485 686.285C132.47 691.93 123.321 694.734 113.172 694.734H109.172V646.234H113.172C116.52 646.234 119.364 645.522 121.803 644.192L121.866 644.157L121.93 644.125C124.284 642.948 126.182 641.069 127.614 638.282L127.643 638.224L127.675 638.167C129.113 635.58 129.984 631.911 129.984 626.891C129.984 622.858 129.27 619.591 127.996 616.966L127.975 616.924L127.956 616.882C126.721 614.18 125.108 612.261 123.175 610.945C121.316 609.709 119.282 609.094 116.969 609.094C115.225 609.094 113.775 609.428 112.542 610.022C111.459 610.676 110.27 611.806 109.047 613.641C107.782 615.537 106.512 618.117 105.275 621.465C104.136 624.893 103.057 629.193 102.053 634.399L102.048 634.422L102.043 634.444C99.7516 645.617 96.7297 655.669 92.9557 664.575C89.1863 673.695 83.9554 681.105 77.1876 686.647C70.2094 692.44 61.2164 695.156 50.5938 695.156C43.227 695.156 36.3874 693.513 30.1489 690.186C23.9562 686.883 18.5991 682.163 14.0656 676.119L14.0527 676.102L14.04 676.084C9.60001 670.03 6.18063 662.848 3.7287 654.61L3.72424 654.595L3.71992 654.58C1.3468 646.373 0.1875 637.224 0.1875 627.172C0.1875 612.552 2.8008 599.888 8.22411 589.342L8.22766 589.336L8.23126 589.329C13.5534 579.079 20.4074 571.103 28.8655 565.6L28.8889 565.585L28.9124 565.57C37.3418 560.252 46.1348 557.5 55.2344 557.5H59.2344V603.757L55.3699 603.888C50.4501 604.055 46.8921 605.285 44.3565 607.247C41.5759 609.495 39.5771 612.297 38.3269 615.728C36.9958 619.476 36.3125 623.562 36.3125 628.016C36.3125 632.918 36.9706 636.712 38.1117 639.548C39.3958 642.502 40.9628 644.478 42.6882 645.739L42.6986 645.747L42.709 645.755C44.5213 647.097 46.5848 647.781 49.0469 647.781C51.12 647.781 52.9263 647.198 54.5847 646.004C56.05 644.949 57.8485 642.605 59.7141 638.252L59.7336 638.207ZM34.4219 641.094C33.0156 637.625 32.3125 633.266 32.3125 628.016C32.3125 623.141 33.0625 618.594 34.5625 614.375C36.0625 610.25 38.5 606.828 41.875 604.109C45.25 601.484 49.7031 600.078 55.2344 599.891V561.5C53.8961 561.5 52.5628 561.565 51.2344 561.696C44.3736 562.371 37.6444 564.79 31.0469 568.953C23.2656 574.016 16.8438 581.422 11.7813 591.172C6.71875 601.016 4.1875 613.016 4.1875 627.172C4.1875 636.922 5.3125 645.688 7.5625 653.469C9.90625 661.344 13.1406 668.094 17.2656 673.719C21.4844 679.344 26.4063 683.656 32.0313 686.656C37.6563 689.656 43.8438 691.156 50.5938 691.156C60.5313 691.156 68.5469 688.625 74.6406 683.562C80.8281 678.5 85.7031 671.656 89.2656 663.031C92.9219 654.406 95.875 644.609 98.125 633.641C99.1563 628.297 100.281 623.797 101.5 620.141C102.813 616.578 104.219 613.672 105.719 611.422C107.219 609.172 108.859 607.531 110.641 606.5C112.516 605.562 114.625 605.094 116.969 605.094C120.063 605.094 122.875 605.938 125.406 607.625C128.031 609.406 130.094 611.938 131.594 615.219C133.188 618.5 133.984 622.391 133.984 626.891C133.984 632.328 133.047 636.734 131.172 640.109C129.391 643.578 126.906 646.109 123.719 647.703C120.625 649.391 117.109 650.234 113.172 650.234V690.734C114.527 690.734 115.86 690.68 117.172 690.573C124.937 689.935 131.947 687.411 138.203 683C145.609 677.938 151.422 670.625 155.641 661.062C159.859 651.594 161.969 640.25 161.969 627.031C161.969 617.562 160.703 609.031 158.172 601.438C155.734 593.938 152.313 587.562 147.906 582.312C143.594 577.156 138.625 573.172 133 570.359C127.375 567.641 121.375 566.281 115 566.281C108.531 566.281 102.766 567.641 97.7031 570.359C92.7344 573.078 88.4219 576.828 84.7656 581.609C81.1094 586.484 77.9688 592.203 75.3438 598.766C72.8125 605.422 70.7031 612.594 69.0156 620.281C67.3281 628.812 65.4531 635.328 63.3906 639.828C61.4219 644.422 59.2656 647.562 56.9219 649.25C54.5781 650.938 51.9531 651.781 49.0469 651.781C45.7656 651.781 42.8594 650.844 40.3281 648.969C37.8906 647.188 35.9219 644.562 34.4219 641.094ZM223 536.047V495.406H7V536.047H223Z"/>
</mask>
<path fill-rule="evenodd" clip-rule="evenodd" d="M211.75 4.0625L178.703 4.0625V66.0781L7 66.0781V108.125L178.703 108.125V171.125H211.75V4.0625ZM174.703 112.125L3 112.125V62.0781L174.703 62.0781V0.0625L215.75 0.0625V175.125H174.703V112.125ZM49.4582 304.853L49.4468 304.85C39.6019 301.502 30.9317 296.558 23.4825 290.003C16.0786 283.499 10.3465 275.506 6.28056 266.085C2.18402 256.593 0.1875 245.819 0.1875 233.844C0.1875 221.867 2.18439 211.053 6.27457 201.476L6.27754 201.469L6.28056 201.462C10.3448 192.045 16.0715 184.013 23.4625 177.421L23.4838 177.402L23.5053 177.383C30.9516 170.93 39.6143 166.04 49.4468 162.697L49.4582 162.693C59.3798 159.353 70.081 157.703 81.5312 157.703H84.4844C96.021 157.703 106.725 159.351 116.562 162.695C126.489 166.037 135.164 170.931 142.53 177.401C149.931 183.902 155.662 191.89 159.728 201.305C163.924 210.802 165.969 221.582 165.969 233.562C165.969 245.544 163.923 256.365 159.734 265.947C155.672 275.451 149.945 283.49 142.54 289.997C135.174 296.563 126.496 301.507 116.562 304.852C106.725 308.195 96.0211 309.844 84.4844 309.844H81.5313C70.081 309.844 59.3798 308.193 49.4582 304.853ZM115.281 301.062C124.75 297.875 132.953 293.188 139.891 287C146.828 280.906 152.219 273.359 156.062 264.359C160 255.359 161.969 245.094 161.969 233.562C161.969 222.031 160 211.812 156.062 202.906C152.219 194 146.828 186.5 139.891 180.406C132.953 174.312 124.75 169.672 115.281 166.484C105.906 163.297 95.6406 161.703 84.4844 161.703H81.5312C70.4688 161.703 60.2031 163.297 50.7344 166.484C41.3594 169.672 33.1562 174.312 26.125 180.406C19.1875 186.594 13.7969 194.141 9.95312 203.047C6.10938 212.047 4.1875 222.312 4.1875 233.844C4.1875 245.375 6.10938 255.594 9.95313 264.5C13.7969 273.406 19.1875 280.906 26.125 287C33.1563 293.188 41.3594 297.875 50.7344 301.062C60.2031 304.25 70.4688 305.844 81.5313 305.844H84.4844C95.6406 305.844 105.906 304.25 115.281 301.062ZM64.5009 259.462L64.5326 259.469C69.7485 260.618 75.4102 261.203 81.5313 261.203H84.4844C90.4095 261.203 95.9262 260.62 101.047 259.472L101.086 259.463L101.125 259.455C106.275 258.408 110.712 256.727 114.489 254.461L114.533 254.434L114.579 254.408C118.325 252.291 121.186 249.53 123.249 246.118C125.235 242.832 126.328 238.708 126.328 233.562C126.328 228.427 125.24 224.308 123.26 221.025C121.195 217.696 118.318 214.915 114.534 212.691C110.746 210.504 106.293 208.862 101.125 207.81L101.111 207.808C95.9688 206.744 90.4301 206.203 84.4844 206.203H81.5312C75.3902 206.203 69.7068 206.745 64.4691 207.81C59.3165 208.858 54.875 210.494 51.0943 212.671C47.5329 214.866 44.7918 217.666 42.8018 221.089C40.8906 224.376 39.8281 228.565 39.8281 233.844C39.8281 238.908 40.8797 243.012 42.8018 246.318C44.7884 249.735 47.5196 252.479 51.0633 254.577C54.8508 256.762 59.3024 258.404 64.4691 259.455L64.5009 259.462ZM116.547 209.234C120.859 211.766 124.234 215 126.672 218.938C129.109 222.969 130.328 227.844 130.328 233.562C130.328 239.281 129.109 244.156 126.672 248.188C124.234 252.219 120.859 255.453 116.547 257.891C112.328 260.422 107.453 262.25 101.922 263.375C96.4844 264.594 90.6719 265.203 84.4844 265.203H81.5313C75.1563 265.203 69.2031 264.594 63.6719 263.375C58.1406 262.25 53.2656 260.469 49.0469 258.031C44.9219 255.594 41.6875 252.359 39.3438 248.328C37 244.297 35.8281 239.469 35.8281 233.844C35.8281 228.031 37 223.109 39.3438 219.078C41.6875 215.047 44.9219 211.766 49.0469 209.234C53.2656 206.797 58.1406 205.016 63.6719 203.891C69.2031 202.766 75.1562 202.203 81.5312 202.203H84.4844C90.6719 202.203 96.4844 202.766 101.922 203.891C107.453 205.016 112.328 206.797 116.547 209.234ZM49.4582 467.416L49.4468 467.412C39.6019 464.065 30.9317 459.121 23.4825 452.565C16.0786 446.061 10.3465 438.069 6.28056 428.647C2.18402 419.156 0.1875 408.381 0.1875 396.406C0.1875 384.43 2.18439 373.615 6.27457 364.038L6.27754 364.031L6.28056 364.024C10.3448 354.607 16.0715 346.576 23.4625 339.984L23.4838 339.965L23.5053 339.946C30.9516 333.492 39.6143 328.603 49.4468 325.26L49.4582 325.256C59.3798 321.916 70.081 320.266 81.5313 320.266H84.4844C96.021 320.266 106.725 321.914 116.562 325.257C126.489 328.6 135.164 333.493 142.53 339.963C149.931 346.464 155.662 354.452 159.728 363.867C163.924 373.364 165.969 384.144 165.969 396.125C165.969 408.107 163.923 418.927 159.734 428.509C155.672 438.014 149.945 446.053 142.54 452.559C135.174 459.126 126.496 464.07 116.562 467.414C106.725 470.758 96.0211 472.406 84.4844 472.406H81.5313C70.081 472.406 59.3798 470.756 49.4582 467.416ZM115.281 463.625C124.75 460.438 132.953 455.75 139.891 449.562C146.828 443.469 152.219 435.922 156.063 426.922C160 417.922 161.969 407.656 161.969 396.125C161.969 384.594 160 374.375 156.063 365.469C152.219 356.562 146.828 349.062 139.891 342.969C132.953 336.875 124.75 332.234 115.281 329.047C105.906 325.859 95.6406 324.266 84.4844 324.266H81.5313C70.4688 324.266 60.2031 325.859 50.7344 329.047C41.3594 332.234 33.1563 336.875 26.125 342.969C19.1875 349.156 13.7969 356.703 9.95313 365.609C6.10938 374.609 4.1875 384.875 4.1875 396.406C4.1875 407.938 6.10938 418.156 9.95313 427.062C13.7969 435.969 19.1875 443.469 26.125 449.562C33.1563 455.75 41.3594 460.438 50.7344 463.625C60.2031 466.812 70.4688 468.406 81.5313 468.406H84.4844C95.6406 468.406 105.906 466.812 115.281 463.625ZM64.5009 422.024L64.5326 422.031C69.7485 423.18 75.4102 423.766 81.5313 423.766H84.4844C90.4095 423.766 95.9262 423.182 101.047 422.034L101.086 422.026L101.125 422.018C106.275 420.97 110.712 419.289 114.489 417.023L114.533 416.996L114.579 416.971C118.325 414.853 121.186 412.093 123.249 408.68C125.235 405.395 126.328 401.27 126.328 396.125C126.328 390.989 125.239 386.87 123.26 383.587C121.195 380.258 118.318 377.477 114.534 375.253C110.746 373.067 106.293 371.424 101.125 370.373L101.111 370.37C95.9688 369.306 90.4301 368.766 84.4844 368.766H81.5313C75.3902 368.766 69.7068 369.308 64.4691 370.373C59.3165 371.421 54.875 373.057 51.0943 375.234C47.5329 377.428 44.7918 380.228 42.8018 383.651C40.8906 386.938 39.8281 391.128 39.8281 396.406C39.8281 401.471 40.8797 405.574 42.8018 408.88C44.7884 412.297 47.5196 415.041 51.0633 417.139C54.8508 419.325 59.3024 420.967 64.4691 422.018L64.5009 422.024ZM116.547 371.797C120.859 374.328 124.234 377.562 126.672 381.5C129.109 385.531 130.328 390.406 130.328 396.125C130.328 401.844 129.109 406.719 126.672 410.75C124.234 414.781 120.859 418.016 116.547 420.453C112.328 422.984 107.453 424.812 101.922 425.938C96.4844 427.156 90.6719 427.766 84.4844 427.766H81.5313C75.1563 427.766 69.2031 427.156 63.6719 425.938C58.1406 424.812 53.2656 423.031 49.0469 420.594C44.9219 418.156 41.6875 414.922 39.3438 410.891C37 406.859 35.8281 402.031 35.8281 396.406C35.8281 390.594 37 385.672 39.3438 381.641C41.6875 377.609 44.9219 374.328 49.0469 371.797C53.2656 369.359 58.1406 367.578 63.6719 366.453C69.2031 365.328 75.1563 364.766 81.5313 364.766H84.4844C90.6719 364.766 96.4844 365.328 101.922 366.453C107.453 367.578 112.328 369.359 116.547 371.797ZM227 540.047H3V491.406H227V540.047ZM59.7336 638.207L59.7544 638.161C61.6241 634.082 63.4266 627.923 65.0917 619.505L65.0997 619.464L65.1086 619.424C66.8339 611.564 68.997 604.202 71.605 597.344L71.6171 597.312L71.6298 597.28C74.365 590.442 77.6682 584.406 81.5656 579.209L81.5768 579.194L81.5882 579.18C85.562 573.983 90.2942 569.854 95.7831 566.85L95.7968 566.843L95.8106 566.835C101.525 563.767 107.955 562.281 115 562.281C121.965 562.281 128.562 563.771 134.741 566.758L134.765 566.77L134.789 566.782C140.938 569.857 146.334 574.198 150.975 579.746C155.752 585.44 159.4 592.28 161.972 600.188C164.658 608.252 165.969 617.215 165.969 627.031C165.969 640.661 163.796 652.586 159.296 662.687C154.831 672.802 148.588 680.739 140.485 686.285C132.47 691.93 123.321 694.734 113.172 694.734H109.172V646.234H113.172C116.52 646.234 119.364 645.522 121.803 644.192L121.866 644.157L121.93 644.125C124.284 642.948 126.182 641.069 127.614 638.282L127.643 638.224L127.675 638.167C129.113 635.58 129.984 631.911 129.984 626.891C129.984 622.858 129.27 619.591 127.996 616.966L127.975 616.924L127.956 616.882C126.721 614.18 125.108 612.261 123.175 610.945C121.316 609.709 119.282 609.094 116.969 609.094C115.225 609.094 113.775 609.428 112.542 610.022C111.459 610.676 110.27 611.806 109.047 613.641C107.782 615.537 106.512 618.117 105.275 621.465C104.136 624.893 103.057 629.193 102.053 634.399L102.048 634.422L102.043 634.444C99.7516 645.617 96.7297 655.669 92.9557 664.575C89.1863 673.695 83.9554 681.105 77.1876 686.647C70.2094 692.44 61.2164 695.156 50.5938 695.156C43.227 695.156 36.3874 693.513 30.1489 690.186C23.9562 686.883 18.5991 682.163 14.0656 676.119L14.0527 676.102L14.04 676.084C9.60001 670.03 6.18063 662.848 3.7287 654.61L3.72424 654.595L3.71992 654.58C1.3468 646.373 0.1875 637.224 0.1875 627.172C0.1875 612.552 2.8008 599.888 8.22411 589.342L8.22766 589.336L8.23126 589.329C13.5534 579.079 20.4074 571.103 28.8655 565.6L28.8889 565.585L28.9124 565.57C37.3418 560.252 46.1348 557.5 55.2344 557.5H59.2344V603.757L55.3699 603.888C50.4501 604.055 46.8921 605.285 44.3565 607.247C41.5759 609.495 39.5771 612.297 38.3269 615.728C36.9958 619.476 36.3125 623.562 36.3125 628.016C36.3125 632.918 36.9706 636.712 38.1117 639.548C39.3958 642.502 40.9628 644.478 42.6882 645.739L42.6986 645.747L42.709 645.755C44.5213 647.097 46.5848 647.781 49.0469 647.781C51.12 647.781 52.9263 647.198 54.5847 646.004C56.05 644.949 57.8485 642.605 59.7141 638.252L59.7336 638.207ZM34.4219 641.094C33.0156 637.625 32.3125 633.266 32.3125 628.016C32.3125 623.141 33.0625 618.594 34.5625 614.375C36.0625 610.25 38.5 606.828 41.875 604.109C45.25 601.484 49.7031 600.078 55.2344 599.891V561.5C53.8961 561.5 52.5628 561.565 51.2344 561.696C44.3736 562.371 37.6444 564.79 31.0469 568.953C23.2656 574.016 16.8438 581.422 11.7813 591.172C6.71875 601.016 4.1875 613.016 4.1875 627.172C4.1875 636.922 5.3125 645.688 7.5625 653.469C9.90625 661.344 13.1406 668.094 17.2656 673.719C21.4844 679.344 26.4063 683.656 32.0313 686.656C37.6563 689.656 43.8438 691.156 50.5938 691.156C60.5313 691.156 68.5469 688.625 74.6406 683.562C80.8281 678.5 85.7031 671.656 89.2656 663.031C92.9219 654.406 95.875 644.609 98.125 633.641C99.1563 628.297 100.281 623.797 101.5 620.141C102.813 616.578 104.219 613.672 105.719 611.422C107.219 609.172 108.859 607.531 110.641 606.5C112.516 605.562 114.625 605.094 116.969 605.094C120.063 605.094 122.875 605.938 125.406 607.625C128.031 609.406 130.094 611.938 131.594 615.219C133.188 618.5 133.984 622.391 133.984 626.891C133.984 632.328 133.047 636.734 131.172 640.109C129.391 643.578 126.906 646.109 123.719 647.703C120.625 649.391 117.109 650.234 113.172 650.234V690.734C114.527 690.734 115.86 690.68 117.172 690.573C124.937 689.935 131.947 687.411 138.203 683C145.609 677.938 151.422 670.625 155.641 661.062C159.859 651.594 161.969 640.25 161.969 627.031C161.969 617.562 160.703 609.031 158.172 601.438C155.734 593.938 152.313 587.562 147.906 582.312C143.594 577.156 138.625 573.172 133 570.359C127.375 567.641 121.375 566.281 115 566.281C108.531 566.281 102.766 567.641 97.7031 570.359C92.7344 573.078 88.4219 576.828 84.7656 581.609C81.1094 586.484 77.9688 592.203 75.3438 598.766C72.8125 605.422 70.7031 612.594 69.0156 620.281C67.3281 628.812 65.4531 635.328 63.3906 639.828C61.4219 644.422 59.2656 647.562 56.9219 649.25C54.5781 650.938 51.9531 651.781 49.0469 651.781C45.7656 651.781 42.8594 650.844 40.3281 648.969C37.8906 647.188 35.9219 644.562 34.4219 641.094ZM223 536.047V495.406H7V536.047H223Z" fill="#F64C72"/>
<path fill-rule="evenodd" clip-rule="evenodd" d="M211.75 4.0625L178.703 4.0625V66.0781L7 66.0781V108.125L178.703 108.125V171.125H211.75V4.0625ZM174.703 112.125L3 112.125V62.0781L174.703 62.0781V0.0625L215.75 0.0625V175.125H174.703V112.125ZM49.4582 304.853L49.4468 304.85C39.6019 301.502 30.9317 296.558 23.4825 290.003C16.0786 283.499 10.3465 275.506 6.28056 266.085C2.18402 256.593 0.1875 245.819 0.1875 233.844C0.1875 221.867 2.18439 211.053 6.27457 201.476L6.27754 201.469L6.28056 201.462C10.3448 192.045 16.0715 184.013 23.4625 177.421L23.4838 177.402L23.5053 177.383C30.9516 170.93 39.6143 166.04 49.4468 162.697L49.4582 162.693C59.3798 159.353 70.081 157.703 81.5312 157.703H84.4844C96.021 157.703 106.725 159.351 116.562 162.695C126.489 166.037 135.164 170.931 142.53 177.401C149.931 183.902 155.662 191.89 159.728 201.305C163.924 210.802 165.969 221.582 165.969 233.562C165.969 245.544 163.923 256.365 159.734 265.947C155.672 275.451 149.945 283.49 142.54 289.997C135.174 296.563 126.496 301.507 116.562 304.852C106.725 308.195 96.0211 309.844 84.4844 309.844H81.5313C70.081 309.844 59.3798 308.193 49.4582 304.853ZM115.281 301.062C124.75 297.875 132.953 293.188 139.891 287C146.828 280.906 152.219 273.359 156.062 264.359C160 255.359 161.969 245.094 161.969 233.562C161.969 222.031 160 211.812 156.062 202.906C152.219 194 146.828 186.5 139.891 180.406C132.953 174.312 124.75 169.672 115.281 166.484C105.906 163.297 95.6406 161.703 84.4844 161.703H81.5312C70.4688 161.703 60.2031 163.297 50.7344 166.484C41.3594 169.672 33.1562 174.312 26.125 180.406C19.1875 186.594 13.7969 194.141 9.95312 203.047C6.10938 212.047 4.1875 222.312 4.1875 233.844C4.1875 245.375 6.10938 255.594 9.95313 264.5C13.7969 273.406 19.1875 280.906 26.125 287C33.1563 293.188 41.3594 297.875 50.7344 301.062C60.2031 304.25 70.4688 305.844 81.5313 305.844H84.4844C95.6406 305.844 105.906 304.25 115.281 301.062ZM64.5009 259.462L64.5326 259.469C69.7485 260.618 75.4102 261.203 81.5313 261.203H84.4844C90.4095 261.203 95.9262 260.62 101.047 259.472L101.086 259.463L101.125 259.455C106.275 258.408 110.712 256.727 114.489 254.461L114.533 254.434L114.579 254.408C118.325 252.291 121.186 249.53 123.249 246.118C125.235 242.832 126.328 238.708 126.328 233.562C126.328 228.427 125.24 224.308 123.26 221.025C121.195 217.696 118.318 214.915 114.534 212.691C110.746 210.504 106.293 208.862 101.125 207.81L101.111 207.808C95.9688 206.744 90.4301 206.203 84.4844 206.203H81.5312C75.3902 206.203 69.7068 206.745 64.4691 207.81C59.3165 208.858 54.875 210.494 51.0943 212.671C47.5329 214.866 44.7918 217.666 42.8018 221.089C40.8906 224.376 39.8281 228.565 39.8281 233.844C39.8281 238.908 40.8797 243.012 42.8018 246.318C44.7884 249.735 47.5196 252.479 51.0633 254.577C54.8508 256.762 59.3024 258.404 64.4691 259.455L64.5009 259.462ZM116.547 209.234C120.859 211.766 124.234 215 126.672 218.938C129.109 222.969 130.328 227.844 130.328 233.562C130.328 239.281 129.109 244.156 126.672 248.188C124.234 252.219 120.859 255.453 116.547 257.891C112.328 260.422 107.453 262.25 101.922 263.375C96.4844 264.594 90.6719 265.203 84.4844 265.203H81.5313C75.1563 265.203 69.2031 264.594 63.6719 263.375C58.1406 262.25 53.2656 260.469 49.0469 258.031C44.9219 255.594 41.6875 252.359 39.3438 248.328C37 244.297 35.8281 239.469 35.8281 233.844C35.8281 228.031 37 223.109 39.3438 219.078C41.6875 215.047 44.9219 211.766 49.0469 209.234C53.2656 206.797 58.1406 205.016 63.6719 203.891C69.2031 202.766 75.1562 202.203 81.5312 202.203H84.4844C90.6719 202.203 96.4844 202.766 101.922 203.891C107.453 205.016 112.328 206.797 116.547 209.234ZM49.4582 467.416L49.4468 467.412C39.6019 464.065 30.9317 459.121 23.4825 452.565C16.0786 446.061 10.3465 438.069 6.28056 428.647C2.18402 419.156 0.1875 408.381 0.1875 396.406C0.1875 384.43 2.18439 373.615 6.27457 364.038L6.27754 364.031L6.28056 364.024C10.3448 354.607 16.0715 346.576 23.4625 339.984L23.4838 339.965L23.5053 339.946C30.9516 333.492 39.6143 328.603 49.4468 325.26L49.4582 325.256C59.3798 321.916 70.081 320.266 81.5313 320.266H84.4844C96.021 320.266 106.725 321.914 116.562 325.257C126.489 328.6 135.164 333.493 142.53 339.963C149.931 346.464 155.662 354.452 159.728 363.867C163.924 373.364 165.969 384.144 165.969 396.125C165.969 408.107 163.923 418.927 159.734 428.509C155.672 438.014 149.945 446.053 142.54 452.559C135.174 459.126 126.496 464.07 116.562 467.414C106.725 470.758 96.0211 472.406 84.4844 472.406H81.5313C70.081 472.406 59.3798 470.756 49.4582 467.416ZM115.281 463.625C124.75 460.438 132.953 455.75 139.891 449.562C146.828 443.469 152.219 435.922 156.063 426.922C160 417.922 161.969 407.656 161.969 396.125C161.969 384.594 160 374.375 156.063 365.469C152.219 356.562 146.828 349.062 139.891 342.969C132.953 336.875 124.75 332.234 115.281 329.047C105.906 325.859 95.6406 324.266 84.4844 324.266H81.5313C70.4688 324.266 60.2031 325.859 50.7344 329.047C41.3594 332.234 33.1563 336.875 26.125 342.969C19.1875 349.156 13.7969 356.703 9.95313 365.609C6.10938 374.609 4.1875 384.875 4.1875 396.406C4.1875 407.938 6.10938 418.156 9.95313 427.062C13.7969 435.969 19.1875 443.469 26.125 449.562C33.1563 455.75 41.3594 460.438 50.7344 463.625C60.2031 466.812 70.4688 468.406 81.5313 468.406H84.4844C95.6406 468.406 105.906 466.812 115.281 463.625ZM64.5009 422.024L64.5326 422.031C69.7485 423.18 75.4102 423.766 81.5313 423.766H84.4844C90.4095 423.766 95.9262 423.182 101.047 422.034L101.086 422.026L101.125 422.018C106.275 420.97 110.712 419.289 114.489 417.023L114.533 416.996L114.579 416.971C118.325 414.853 121.186 412.093 123.249 408.68C125.235 405.395 126.328 401.27 126.328 396.125C126.328 390.989 125.239 386.87 123.26 383.587C121.195 380.258 118.318 377.477 114.534 375.253C110.746 373.067 106.293 371.424 101.125 370.373L101.111 370.37C95.9688 369.306 90.4301 368.766 84.4844 368.766H81.5313C75.3902 368.766 69.7068 369.308 64.4691 370.373C59.3165 371.421 54.875 373.057 51.0943 375.234C47.5329 377.428 44.7918 380.228 42.8018 383.651C40.8906 386.938 39.8281 391.128 39.8281 396.406C39.8281 401.471 40.8797 405.574 42.8018 408.88C44.7884 412.297 47.5196 415.041 51.0633 417.139C54.8508 419.325 59.3024 420.967 64.4691 422.018L64.5009 422.024ZM116.547 371.797C120.859 374.328 124.234 377.562 126.672 381.5C129.109 385.531 130.328 390.406 130.328 396.125C130.328 401.844 129.109 406.719 126.672 410.75C124.234 414.781 120.859 418.016 116.547 420.453C112.328 422.984 107.453 424.812 101.922 425.938C96.4844 427.156 90.6719 427.766 84.4844 427.766H81.5313C75.1563 427.766 69.2031 427.156 63.6719 425.938C58.1406 424.812 53.2656 423.031 49.0469 420.594C44.9219 418.156 41.6875 414.922 39.3438 410.891C37 406.859 35.8281 402.031 35.8281 396.406C35.8281 390.594 37 385.672 39.3438 381.641C41.6875 377.609 44.9219 374.328 49.0469 371.797C53.2656 369.359 58.1406 367.578 63.6719 366.453C69.2031 365.328 75.1563 364.766 81.5313 364.766H84.4844C90.6719 364.766 96.4844 365.328 101.922 366.453C107.453 367.578 112.328 369.359 116.547 371.797ZM227 540.047H3V491.406H227V540.047ZM59.7336 638.207L59.7544 638.161C61.6241 634.082 63.4266 627.923 65.0917 619.505L65.0997 619.464L65.1086 619.424C66.8339 611.564 68.997 604.202 71.605 597.344L71.6171 597.312L71.6298 597.28C74.365 590.442 77.6682 584.406 81.5656 579.209L81.5768 579.194L81.5882 579.18C85.562 573.983 90.2942 569.854 95.7831 566.85L95.7968 566.843L95.8106 566.835C101.525 563.767 107.955 562.281 115 562.281C121.965 562.281 128.562 563.771 134.741 566.758L134.765 566.77L134.789 566.782C140.938 569.857 146.334 574.198 150.975 579.746C155.752 585.44 159.4 592.28 161.972 600.188C164.658 608.252 165.969 617.215 165.969 627.031C165.969 640.661 163.796 652.586 159.296 662.687C154.831 672.802 148.588 680.739 140.485 686.285C132.47 691.93 123.321 694.734 113.172 694.734H109.172V646.234H113.172C116.52 646.234 119.364 645.522 121.803 644.192L121.866 644.157L121.93 644.125C124.284 642.948 126.182 641.069 127.614 638.282L127.643 638.224L127.675 638.167C129.113 635.58 129.984 631.911 129.984 626.891C129.984 622.858 129.27 619.591 127.996 616.966L127.975 616.924L127.956 616.882C126.721 614.18 125.108 612.261 123.175 610.945C121.316 609.709 119.282 609.094 116.969 609.094C115.225 609.094 113.775 609.428 112.542 610.022C111.459 610.676 110.27 611.806 109.047 613.641C107.782 615.537 106.512 618.117 105.275 621.465C104.136 624.893 103.057 629.193 102.053 634.399L102.048 634.422L102.043 634.444C99.7516 645.617 96.7297 655.669 92.9557 664.575C89.1863 673.695 83.9554 681.105 77.1876 686.647C70.2094 692.44 61.2164 695.156 50.5938 695.156C43.227 695.156 36.3874 693.513 30.1489 690.186C23.9562 686.883 18.5991 682.163 14.0656 676.119L14.0527 676.102L14.04 676.084C9.60001 670.03 6.18063 662.848 3.7287 654.61L3.72424 654.595L3.71992 654.58C1.3468 646.373 0.1875 637.224 0.1875 627.172C0.1875 612.552 2.8008 599.888 8.22411 589.342L8.22766 589.336L8.23126 589.329C13.5534 579.079 20.4074 571.103 28.8655 565.6L28.8889 565.585L28.9124 565.57C37.3418 560.252 46.1348 557.5 55.2344 557.5H59.2344V603.757L55.3699 603.888C50.4501 604.055 46.8921 605.285 44.3565 607.247C41.5759 609.495 39.5771 612.297 38.3269 615.728C36.9958 619.476 36.3125 623.562 36.3125 628.016C36.3125 632.918 36.9706 636.712 38.1117 639.548C39.3958 642.502 40.9628 644.478 42.6882 645.739L42.6986 645.747L42.709 645.755C44.5213 647.097 46.5848 647.781 49.0469 647.781C51.12 647.781 52.9263 647.198 54.5847 646.004C56.05 644.949 57.8485 642.605 59.7141 638.252L59.7336 638.207ZM34.4219 641.094C33.0156 637.625 32.3125 633.266 32.3125 628.016C32.3125 623.141 33.0625 618.594 34.5625 614.375C36.0625 610.25 38.5 606.828 41.875 604.109C45.25 601.484 49.7031 600.078 55.2344 599.891V561.5C53.8961 561.5 52.5628 561.565 51.2344 561.696C44.3736 562.371 37.6444 564.79 31.0469 568.953C23.2656 574.016 16.8438 581.422 11.7813 591.172C6.71875 601.016 4.1875 613.016 4.1875 627.172C4.1875 636.922 5.3125 645.688 7.5625 653.469C9.90625 661.344 13.1406 668.094 17.2656 673.719C21.4844 679.344 26.4063 683.656 32.0313 686.656C37.6563 689.656 43.8438 691.156 50.5938 691.156C60.5313 691.156 68.5469 688.625 74.6406 683.562C80.8281 678.5 85.7031 671.656 89.2656 663.031C92.9219 654.406 95.875 644.609 98.125 633.641C99.1563 628.297 100.281 623.797 101.5 620.141C102.813 616.578 104.219 613.672 105.719 611.422C107.219 609.172 108.859 607.531 110.641 606.5C112.516 605.562 114.625 605.094 116.969 605.094C120.063 605.094 122.875 605.938 125.406 607.625C128.031 609.406 130.094 611.938 131.594 615.219C133.188 618.5 133.984 622.391 133.984 626.891C133.984 632.328 133.047 636.734 131.172 640.109C129.391 643.578 126.906 646.109 123.719 647.703C120.625 649.391 117.109 650.234 113.172 650.234V690.734C114.527 690.734 115.86 690.68 117.172 690.573C124.937 689.935 131.947 687.411 138.203 683C145.609 677.938 151.422 670.625 155.641 661.062C159.859 651.594 161.969 640.25 161.969 627.031C161.969 617.562 160.703 609.031 158.172 601.438C155.734 593.938 152.313 587.562 147.906 582.312C143.594 577.156 138.625 573.172 133 570.359C127.375 567.641 121.375 566.281 115 566.281C108.531 566.281 102.766 567.641 97.7031 570.359C92.7344 573.078 88.4219 576.828 84.7656 581.609C81.1094 586.484 77.9688 592.203 75.3438 598.766C72.8125 605.422 70.7031 612.594 69.0156 620.281C67.3281 628.812 65.4531 635.328 63.3906 639.828C61.4219 644.422 59.2656 647.562 56.9219 649.25C54.5781 650.938 51.9531 651.781 49.0469 651.781C45.7656 651.781 42.8594 650.844 40.3281 648.969C37.8906 647.188 35.9219 644.562 34.4219 641.094ZM223 536.047V495.406H7V536.047H223Z" stroke="#F64C72" stroke-width="2" mask="url(#path-1-outside-1_1_6)"/>
</svg>
