<svg width="323" height="1022" viewBox="0 0 323 1022" fill="none" xmlns="http://www.w3.org/2000/svg">
<path d="M117.5 157.104L114.326 154.671L114.313 154.688L114.3 154.704L117.5 157.104ZM135.781 115.972L131.979 114.729L131.976 114.74L131.972 114.751L135.781 115.972ZM154.824 68.9355L151.305 67.0341L151.302 67.0391L154.824 68.9355ZM263.56 34.2773L265.898 31.0319L265.891 31.0272L263.56 34.2773ZM291.172 70.6494L294.865 69.113L294.861 69.1025L291.172 70.6494ZM290.22 176.909L286.596 175.216L286.59 175.228L286.584 175.241L290.22 176.909ZM259.941 212.9L257.76 209.547L257.749 209.555L257.738 209.562L259.941 212.9ZM215.381 225.85H211.381V229.85H215.381V225.85ZM215.381 168.721V164.721H211.381V168.721H215.381ZM244.897 156.724L241.908 154.066L241.896 154.08L241.884 154.093L244.897 156.724ZM246.611 90.4541L243.418 92.8625L243.43 92.879L243.443 92.8955L246.611 90.4541ZM200.718 92.3584L197.404 90.1181L197.397 90.1288L197.39 90.1396L200.718 92.3584ZM183.579 132.539L179.75 131.382L179.749 131.387L183.579 132.539ZM36.5674 198.618L33.3647 201.015L33.3701 201.022L33.3754 201.029L36.5674 198.618ZM27.8076 67.0313L24.1589 65.392L24.154 65.403L24.1491 65.4141L27.8076 67.0313ZM59.9902 26.8506L57.7571 23.532L57.7465 23.5391L57.7359 23.5463L59.9902 26.8506ZM107.217 13.1396H111.217V9.13965H107.217V13.1396ZM107.217 70.459V74.459H111.217V70.459H107.217ZM69.5117 157.104L66.2605 159.435L66.2732 159.452L66.2861 159.47L69.5117 157.104ZM92.7441 172.53C104.602 172.53 114.123 168.273 120.7 159.504L114.3 154.704C109.451 161.17 102.468 164.53 92.7441 164.53V172.53ZM120.674 159.538C126.966 151.332 133.227 137.045 139.59 117.193L131.972 114.751C125.64 134.507 119.714 147.642 114.326 154.671L120.674 159.538ZM139.583 117.215C146.022 97.5208 152.284 82.0909 158.346 70.8319L151.302 67.0391C144.923 78.8856 138.49 94.8132 131.979 114.729L139.583 117.215ZM158.343 70.837C174.856 40.2759 196.598 25.709 223.569 25.709V17.709C192.904 17.709 168.816 34.6264 151.305 67.0341L158.343 70.837ZM223.569 25.709C237.751 25.709 250.258 29.6577 261.228 37.5275L265.891 31.0272C253.502 22.1392 239.349 17.709 223.569 17.709V25.709ZM261.221 37.5228C272.333 45.528 281.117 57.0147 287.483 72.1963L294.861 69.1025C288.024 52.7997 278.399 40.0384 265.898 31.0319L261.221 37.5228ZM287.479 72.1858C293.85 87.5026 297.074 104.743 297.074 123.97H305.074C305.074 103.84 301.696 85.5345 294.865 69.1131L287.479 72.1858ZM297.074 123.97C297.074 143.282 293.548 160.336 286.596 175.216L293.844 178.602C301.364 162.506 305.074 144.267 305.074 123.97H297.074ZM286.584 175.241C279.76 190.107 270.144 201.492 257.76 209.547L262.123 216.253C275.891 207.297 286.46 194.688 293.855 178.578L286.584 175.241ZM257.738 209.562C245.356 217.736 231.279 221.85 215.381 221.85V229.85C232.745 229.85 248.374 225.33 262.145 216.239L257.738 209.562ZM219.381 225.85V168.721H211.381V225.85H219.381ZM215.381 172.721C228.983 172.721 240.02 168.393 247.911 159.354L241.884 154.093C235.81 161.05 227.169 164.721 215.381 164.721V172.721ZM247.887 159.381C255.847 150.426 259.562 138.121 259.562 123.018H251.562C251.562 136.859 248.167 147.025 241.908 154.066L247.887 159.381ZM259.562 123.018C259.562 108.537 256.474 96.7006 249.78 88.0127L243.443 92.8955C248.682 99.6958 251.562 109.568 251.562 123.018H259.562ZM249.805 88.0457C243.214 79.3055 234.29 74.8379 223.379 74.8379V82.8379C231.764 82.8379 238.329 86.1144 243.418 92.8625L249.805 88.0457ZM223.379 74.8379C212.751 74.8379 204.065 80.2647 197.404 90.1181L204.032 94.5987C209.558 86.4248 215.98 82.8379 223.379 82.8379V74.8379ZM197.39 90.1396C190.98 99.7547 185.13 113.577 179.75 131.382L187.408 133.696C192.692 116.208 198.269 103.243 204.046 94.5772L197.39 90.1396ZM179.749 131.387C170.054 163.618 158.167 186.589 144.342 200.778L150.072 206.361C165.192 190.842 177.553 166.46 187.41 133.691L179.749 131.387ZM144.342 200.778C130.656 214.824 113.677 221.85 93.125 221.85V229.85C115.737 229.85 134.813 222.022 150.072 206.361L144.342 200.778ZM93.125 221.85C70.3052 221.85 52.6674 213.299 39.7593 196.207L33.3754 201.029C47.8893 220.246 67.9565 229.85 93.125 229.85V221.85ZM39.7701 196.222C26.8596 178.968 20.1914 155.464 20.1914 125.303H12.1914C12.1914 156.587 19.1072 181.96 33.3647 201.015L39.7701 196.222ZM20.1914 125.303C20.1914 104.468 23.9715 85.6036 31.4661 68.6484L24.1491 65.4141C16.1555 83.498 12.1914 103.481 12.1914 125.303H20.1914ZM31.4563 68.6705C39.0766 51.7092 49.3661 38.941 62.2445 30.1548L57.7359 23.5463C43.4464 33.2953 32.2808 47.3142 24.1589 65.392L31.4563 68.6705ZM62.2233 30.1692C75.0858 21.5141 90.0345 17.1396 107.217 17.1396V9.13965C88.5983 9.13965 72.0627 13.9058 57.7571 23.532L62.2233 30.1692ZM103.217 13.1396V70.459H111.217V13.1396H103.217ZM107.217 66.459C91.0967 66.459 78.3431 71.3089 69.729 81.6029C61.2291 91.7604 57.3232 106.561 57.3232 125.303H65.3232C65.3232 107.482 69.0663 94.8607 75.8643 86.7369C82.548 78.7497 92.7412 74.459 107.217 74.459V66.459ZM57.3232 125.303C57.3232 139.363 60.1401 150.895 66.2605 159.435L72.763 154.774C67.9654 148.08 65.3232 138.411 65.3232 125.303H57.3232ZM66.2861 159.47C72.6673 168.172 81.6399 172.53 92.7441 172.53V164.53C84.0437 164.53 77.528 161.272 72.7373 154.739L66.2861 159.47ZM102.646 335.918L104.804 339.286L108.99 336.605L105.475 333.09L102.646 335.918ZM82.8418 316.113L85.6702 313.285L84.4987 312.113H82.8418V316.113ZM20 316.113H16V320.113H20V316.113ZM20 261.079V257.079H16V261.079H20ZM312.5 261.079H316.5V257.079H312.5V261.079ZM312.5 316.113V320.113H316.5V316.113H312.5ZM150.444 316.113V312.113H138.786L147.989 319.271L150.444 316.113ZM164.155 326.777L166.75 323.733L166.682 323.675L166.611 323.62L164.155 326.777ZM226.045 379.526H230.045V377.68L228.64 376.482L226.045 379.526ZM226.045 445.605L223.425 448.628L230.045 454.367V445.605H226.045ZM140.161 371.147L142.781 368.125L140.467 366.119L137.927 367.83L140.161 371.147ZM20 452.08H16V459.597L22.2345 455.398L20 452.08ZM20 388.857L17.8425 385.489L16 386.669V388.857H20ZM105.475 333.09L85.6702 313.285L80.0134 318.942L99.8181 338.746L105.475 333.09ZM82.8418 312.113H20V320.113H82.8418V312.113ZM24 316.113V261.079H16V316.113H24ZM20 265.079H312.5V257.079H20V265.079ZM308.5 261.079V316.113H316.5V261.079H308.5ZM312.5 312.113H150.444V320.113H312.5V312.113ZM147.989 319.271L161.7 329.935L166.611 323.62L152.9 312.956L147.989 319.271ZM161.561 329.822L223.45 382.571L228.64 376.482L166.75 323.733L161.561 329.822ZM222.045 379.526V445.605H230.045V379.526H222.045ZM228.665 442.583L142.781 368.125L137.541 374.17L223.425 448.628L228.665 442.583ZM137.927 367.83L17.7655 448.762L22.2345 455.398L142.396 374.465L137.927 367.83ZM24 452.08L24 388.857H16L16 452.08H24ZM22.1575 392.226L104.804 339.286L100.489 332.55L17.8425 385.489L22.1575 392.226ZM20 527.49H16V531.49H20V527.49ZM20 472.266V468.266H16V472.266H20ZM226.045 472.266H230.045V468.266H226.045V472.266ZM226.045 527.49V531.49H230.045V527.49H226.045ZM299.741 477.217L302.635 474.455L302.619 474.438L302.603 474.422L299.741 477.217ZM258.799 522.158L261.723 519.429L261.708 519.413L261.692 519.396L258.799 522.158ZM258.799 477.407L255.905 474.645L255.89 474.662L255.875 474.678L258.799 477.407ZM24 527.49V472.266H16V527.49H24ZM20 476.266H226.045V468.266H20V476.266ZM222.045 472.266V527.49H230.045V472.266H222.045ZM226.045 523.49H20V531.49H226.045V523.49ZM279.365 473.028C286.637 473.028 292.366 475.39 296.88 480.012L302.603 474.422C296.453 468.125 288.597 465.028 279.365 465.028V473.028ZM296.848 479.979C301.312 484.656 303.739 491.133 303.739 499.878H311.739C311.739 489.58 308.834 480.949 302.635 474.455L296.848 479.979ZM303.739 499.878C303.739 508.479 301.322 514.9 296.848 519.587L302.635 525.111C308.825 518.626 311.739 510.065 311.739 499.878H303.739ZM296.848 519.587C292.326 524.323 286.608 526.728 279.365 526.728V534.728C288.627 534.728 296.492 531.546 302.635 525.111L296.848 519.587ZM279.365 526.728C272.005 526.728 266.24 524.268 261.723 519.429L255.875 524.887C262.022 531.474 269.967 534.728 279.365 534.728V526.728ZM261.692 519.396C257.208 514.699 254.801 508.336 254.801 499.878H246.801C246.801 509.955 249.725 518.446 255.905 524.92L261.692 519.396ZM254.801 499.878C254.801 491.423 257.208 484.974 261.723 480.136L255.875 474.678C249.726 481.266 246.801 489.797 246.801 499.878H254.801ZM261.692 480.169C266.201 475.446 271.976 473.028 279.365 473.028V465.028C269.996 465.028 262.061 468.197 255.905 474.645L261.692 480.169ZM20 631.084H16V635.084H20V631.084ZM20 575.859V571.859H16V575.859H20ZM312.5 575.859H316.5V571.859H312.5V575.859ZM312.5 631.084V635.084H316.5V631.084H312.5ZM24 631.084V575.859H16V631.084H24ZM20 579.859H312.5V571.859H20V579.859ZM308.5 575.859V631.084H316.5V575.859H308.5ZM312.5 627.084H20V635.084H312.5V627.084ZM20 734.678H16V738.678H20V734.678ZM20 679.453V675.453H16V679.453H20ZM312.5 679.453H316.5V675.453H312.5V679.453ZM312.5 734.678V738.678H316.5V734.678H312.5ZM24 734.678V679.453H16V734.678H24ZM20 683.453H312.5V675.453H20V683.453ZM308.5 679.453V734.678H316.5V679.453H308.5ZM312.5 730.678H20V738.678H312.5V730.678ZM92.7441 881.689L89.3084 879.641L89.2853 879.68L89.2631 879.719L92.7441 881.689ZM103.218 849.697L99.303 848.876L99.3007 848.887L103.218 849.697ZM211.382 798.853L208.269 801.364L208.271 801.367L211.382 798.853ZM211.382 921.108L208.241 918.631L208.236 918.638L208.231 918.644L211.382 921.108ZM163.394 944.722H159.394V948.722H163.394V944.722ZM163.394 889.688V885.688H159.394V889.688H163.394ZM182.817 882.07L180.024 879.207L180.006 879.224L179.989 879.242L182.817 882.07ZM153.491 837.7L150.163 835.481L150.135 835.524L150.108 835.567L153.491 837.7ZM143.779 867.026L139.86 866.228L139.856 866.245L139.853 866.263L143.779 867.026ZM134.639 901.685L138.394 903.062L138.396 903.056L134.639 901.685ZM33.5205 921.108L30.269 923.438L30.2751 923.447L30.2812 923.455L33.5205 921.108ZM25.332 812.563L21.7073 810.872L21.6976 810.893L21.6882 810.913L25.332 812.563ZM50.6592 781.143L48.3524 777.875L48.3433 777.881L48.3342 777.888L50.6592 781.143ZM85.5078 769.717H89.5078V765.717H85.5078V769.717ZM85.5078 821.895L85.7153 825.889L89.5078 825.692V821.895H85.5078ZM61.1328 883.594L57.9145 885.969L57.9192 885.975L57.9239 885.982L61.1328 883.594ZM76.9385 895.782C85.3491 895.782 91.8338 891.418 96.2252 883.66L89.2631 879.719C86.0373 885.418 81.9849 887.782 76.9385 887.782V895.782ZM96.1799 883.738C100.47 876.541 104.067 865.336 107.135 850.508L99.3007 848.887C96.2749 863.511 92.8893 873.634 89.3084 879.641L96.1799 883.738ZM107.133 850.519C112.206 826.339 119.791 808.694 129.594 797.158C139.266 785.775 151.208 780.191 165.679 780.191V772.191C148.792 772.191 134.645 778.858 123.497 791.978C112.48 804.943 104.512 824.051 99.303 848.876L107.133 850.519ZM165.679 780.191C182.667 780.191 196.786 787.131 208.269 801.364L214.495 796.341C201.602 780.359 185.253 772.191 165.679 772.191V780.191ZM208.271 801.367C219.878 815.726 225.854 834.635 225.854 858.457H233.854C233.854 833.275 227.515 812.448 214.493 796.338L208.271 801.367ZM225.854 858.457C225.854 883.995 219.845 903.917 208.241 918.631L214.523 923.585C227.547 907.07 233.854 885.224 233.854 858.457H225.854ZM208.231 918.644C196.661 933.435 181.818 940.722 163.394 940.722V948.722C184.324 948.722 201.474 940.266 214.532 923.573L208.231 918.644ZM167.394 944.722V889.688H159.394V944.722H167.394ZM163.394 893.688C172.213 893.688 179.742 890.803 185.646 884.899L179.989 879.242C175.737 883.494 170.316 885.688 163.394 885.688V893.688ZM185.611 884.933C191.893 878.804 194.625 869.616 194.625 858.267H186.625C186.625 868.499 184.152 875.18 180.024 879.207L185.611 884.933ZM194.625 858.267C194.625 848.443 192.407 840.24 187.426 834.203L181.255 839.294C184.653 843.412 186.625 849.555 186.625 858.267H194.625ZM187.426 834.203C182.492 828.221 176.036 825.131 168.345 825.131V833.131C173.602 833.131 177.811 835.119 181.255 839.294L187.426 834.203ZM168.345 825.131C160.726 825.131 154.603 828.821 150.163 835.481L156.819 839.919C159.996 835.154 163.775 833.131 168.345 833.131V825.131ZM150.108 835.567C146.019 842.051 142.671 852.428 139.86 866.228L147.699 867.825C150.474 854.203 153.6 845.029 156.875 839.833L150.108 835.567ZM139.853 866.263C137.213 879.842 134.215 891.177 130.881 900.314L138.396 903.056C141.918 893.403 145.014 881.633 147.706 867.79L139.853 866.263ZM130.883 900.307C125.727 914.363 118.809 924.562 110.313 931.247C101.866 937.895 91.5779 941.293 79.2236 941.293V949.293C93.1487 949.293 105.236 945.423 115.261 937.534C125.236 929.684 132.886 918.078 138.394 903.062L130.883 900.307ZM79.2236 941.293C61.8041 941.293 47.7399 933.919 36.7599 918.762L30.2812 923.455C42.6605 940.544 59.065 949.293 79.2236 949.293V941.293ZM36.772 918.779C25.829 903.507 20.1914 883.569 20.1914 858.647H12.1914C12.1914 884.761 18.1065 906.464 30.269 923.438L36.772 918.779ZM20.1914 858.647C20.1914 841.856 23.1532 827.072 28.9758 814.214L21.6882 810.913C15.3234 824.969 12.1914 840.908 12.1914 858.647H20.1914ZM28.9568 814.255C34.9225 801.471 42.9468 791.567 52.9841 784.398L48.3342 777.888C37.0434 785.953 28.183 796.995 21.7073 810.872L28.9568 814.255ZM52.9659 784.41C63.1261 777.239 73.9448 773.717 85.5078 773.717V765.717C72.188 765.717 59.7743 769.812 48.3524 777.875L52.9659 784.41ZM81.5078 769.717V821.895H89.5078V769.717H81.5078ZM85.3003 817.9C74.5561 818.458 65.9027 822.507 59.8733 830.302L66.2009 835.197C70.5816 829.534 76.9088 826.347 85.7153 825.889L85.3003 817.9ZM59.8733 830.302C53.9719 837.93 51.2295 847.896 51.2295 859.79H59.2295C59.2295 849.087 61.6921 841.025 66.2009 835.197L59.8733 830.302ZM51.2295 859.79C51.2295 870.715 53.2503 879.65 57.9145 885.969L64.3511 881.218C61.1442 876.874 59.2295 869.94 59.2295 859.79H51.2295ZM57.9239 885.982C62.6961 892.394 69.126 895.782 76.9385 895.782V887.782C71.8018 887.782 67.6945 885.711 64.3417 881.206L57.9239 885.982Z" fill="#F64C72"/>
</svg>
