<svg width="1920" height="925" viewBox="0 0 1920 925" fill="none" xmlns="http://www.w3.org/2000/svg">
<path d="M409.357 495.626V499.626H413.357V495.626H409.357ZM307.004 495.626V491.626H303.004V495.626H307.004ZM307.004 774V778H311.004V774H307.004ZM238.156 774H234.156V778H238.156V774ZM238.156 495.626H242.156V491.626H238.156V495.626ZM137.18 495.626H133.18V499.626H137.18V495.626ZM137.18 439.859V435.859H133.18V439.859H137.18ZM409.357 439.859H413.357V435.859H409.357V439.859ZM409.357 491.626H307.004V499.626H409.357V491.626ZM303.004 495.626V774H311.004V495.626H303.004ZM307.004 770H238.156V778H307.004V770ZM242.156 774V495.626H234.156V774H242.156ZM238.156 491.626H137.18V499.626H238.156V491.626ZM141.18 495.626V439.859H133.18V495.626H141.18ZM137.18 443.859H409.357V435.859H137.18V443.859ZM405.357 439.859V495.626H413.357V439.859H405.357ZM509.187 552.77H505.187V563.818L512.259 555.33L509.187 552.77ZM657.438 614.962H661.438V614.937L661.438 614.913L657.438 614.962ZM657.438 774V778H661.438V774H657.438ZM591.115 774H587.115V778H591.115V774ZM581.936 585.357L578.946 588.015L578.961 588.032L578.976 588.048L581.936 585.357ZM509.187 597.521L505.729 595.509L505.187 596.442V597.521H509.187ZM509.187 774V778H513.187V774H509.187ZM442.863 774H438.863V778H442.863V774ZM442.863 421.5V417.5H438.863V421.5H442.863ZM509.187 421.5H513.187V417.5H509.187V421.5ZM512.259 555.33C529.122 535.095 550.119 525.1 575.51 525.1V517.1C547.658 517.1 524.44 528.218 506.114 550.209L512.259 555.33ZM575.51 525.1C601.647 525.1 620.685 532.664 633.369 547.196C646.15 561.838 653.062 584.209 653.439 615.011L661.438 614.913C661.05 583.14 653.925 558.58 639.396 541.935C624.77 525.179 603.226 517.1 575.51 517.1V525.1ZM653.438 614.962V774H661.438V614.962H653.438ZM657.438 770H591.115V778H657.438V770ZM595.115 774V616.798H587.115V774H595.115ZM595.115 616.798C595.115 602.112 591.975 590.454 584.895 582.667L578.976 588.048C584.136 593.724 587.115 603.027 587.115 616.798H595.115ZM584.925 582.7C577.714 574.588 566.165 571.03 551.413 571.03V579.03C565.118 579.03 573.917 582.357 578.946 588.015L584.925 582.7ZM551.413 571.03C530.764 571.03 515.264 579.116 505.729 595.509L512.644 599.532C520.551 585.938 533.201 579.03 551.413 579.03V571.03ZM505.187 597.521V774H513.187V597.521H505.187ZM509.187 770H442.863V778H509.187V770ZM446.863 774V421.5H438.863V774H446.863ZM442.863 425.5H509.187V417.5H442.863V425.5ZM505.187 421.5V552.77H513.187V421.5H505.187ZM732.712 745.084L729.912 747.941L729.922 747.95L732.712 745.084ZM712.976 582.604L716.564 584.37L716.57 584.359L712.976 582.604ZM753.825 537.164L755.883 540.594L755.892 540.589L753.825 537.164ZM894.504 553.229L891.541 555.916L891.547 555.922L891.552 555.928L894.504 553.229ZM923.879 671.417V675.417H927.879V671.417H923.879ZM765.759 671.417V667.417H761.196L761.793 671.941L765.759 671.417ZM785.036 710.431L782.337 713.383L782.347 713.392L782.358 713.402L785.036 710.431ZM886.013 697.35L888.996 694.685L885.799 691.105L882.854 694.896L886.013 697.35ZM918.601 733.839L921.867 736.147L923.704 733.548L921.584 731.174L918.601 733.839ZM878.21 766.886L879.88 770.52L879.893 770.514L879.907 770.508L878.21 766.886ZM782.053 588.111L779.125 585.386L779.112 585.399L779.1 585.413L782.053 588.111ZM766.447 626.207L762.485 625.657L761.853 630.207H766.447V626.207ZM858.703 626.207V630.207H862.703V626.207H858.703ZM858.703 620.929H862.703V620.887L862.702 620.845L858.703 620.929ZM846.77 586.964L843.86 589.709L843.873 589.723L843.886 589.736L846.77 586.964ZM821.755 774.59C786.23 774.59 757.6 763.727 735.502 742.218L729.922 747.95C753.722 771.116 784.455 782.59 821.755 782.59V774.59ZM735.511 742.227C713.61 720.767 702.518 692.106 702.518 655.812H694.518C694.518 693.872 706.221 724.727 729.912 747.941L735.511 742.227ZM702.518 655.812V649.386H694.518V655.812H702.518ZM702.518 649.386C702.518 624.973 707.232 603.33 716.564 584.37L709.387 580.837C699.441 601.044 694.518 623.923 694.518 649.386H702.518ZM716.57 584.359C725.894 565.266 738.999 550.724 755.883 540.594L751.767 533.734C733.462 544.717 719.334 560.468 709.381 580.848L716.57 584.359ZM755.892 540.589C772.959 530.29 792.427 525.1 814.411 525.1V517.1C791.109 517.1 770.187 522.619 751.759 533.739L755.892 540.589ZM814.411 525.1C847.463 525.1 873.003 535.48 891.541 555.916L897.467 550.541C877.144 528.139 849.289 517.1 814.411 517.1V525.1ZM891.552 555.928C910.253 576.382 919.879 605.657 919.879 644.337H927.879C927.879 604.378 917.922 572.914 897.456 550.529L891.552 555.928ZM919.879 644.337V671.417H927.879V644.337H919.879ZM923.879 667.417H765.759V675.417H923.879V667.417ZM761.793 671.941C764.042 688.965 770.844 702.875 782.337 713.383L787.735 707.479C777.809 698.403 771.76 686.304 769.724 670.893L761.793 671.941ZM782.358 713.402C794.052 723.943 808.74 729.118 826.115 729.118V721.118C810.443 721.118 797.746 716.502 787.714 707.46L782.358 713.402ZM826.115 729.118C852.773 729.118 873.957 719.388 889.172 699.804L882.854 694.896C869.305 712.336 850.558 721.118 826.115 721.118V729.118ZM883.029 700.014L915.617 736.503L921.584 731.174L888.996 694.685L883.029 700.014ZM915.334 731.531C905.824 744.99 892.924 755.576 876.513 763.264L879.907 770.508C897.461 762.285 911.487 750.839 921.867 736.147L915.334 731.531ZM876.54 763.251C860.134 770.789 841.894 774.59 821.755 774.59V782.59C842.925 782.59 862.321 778.588 879.88 770.52L876.54 763.251ZM814.182 570.801C800.019 570.801 788.213 575.625 779.125 585.386L784.98 590.837C792.416 582.85 802.029 578.801 814.182 578.801V570.801ZM779.1 585.413C770.271 595.075 764.85 608.633 762.485 625.657L770.409 626.757C772.635 610.734 777.617 598.895 785.006 590.81L779.1 585.413ZM766.447 630.207H858.703V622.207H766.447V630.207ZM862.703 626.207V620.929H854.703V626.207H862.703ZM862.702 620.845C862.382 605.493 858.203 593.084 849.653 584.191L843.886 589.736C850.635 596.755 854.412 606.99 854.704 621.012L862.702 620.845ZM849.679 584.219C841.086 575.11 829.051 570.801 814.182 570.801V578.801C827.463 578.801 837.154 582.6 843.86 589.709L849.679 584.219ZM1031.74 774V778H1035.74V774H1031.74ZM965.188 774H961.188V778H965.188V774ZM965.188 525.689V521.689H961.188V525.689H965.188ZM1031.74 525.689H1035.74V521.689H1031.74V525.689ZM971.154 436.876L968.392 433.983L968.376 433.998L968.359 434.014L971.154 436.876ZM1025.31 486.217L1022.59 483.293L1022.57 483.308L1022.55 483.323L1025.31 486.217ZM971.384 486.217L968.622 489.11L968.638 489.126L968.655 489.141L971.384 486.217ZM1031.74 770H965.188V778H1031.74V770ZM969.188 774V525.689H961.188V774H969.188ZM965.188 529.689H1031.74V521.689H965.188V529.689ZM1027.74 525.689V774H1035.74V525.689H1027.74ZM965.286 461.432C965.286 452.467 968.208 445.345 973.949 439.737L968.359 434.014C960.943 441.258 957.286 450.507 957.286 461.432H965.286ZM973.916 439.769C979.739 434.211 987.765 431.237 998.464 431.237V423.237C986.213 423.237 976.033 426.689 968.392 433.983L973.916 439.769ZM998.464 431.237C1008.99 431.237 1016.95 434.201 1022.78 439.769L1028.31 433.983C1020.68 426.699 1010.58 423.237 998.464 423.237V431.237ZM1022.78 439.769C1028.66 445.385 1031.64 452.496 1031.64 461.432H1039.64C1039.64 450.478 1035.89 441.219 1028.31 433.983L1022.78 439.769ZM1031.64 461.432C1031.64 470.51 1028.6 477.682 1022.59 483.293L1028.04 489.141C1035.8 481.9 1039.64 472.548 1039.64 461.432H1031.64ZM1022.55 483.323C1016.71 488.901 1008.82 491.855 998.464 491.855V499.855C1010.44 499.855 1020.46 496.384 1028.08 489.11L1022.55 483.323ZM998.464 491.855C988.108 491.855 980.123 488.902 974.113 483.293L968.655 489.141C976.414 496.384 986.482 499.855 998.464 499.855V491.855ZM974.146 483.323C968.276 477.721 965.286 470.539 965.286 461.432H957.286C957.286 472.519 961.028 481.861 968.622 489.11L974.146 483.323ZM1208.91 686.334L1206.86 689.77L1206.9 689.793L1206.94 689.815L1208.91 686.334ZM1170.35 673.712L1169.53 677.627L1169.54 677.629L1170.35 673.712ZM1109.08 543.36L1111.59 546.474L1111.59 546.471L1109.08 543.36ZM1256.41 543.36L1253.94 546.501L1253.94 546.506L1253.95 546.511L1256.41 543.36ZM1284.87 601.192V605.192H1288.87V601.192H1284.87ZM1218.55 601.192H1214.55V605.192H1218.55V601.192ZM1209.37 577.784L1206.5 580.577L1206.52 580.595L1206.54 580.613L1209.37 577.784ZM1155.9 613.126L1153.68 616.454L1153.72 616.482L1153.76 616.51L1155.9 613.126ZM1191.24 624.83L1190.44 628.75L1190.46 628.753L1190.47 628.757L1191.24 624.83ZM1233 635.846L1234.38 632.09L1234.38 632.088L1233 635.846ZM1256.41 757.706L1258.74 760.958L1258.75 760.951L1258.76 760.945L1256.41 757.706ZM1125.6 767.574L1123.91 771.199L1123.93 771.209L1123.95 771.218L1125.6 767.574ZM1087.74 737.052L1084.47 739.358L1084.47 739.368L1084.48 739.377L1087.74 737.052ZM1073.97 695.055V691.055H1069.97V695.055H1073.97ZM1136.85 695.055L1140.84 694.847L1140.65 691.055H1136.85V695.055ZM1211.2 724.43L1213.58 727.648L1213.58 727.643L1213.59 727.639L1211.2 724.43ZM1225.07 705.382C1225.07 695.591 1220.02 688.026 1210.88 682.853L1206.94 689.815C1214.02 693.822 1217.07 698.955 1217.07 705.382H1225.07ZM1210.96 682.898C1202.41 677.801 1189.01 673.488 1171.16 669.795L1169.54 677.629C1187.19 681.28 1199.5 685.382 1206.86 689.77L1210.96 682.898ZM1171.18 669.797C1141.97 663.669 1120.56 654.489 1106.51 642.551C1092.61 630.743 1085.77 616.126 1085.77 598.438H1077.77C1077.77 618.541 1085.69 635.364 1101.33 648.647C1116.8 661.8 1139.68 671.363 1169.53 677.627L1171.18 669.797ZM1085.77 598.438C1085.77 577.7 1094.26 560.456 1111.59 546.474L1106.57 540.247C1087.49 555.64 1077.77 575.114 1077.77 598.438H1085.77ZM1111.59 546.471C1129.08 532.338 1152.06 525.1 1180.91 525.1V517.1C1150.7 517.1 1125.8 524.701 1106.56 540.25L1111.59 546.471ZM1180.91 525.1C1211.81 525.1 1236.02 532.371 1253.94 546.501L1258.89 540.22C1239.17 524.669 1213.04 517.1 1180.91 517.1V525.1ZM1253.95 546.511C1271.97 560.607 1280.87 578.731 1280.87 601.192H1288.87C1288.87 576.225 1278.8 555.794 1258.88 540.21L1253.95 546.511ZM1284.87 597.192H1218.55V605.192H1284.87V597.192ZM1222.55 601.192C1222.55 590.758 1219.14 581.901 1212.2 574.956L1206.54 580.613C1211.83 585.907 1214.55 592.656 1214.55 601.192H1222.55ZM1212.23 574.991C1205.06 567.64 1194.24 564.375 1180.68 564.375V572.375C1193.13 572.375 1201.44 575.382 1206.5 580.577L1212.23 574.991ZM1180.68 564.375C1168.96 564.375 1159.28 567.022 1152.2 572.863L1157.29 579.034C1162.45 574.777 1170.07 572.375 1180.68 572.375V564.375ZM1152.2 572.863C1145.18 578.657 1141.57 586.206 1141.57 595.226H1149.57C1149.57 588.64 1152.08 583.337 1157.29 579.034L1152.2 572.863ZM1141.57 595.226C1141.57 604.094 1145.84 611.233 1153.68 616.454L1158.11 609.798C1152.18 605.84 1149.57 601.045 1149.57 595.226H1141.57ZM1153.76 616.51C1161.44 621.353 1173.83 625.366 1190.44 628.75L1192.04 620.911C1175.6 617.563 1164.42 613.773 1158.03 609.742L1153.76 616.51ZM1190.47 628.757C1206.86 631.944 1220.57 635.567 1231.63 639.603L1234.38 632.088C1222.8 627.863 1208.66 624.142 1192 620.904L1190.47 628.757ZM1231.63 639.601C1248.67 645.851 1261.1 654.263 1269.28 664.654C1277.42 674.996 1281.56 687.578 1281.56 702.628H1289.56C1289.56 686.008 1284.94 671.625 1275.56 659.706C1266.22 647.836 1252.38 638.692 1234.38 632.09L1231.63 639.601ZM1281.56 702.628C1281.56 723.902 1272.53 741.091 1254.07 754.467L1258.76 760.945C1279.16 746.17 1289.56 726.641 1289.56 702.628H1281.56ZM1254.08 754.455C1235.5 767.767 1211.3 774.59 1181.14 774.59V782.59C1212.49 782.59 1238.46 775.49 1258.74 760.958L1254.08 754.455ZM1181.14 774.59C1160.81 774.59 1142.87 771.003 1127.25 763.93L1123.95 771.218C1140.77 778.833 1159.86 782.59 1181.14 782.59V774.59ZM1127.29 763.949C1111.78 756.708 1099.72 746.952 1090.99 734.727L1084.48 739.377C1094.11 752.855 1107.3 763.447 1123.91 771.199L1127.29 763.949ZM1091 734.745C1082.27 722.371 1077.97 709.17 1077.97 695.055H1069.97C1069.97 710.927 1074.84 725.723 1084.47 739.358L1091 734.745ZM1073.97 699.055H1136.85V691.055H1073.97V699.055ZM1132.85 695.262C1133.52 708.012 1138.31 718.201 1147.48 725.299L1152.38 718.971C1145.33 713.523 1141.4 705.659 1140.84 694.847L1132.85 695.262ZM1147.48 725.299C1156.49 732.268 1168.3 735.544 1182.52 735.544V727.544C1169.5 727.544 1159.58 724.547 1152.38 718.971L1147.48 725.299ZM1182.52 735.544C1195.6 735.544 1206.17 733.119 1213.58 727.648L1208.83 721.211C1203.39 725.226 1194.83 727.544 1182.52 727.544V735.544ZM1213.59 727.639C1221.12 722.033 1225.07 714.522 1225.07 705.382H1217.07C1217.07 711.847 1214.44 717.035 1208.82 721.221L1213.59 727.639ZM1353.72 745.084L1350.92 747.941L1350.93 747.95L1353.72 745.084ZM1333.98 582.604L1337.57 584.37L1337.58 584.359L1333.98 582.604ZM1374.83 537.164L1376.89 540.594L1376.9 540.589L1374.83 537.164ZM1515.51 553.229L1512.55 555.916L1512.55 555.922L1512.56 555.928L1515.51 553.229ZM1544.88 671.417V675.417H1548.88V671.417H1544.88ZM1386.76 671.417V667.417H1382.2L1382.8 671.941L1386.76 671.417ZM1406.04 710.431L1403.34 713.383L1403.35 713.392L1403.36 713.402L1406.04 710.431ZM1507.02 697.35L1510 694.685L1506.8 691.105L1503.86 694.896L1507.02 697.35ZM1539.61 733.839L1542.87 736.147L1544.71 733.548L1542.59 731.174L1539.61 733.839ZM1499.22 766.886L1500.89 770.52L1500.9 770.514L1500.91 770.508L1499.22 766.886ZM1403.06 588.111L1400.13 585.386L1400.12 585.399L1400.11 585.413L1403.06 588.111ZM1387.45 626.207L1383.49 625.657L1382.86 630.207H1387.45V626.207ZM1479.71 626.207V630.207H1483.71V626.207H1479.71ZM1479.71 620.929H1483.71V620.887L1483.71 620.845L1479.71 620.929ZM1467.78 586.964L1464.87 589.709L1464.88 589.723L1464.89 589.736L1467.78 586.964ZM1442.76 774.59C1407.24 774.59 1378.61 763.727 1356.51 742.218L1350.93 747.95C1374.73 771.116 1405.46 782.59 1442.76 782.59V774.59ZM1356.52 742.227C1334.62 720.767 1323.52 692.106 1323.52 655.812H1315.52C1315.52 693.872 1327.23 724.727 1350.92 747.941L1356.52 742.227ZM1323.52 655.812V649.386H1315.52V655.812H1323.52ZM1323.52 649.386C1323.52 624.973 1328.24 603.33 1337.57 584.37L1330.39 580.837C1320.45 601.044 1315.52 623.923 1315.52 649.386H1323.52ZM1337.58 584.359C1346.9 565.266 1360.01 550.724 1376.89 540.594L1372.77 533.734C1354.47 544.717 1340.34 560.468 1330.39 580.848L1337.58 584.359ZM1376.9 540.589C1393.96 530.29 1413.43 525.1 1435.42 525.1V517.1C1412.11 517.1 1391.19 522.619 1372.76 533.739L1376.9 540.589ZM1435.42 525.1C1468.47 525.1 1494.01 535.48 1512.55 555.916L1518.47 550.541C1498.15 528.139 1470.29 517.1 1435.42 517.1V525.1ZM1512.56 555.928C1531.26 576.382 1540.88 605.657 1540.88 644.337H1548.88C1548.88 604.378 1538.93 572.914 1518.46 550.529L1512.56 555.928ZM1540.88 644.337V671.417H1548.88V644.337H1540.88ZM1544.88 667.417H1386.76V675.417H1544.88V667.417ZM1382.8 671.941C1385.05 688.965 1391.85 702.875 1403.34 713.383L1408.74 707.479C1398.81 698.403 1392.77 686.304 1390.73 670.893L1382.8 671.941ZM1403.36 713.402C1415.06 723.943 1429.75 729.118 1447.12 729.118V721.118C1431.45 721.118 1418.75 716.502 1408.72 707.46L1403.36 713.402ZM1447.12 729.118C1473.78 729.118 1494.96 719.388 1510.18 699.804L1503.86 694.896C1490.31 712.336 1471.56 721.118 1447.12 721.118V729.118ZM1504.04 700.014L1536.62 736.503L1542.59 731.174L1510 694.685L1504.04 700.014ZM1536.34 731.531C1526.83 744.99 1513.93 755.576 1497.52 763.264L1500.91 770.508C1518.47 762.285 1532.49 750.839 1542.87 736.147L1536.34 731.531ZM1497.55 763.251C1481.14 770.789 1462.9 774.59 1442.76 774.59V782.59C1463.93 782.59 1483.33 778.588 1500.89 770.52L1497.55 763.251ZM1435.19 570.801C1421.03 570.801 1409.22 575.625 1400.13 585.386L1405.99 590.837C1413.42 582.85 1423.03 578.801 1435.19 578.801V570.801ZM1400.11 585.413C1391.28 595.075 1385.86 608.633 1383.49 625.657L1391.42 626.757C1393.64 610.734 1398.62 598.895 1406.01 590.81L1400.11 585.413ZM1387.45 630.207H1479.71V622.207H1387.45V630.207ZM1483.71 626.207V620.929H1475.71V626.207H1483.71ZM1483.71 620.845C1483.39 605.493 1479.21 593.084 1470.66 584.191L1464.89 589.736C1471.64 596.755 1475.42 606.99 1475.71 621.012L1483.71 620.845ZM1470.68 584.219C1462.09 575.11 1450.06 570.801 1435.19 570.801V578.801C1448.47 578.801 1458.16 582.6 1464.87 589.709L1470.68 584.219ZM1643.8 525.689L1647.79 525.402L1647.52 521.689H1643.8V525.689ZM1645.86 554.376L1641.87 554.663L1642.61 564.849L1648.98 556.875L1645.86 554.376ZM1775.98 544.278L1779.06 541.721L1775.98 544.278ZM1795.72 613.585H1799.72V613.565L1799.72 613.545L1795.72 613.585ZM1795.72 774V778H1799.72V774H1795.72ZM1729.4 774H1725.4V778H1729.4V774ZM1720.22 584.669L1717.32 587.428L1717.34 587.445L1717.35 587.462L1720.22 584.669ZM1647.7 598.897L1644.25 596.874L1643.7 597.811V598.897H1647.7ZM1647.7 774V778H1651.7V774H1647.7ZM1581.37 774H1577.37V778H1581.37V774ZM1581.37 525.689V521.689H1577.37V525.689H1581.37ZM1639.81 525.977L1641.87 554.663L1649.85 554.089L1647.79 525.402L1639.81 525.977ZM1648.98 556.875C1665.93 535.693 1688.54 525.1 1717.23 525.1V517.1C1686.25 517.1 1661.29 528.69 1642.74 551.877L1648.98 556.875ZM1717.23 525.1C1742.75 525.1 1761.04 532.562 1772.91 546.836L1779.06 541.721C1765.23 525.089 1744.34 517.1 1717.23 517.1V525.1ZM1772.91 546.836C1784.93 561.291 1791.42 583.329 1791.72 613.625L1799.72 613.545C1799.41 582.338 1792.74 558.171 1779.06 541.721L1772.91 546.836ZM1791.72 613.585V774H1799.72V613.585H1791.72ZM1795.72 770H1729.4V778H1795.72V770ZM1733.4 774V615.191H1725.4V774H1733.4ZM1733.4 615.191C1733.4 600.678 1730.26 589.239 1723.08 581.876L1717.35 587.462C1722.41 592.645 1725.4 601.554 1725.4 615.191H1733.4ZM1723.11 581.91C1715.89 574.324 1704.38 571.03 1689.69 571.03V579.03C1703.47 579.03 1712.31 582.162 1717.32 587.428L1723.11 581.91ZM1689.69 571.03C1669.63 571.03 1654.31 579.72 1644.25 596.874L1651.15 600.921C1659.75 586.252 1672.43 579.03 1689.69 579.03V571.03ZM1643.7 598.897V774H1651.7V598.897H1643.7ZM1647.7 770H1581.37V778H1647.7V770ZM1585.37 774V525.689H1577.37V774H1585.37ZM1581.37 529.689H1643.8V521.689H1581.37V529.689Z" fill="#F64C72"/>
<path d="M164.546 101.859H233.394V333.188C233.394 354.454 228.651 373.272 219.165 389.643C209.832 405.86 196.598 418.406 179.463 427.279C162.327 436.153 142.974 440.59 121.401 440.59C86.0596 440.59 58.5205 431.64 38.7842 413.739C19.0479 395.686 9.17969 370.212 9.17969 337.318H78.4863C78.4863 353.689 81.9287 365.775 88.8135 373.578C95.6982 381.381 106.561 385.282 121.401 385.282C134.559 385.282 145.039 380.769 152.842 371.742C160.645 362.715 164.546 349.864 164.546 333.188V101.859ZM431.904 436C428.844 430.033 426.626 422.613 425.249 413.739C409.185 431.64 388.301 440.59 362.598 440.59C338.271 440.59 318.076 433.552 302.012 419.477C286.1 405.401 278.145 387.654 278.145 366.234C278.145 339.919 287.86 319.724 307.29 305.648C326.873 291.573 355.101 284.459 391.973 284.306H422.495V270.077C422.495 258.603 419.512 249.423 413.545 242.538C407.731 235.653 398.475 232.211 385.776 232.211C374.608 232.211 365.811 234.888 359.385 240.243C353.112 245.598 349.976 252.942 349.976 262.274H283.652C283.652 247.893 288.089 234.582 296.963 222.343C305.837 210.103 318.382 200.541 334.6 193.656C350.817 186.618 369.023 183.1 389.219 183.1C419.818 183.1 444.067 190.826 461.968 206.278C480.021 221.578 489.048 243.15 489.048 270.995V378.627C489.201 402.188 492.49 420.012 498.916 432.099V436H431.904ZM377.056 389.872C386.847 389.872 395.874 387.73 404.136 383.446C412.397 379.009 418.517 373.119 422.495 365.775V323.09H397.71C364.51 323.09 346.839 334.564 344.697 357.514L344.468 361.415C344.468 369.677 347.375 376.485 353.188 381.84C359.002 387.195 366.958 389.872 377.056 389.872ZM643.267 387.118C655.506 387.118 665.451 383.752 673.101 377.021C680.75 370.289 684.728 361.339 685.034 350.17H747.227C747.074 366.999 742.484 382.452 733.457 396.527C724.43 410.45 712.038 421.312 696.279 429.115C680.674 436.765 663.385 440.59 644.414 440.59C608.919 440.59 580.921 429.345 560.42 406.854C539.919 384.211 529.668 353 529.668 313.222V308.861C529.668 270.613 539.842 240.09 560.19 217.294C580.539 194.498 608.46 183.1 643.955 183.1C675.013 183.1 699.875 191.973 718.54 209.721C737.358 227.315 746.921 250.8 747.227 280.175H685.034C684.728 267.323 680.75 256.92 673.101 248.964C665.451 240.855 655.353 236.801 642.808 236.801C627.355 236.801 615.651 242.462 607.695 253.783C599.893 264.952 595.991 283.158 595.991 308.402V315.287C595.991 340.837 599.893 359.197 607.695 370.365C615.498 381.534 627.355 387.118 643.267 387.118ZM875.283 336.4L851.416 360.268V436H785.093V83.5H851.416V278.798L864.268 262.274L927.837 187.689H1007.47L917.739 291.19L1015.27 436H939.082L875.283 336.4Z" fill="white"/>
<path d="M1890.98 32.5088V45.6924H1846.69C1842.62 45.6924 1839.01 44.7842 1835.88 42.9678C1832.77 41.1807 1830.37 38.6465 1828.67 35.3652C1826.97 32.084 1826.12 28.3779 1826.12 24.2471C1826.12 17.4795 1827.83 12.2061 1831.26 8.42676C1834.72 4.64746 1839.6 2.75781 1845.9 2.75781V16.0293C1842.76 16.0293 1840.45 16.6885 1838.95 18.0068C1837.46 19.3252 1836.71 21.4053 1836.71 24.2471C1836.71 26.7666 1837.58 28.7734 1839.3 30.2676C1841.03 31.7617 1843.49 32.5088 1846.69 32.5088H1890.98ZM1831.83 84.6279C1828.03 81.4932 1826.12 77.1572 1826.12 71.6201C1826.12 66.5225 1827.59 62.626 1830.52 59.9307C1833.45 57.2646 1837.74 55.9023 1843.39 55.8438H1874.55V68.5439H1843.83C1838.88 68.5439 1836.4 70.7998 1836.4 75.3115C1836.4 79.6182 1837.9 82.5771 1840.89 84.1885H1874.55V96.9326H1827V84.9795L1831.83 84.6279ZM1874.55 118.202L1869.06 118.598C1873.3 121.996 1875.43 126.552 1875.43 132.265C1875.43 137.304 1873.95 141.054 1870.99 143.515C1868.03 145.976 1863.61 147.235 1857.72 147.294H1827V134.594H1857.41C1860.11 134.594 1862.05 134.008 1863.25 132.836C1864.49 131.664 1865.1 129.716 1865.1 126.991C1865.1 123.417 1863.58 120.736 1860.53 118.949H1827V106.249H1874.55V118.202ZM1827 170.365V157.621H1874.55V170.365H1827ZM1886.85 156.874C1888.76 156.874 1890.33 157.504 1891.56 158.764C1892.79 160.053 1893.4 161.796 1893.4 163.993C1893.4 166.161 1892.79 167.89 1891.56 169.179C1890.33 170.468 1888.76 171.112 1886.85 171.112C1884.92 171.112 1883.34 170.453 1882.11 169.135C1880.88 167.846 1880.26 166.132 1880.26 163.993C1880.26 161.854 1880.88 160.126 1882.11 158.808C1883.34 157.519 1884.92 156.874 1886.85 156.874ZM1851.21 178.891C1855.93 178.891 1860.13 179.799 1863.83 181.615C1867.52 183.432 1870.37 186.039 1872.4 189.438C1874.42 192.865 1875.43 196.835 1875.43 201.347C1875.43 207.763 1873.46 212.992 1869.54 217.035C1865.61 221.107 1860.28 223.378 1853.54 223.847L1850.29 223.935C1843 223.935 1837.14 221.898 1832.71 217.826C1828.32 213.754 1826.12 208.29 1826.12 201.435C1826.12 194.579 1828.32 189.101 1832.71 184.999C1837.11 180.927 1843.08 178.891 1850.64 178.891H1851.21ZM1850.29 191.591C1845.78 191.591 1842.32 192.44 1839.92 194.14C1837.55 195.839 1836.36 198.271 1836.36 201.435C1836.36 204.511 1837.53 206.913 1839.88 208.642C1842.25 210.37 1846.03 211.234 1851.21 211.234C1855.64 211.234 1859.07 210.37 1861.5 208.642C1863.93 206.913 1865.14 204.481 1865.14 201.347C1865.14 198.241 1863.93 195.839 1861.5 194.14C1859.09 192.44 1855.36 191.591 1850.29 191.591ZM1862.64 258.476C1862.87 256.747 1862.99 255.224 1862.99 253.905C1862.99 249.101 1861.37 245.951 1858.11 244.457H1827V231.757H1874.55V243.754L1868.88 244.105C1873.25 246.654 1875.43 250.185 1875.43 254.696C1875.43 256.103 1875.24 257.421 1874.86 258.651L1862.64 258.476ZM1853.15 326.371V301.059H1827V287.875H1890.98V329.535H1880.31V301.059H1863.78V326.371H1853.15ZM1862.64 361.923C1862.87 360.194 1862.99 358.671 1862.99 357.353C1862.99 352.548 1861.37 349.398 1858.11 347.904H1827V335.204H1874.55V347.201L1868.88 347.553C1873.25 350.102 1875.43 353.632 1875.43 358.144C1875.43 359.55 1875.24 360.868 1874.86 362.099L1862.64 361.923ZM1851.21 364.516C1855.93 364.516 1860.13 365.424 1863.83 367.24C1867.52 369.057 1870.37 371.664 1872.4 375.062C1874.42 378.49 1875.43 382.46 1875.43 386.972C1875.43 393.388 1873.46 398.617 1869.54 402.66C1865.61 406.732 1860.28 409.003 1853.54 409.472L1850.29 409.56C1843 409.56 1837.14 407.523 1832.71 403.451C1828.32 399.379 1826.12 393.915 1826.12 387.06C1826.12 380.204 1828.32 374.726 1832.71 370.624C1837.11 366.552 1843.08 364.516 1850.64 364.516H1851.21ZM1850.29 377.216C1845.78 377.216 1842.32 378.065 1839.92 379.765C1837.55 381.464 1836.36 383.896 1836.36 387.06C1836.36 390.136 1837.53 392.538 1839.88 394.267C1842.25 395.995 1846.03 396.859 1851.21 396.859C1855.64 396.859 1859.07 395.995 1861.5 394.267C1863.93 392.538 1865.14 390.106 1865.14 386.972C1865.14 383.866 1863.93 381.464 1861.5 379.765C1859.09 378.065 1855.36 377.216 1850.29 377.216ZM1874.55 429.071L1869.06 429.467C1873.3 432.865 1875.43 437.421 1875.43 443.134C1875.43 448.173 1873.95 451.923 1870.99 454.384C1868.03 456.845 1863.61 458.104 1857.72 458.163H1827V445.463H1857.41C1860.11 445.463 1862.05 444.877 1863.25 443.705C1864.49 442.533 1865.1 440.585 1865.1 437.86C1865.1 434.286 1863.58 431.605 1860.53 429.818H1827V417.118H1874.55V429.071ZM1886.24 483.036H1874.55V491.166H1865.23V483.036H1841.5C1839.74 483.036 1838.48 483.373 1837.72 484.047C1836.96 484.721 1836.58 486.01 1836.58 487.914C1836.58 489.32 1836.68 490.565 1836.89 491.649H1827.26C1826.5 489.159 1826.12 486.596 1826.12 483.959C1826.12 475.053 1830.62 470.512 1839.61 470.336H1865.23V463.393H1874.55V470.336H1886.24V483.036ZM1854.73 559.984V534.672H1837.59V564.379H1827V521.488H1890.98V564.291H1880.31V534.672H1865.06V559.984H1854.73ZM1874.55 582.968L1869.06 583.363C1873.3 586.762 1875.43 591.317 1875.43 597.03C1875.43 602.069 1873.95 605.819 1870.99 608.28C1868.03 610.741 1863.61 612.001 1857.72 612.06H1827V599.359H1857.41C1860.11 599.359 1862.05 598.773 1863.25 597.602C1864.49 596.43 1865.1 594.481 1865.1 591.757C1865.1 588.183 1863.58 585.502 1860.53 583.715H1827V571.015H1874.55V582.968ZM1851.13 619.75C1858.54 619.75 1864.44 621.405 1868.84 624.716C1873.23 628.056 1875.43 632.611 1875.43 638.383C1875.43 643.012 1873.7 646.835 1870.24 649.853H1894.5V662.597H1827V651.127L1832.05 650.512C1828.1 647.348 1826.12 643.275 1826.12 638.295C1826.12 632.699 1828.32 628.202 1832.71 624.804C1837.14 621.435 1843.27 619.75 1851.13 619.75ZM1850.2 632.45C1845.75 632.45 1842.34 633.227 1839.96 634.779C1837.59 636.332 1836.4 638.588 1836.4 641.547C1836.4 645.473 1838.06 648.241 1841.37 649.853H1860.13C1863.45 648.271 1865.1 645.531 1865.1 641.635C1865.1 635.512 1860.13 632.45 1850.2 632.45ZM1845.46 745.521L1890.98 754.135V767.274L1827 753.08V739.809L1869.8 729.394L1827 718.979V705.707L1890.98 691.513V704.652L1845.54 713.31L1890.98 723.856V735.019L1845.46 745.521ZM1826.12 794.081C1826.12 787.108 1828.26 781.425 1832.54 777.03C1836.81 772.665 1842.51 770.482 1849.63 770.482H1850.86C1855.64 770.482 1859.9 771.405 1863.65 773.251C1867.43 775.097 1870.33 777.704 1872.35 781.073C1874.4 784.472 1875.43 788.339 1875.43 792.675C1875.43 799.179 1873.38 804.291 1869.28 808.012C1865.17 811.762 1859.36 813.637 1851.83 813.637H1846.64V783.358C1843.54 783.769 1841.05 784.999 1839.17 787.05C1837.3 789.13 1836.36 791.752 1836.36 794.916C1836.36 799.809 1838.13 803.632 1841.68 806.386L1834.69 812.626C1832 810.722 1829.89 808.144 1828.36 804.892C1826.87 801.64 1826.12 798.036 1826.12 794.081ZM1865.14 792.631C1865.14 790.111 1864.29 788.061 1862.6 786.479C1860.9 784.926 1858.46 783.93 1855.3 783.49V801.156H1856.31C1859.12 801.098 1861.29 800.336 1862.82 798.871C1864.37 797.406 1865.14 795.326 1865.14 792.631ZM1850.33 863.734C1842.72 863.734 1836.77 862.108 1832.49 858.856C1828.25 855.604 1826.12 851.063 1826.12 845.233C1826.12 840.077 1828.1 835.961 1832.05 832.885L1827 832.313V820.888H1894.5V833.588H1870.29C1873.71 836.518 1875.43 840.37 1875.43 845.146C1875.43 850.946 1873.29 855.487 1869.01 858.769C1864.76 862.079 1858.77 863.734 1851.04 863.734H1850.33ZM1851.26 851.034C1856.06 851.034 1859.56 850.272 1861.76 848.749C1863.99 847.226 1865.1 844.955 1865.1 841.938C1865.1 837.895 1863.45 835.111 1860.13 833.588H1841.37C1838.03 835.141 1836.36 837.953 1836.36 842.025C1836.36 846.127 1838.38 848.822 1842.42 850.111C1844.36 850.727 1847.3 851.034 1851.26 851.034ZM1722 6.71289H1785.98V26.4004C1785.98 32.0254 1784.71 37.0498 1782.16 41.4736C1779.64 45.9268 1776.04 49.3984 1771.35 51.8887C1766.69 54.3789 1761.39 55.624 1755.44 55.624H1752.5C1746.55 55.624 1741.26 54.3936 1736.63 51.9326C1732 49.501 1728.42 46.0586 1725.87 41.6055C1723.32 37.1523 1722.03 32.1279 1722 26.5322V6.71289ZM1775.31 19.8965H1732.59V26.2686C1732.59 31.4248 1734.28 35.3652 1737.64 38.0898C1741.01 40.8145 1745.83 42.2061 1752.1 42.2646H1755.49C1761.99 42.2646 1766.91 40.917 1770.25 38.2217C1773.62 35.5264 1775.31 31.5859 1775.31 26.4004V19.8965ZM1721.12 86.2979C1721.12 79.3252 1723.26 73.6416 1727.54 69.2471C1731.81 64.8818 1737.51 62.6992 1744.63 62.6992H1745.86C1750.64 62.6992 1754.9 63.6221 1758.65 65.4678C1762.43 67.3135 1765.33 69.9209 1767.35 73.29C1769.4 76.6885 1770.43 80.5557 1770.43 84.8916C1770.43 91.3955 1768.38 96.5078 1764.28 100.229C1760.17 103.979 1754.36 105.854 1746.83 105.854H1741.64V75.5752C1738.54 75.9854 1736.05 77.2158 1734.17 79.2666C1732.3 81.3467 1731.36 83.9688 1731.36 87.1328C1731.36 92.0254 1733.13 95.8486 1736.68 98.6025L1729.69 104.843C1727 102.938 1724.89 100.36 1723.36 97.1084C1721.87 93.8564 1721.12 90.2529 1721.12 86.2979ZM1760.14 84.8477C1760.14 82.3281 1759.29 80.2773 1757.6 78.6953C1755.9 77.1426 1753.46 76.1465 1750.3 75.707V93.373H1751.31C1754.12 93.3145 1756.29 92.5527 1757.82 91.0879C1759.37 89.623 1760.14 87.543 1760.14 84.8477ZM1737.51 130.287L1769.55 139.12V152.392L1722 136.352V124.223L1769.55 108.183V121.454L1737.51 130.287ZM1721.12 179.286C1721.12 172.313 1723.26 166.63 1727.54 162.235C1731.81 157.87 1737.51 155.688 1744.63 155.688H1745.86C1750.64 155.688 1754.9 156.61 1758.65 158.456C1762.43 160.302 1765.33 162.909 1767.35 166.278C1769.4 169.677 1770.43 173.544 1770.43 177.88C1770.43 184.384 1768.38 189.496 1764.28 193.217C1760.17 196.967 1754.36 198.842 1746.83 198.842H1741.64V168.563C1738.54 168.974 1736.05 170.204 1734.17 172.255C1732.3 174.335 1731.36 176.957 1731.36 180.121C1731.36 185.014 1733.13 188.837 1736.68 191.591L1729.69 197.831C1727 195.927 1724.89 193.349 1723.36 190.097C1721.87 186.845 1721.12 183.241 1721.12 179.286ZM1760.14 177.836C1760.14 175.316 1759.29 173.266 1757.6 171.684C1755.9 170.131 1753.46 169.135 1750.3 168.695V186.361H1751.31C1754.12 186.303 1756.29 185.541 1757.82 184.076C1759.37 182.611 1760.14 180.531 1760.14 177.836ZM1722 219.496V206.752H1789.5V219.496H1722ZM1746.21 228.021C1750.93 228.021 1755.13 228.93 1758.83 230.746C1762.52 232.562 1765.37 235.17 1767.4 238.568C1769.42 241.996 1770.43 245.966 1770.43 250.478C1770.43 256.894 1768.46 262.123 1764.54 266.166C1760.61 270.238 1755.28 272.509 1748.54 272.978L1745.29 273.065C1738 273.065 1732.14 271.029 1727.71 266.957C1723.32 262.885 1721.12 257.421 1721.12 250.565C1721.12 243.71 1723.32 238.231 1727.71 234.13C1732.11 230.058 1738.08 228.021 1745.64 228.021H1746.21ZM1745.29 240.722C1740.78 240.722 1737.32 241.571 1734.92 243.271C1732.55 244.97 1731.36 247.401 1731.36 250.565C1731.36 253.642 1732.53 256.044 1734.88 257.772C1737.25 259.501 1741.03 260.365 1746.21 260.365C1750.64 260.365 1754.07 259.501 1756.5 257.772C1758.93 256.044 1760.14 253.612 1760.14 250.478C1760.14 247.372 1758.93 244.97 1756.5 243.271C1754.09 241.571 1750.36 240.722 1745.29 240.722ZM1745.33 323.69C1738.01 323.69 1732.14 322.021 1727.71 318.681C1723.32 315.37 1721.12 310.888 1721.12 305.233C1721.12 300.429 1722.79 296.547 1726.13 293.588H1703.72V280.888H1769.55V292.665L1764.89 293.104C1768.58 296.181 1770.43 300.194 1770.43 305.146C1770.43 311.005 1768.26 315.561 1763.92 318.812C1759.59 322.064 1753.61 323.69 1745.99 323.69H1745.33ZM1746.26 310.99C1750.68 310.99 1754.09 310.199 1756.5 308.617C1758.9 307.064 1760.1 304.794 1760.1 301.806C1760.1 297.821 1758.58 295.082 1755.53 293.588H1736.06C1732.93 295.141 1731.36 297.909 1731.36 301.894C1731.36 307.958 1736.33 310.99 1746.26 310.99ZM1721.12 353.485C1721.12 346.513 1723.26 340.829 1727.54 336.435C1731.81 332.069 1737.51 329.887 1744.63 329.887H1745.86C1750.64 329.887 1754.9 330.81 1758.65 332.655C1762.43 334.501 1765.33 337.108 1767.35 340.478C1769.4 343.876 1770.43 347.743 1770.43 352.079C1770.43 358.583 1768.38 363.695 1764.28 367.416C1760.17 371.166 1754.36 373.041 1746.83 373.041H1741.64V342.763C1738.54 343.173 1736.05 344.403 1734.17 346.454C1732.3 348.534 1731.36 351.156 1731.36 354.32C1731.36 359.213 1733.13 363.036 1736.68 365.79L1729.69 372.03C1727 370.126 1724.89 367.548 1723.36 364.296C1721.87 361.044 1721.12 357.44 1721.12 353.485ZM1760.14 352.035C1760.14 349.516 1759.29 347.465 1757.6 345.883C1755.9 344.33 1753.46 343.334 1750.3 342.895V360.561H1751.31C1754.12 360.502 1756.29 359.74 1757.82 358.275C1759.37 356.811 1760.14 354.73 1760.14 352.035ZM1757.64 407.011C1757.87 405.282 1757.99 403.759 1757.99 402.44C1757.99 397.636 1756.37 394.486 1753.11 392.992H1722V380.292H1769.55V392.289L1763.88 392.641C1768.25 395.189 1770.43 398.72 1770.43 403.231C1770.43 404.638 1770.24 405.956 1769.86 407.187L1757.64 407.011Z" fill="white"/>
</svg>
