<svg width="1920" height="980" viewBox="0 0 1920 980" fill="none" xmlns="http://www.w3.org/2000/svg">
<path d="M388.357 507.626V511.626H392.357V507.626H388.357ZM286.004 507.626V503.626H282.004V507.626H286.004ZM286.004 786V790H290.004V786H286.004ZM217.156 786H213.156V790H217.156V786ZM217.156 507.626H221.156V503.626H217.156V507.626ZM116.18 507.626H112.18V511.626H116.18V507.626ZM116.18 451.859V447.859H112.18V451.859H116.18ZM388.357 451.859H392.357V447.859H388.357V451.859ZM388.357 503.626H286.004V511.626H388.357V503.626ZM282.004 507.626V786H290.004V507.626H282.004ZM286.004 782H217.156V790H286.004V782ZM221.156 786V507.626H213.156V786H221.156ZM217.156 503.626H116.18V511.626H217.156V503.626ZM120.18 507.626V451.859H112.18V507.626H120.18ZM116.18 455.859H388.357V447.859H116.18V455.859ZM384.357 451.859V507.626H392.357V451.859H384.357ZM488.187 564.77H484.187V575.818L491.259 567.33L488.187 564.77ZM636.438 626.962H640.438V626.937L640.438 626.913L636.438 626.962ZM636.438 786V790H640.438V786H636.438ZM570.115 786H566.115V790H570.115V786ZM560.936 597.357L557.946 600.015L557.961 600.032L557.976 600.048L560.936 597.357ZM488.187 609.521L484.729 607.509L484.187 608.442V609.521H488.187ZM488.187 786V790H492.187V786H488.187ZM421.863 786H417.863V790H421.863V786ZM421.863 433.5V429.5H417.863V433.5H421.863ZM488.187 433.5H492.187V429.5H488.187V433.5ZM491.259 567.33C508.122 547.095 529.119 537.1 554.51 537.1V529.1C526.658 529.1 503.44 540.218 485.114 562.209L491.259 567.33ZM554.51 537.1C580.647 537.1 599.685 544.664 612.369 559.196C625.15 573.838 632.062 596.209 632.439 627.011L640.438 626.913C640.05 595.14 632.925 570.58 618.396 553.935C603.77 537.179 582.226 529.1 554.51 529.1V537.1ZM632.438 626.962V786H640.438V626.962H632.438ZM636.438 782H570.115V790H636.438V782ZM574.115 786V628.798H566.115V786H574.115ZM574.115 628.798C574.115 614.112 570.975 602.454 563.895 594.667L557.976 600.048C563.136 605.724 566.115 615.027 566.115 628.798H574.115ZM563.925 594.7C556.714 586.588 545.165 583.03 530.413 583.03V591.03C544.118 591.03 552.917 594.357 557.946 600.015L563.925 594.7ZM530.413 583.03C509.764 583.03 494.264 591.116 484.729 607.509L491.644 611.532C499.551 597.938 512.201 591.03 530.413 591.03V583.03ZM484.187 609.521V786H492.187V609.521H484.187ZM488.187 782H421.863V790H488.187V782ZM425.863 786V433.5H417.863V786H425.863ZM421.863 437.5H488.187V429.5H421.863V437.5ZM484.187 433.5V564.77H492.187V433.5H484.187ZM711.712 757.084L708.912 759.941L708.922 759.95L711.712 757.084ZM691.976 594.604L695.564 596.37L695.57 596.359L691.976 594.604ZM732.825 549.164L734.883 552.594L734.892 552.589L732.825 549.164ZM873.504 565.229L870.541 567.916L870.547 567.922L870.552 567.928L873.504 565.229ZM902.879 683.417V687.417H906.879V683.417H902.879ZM744.759 683.417V679.417H740.196L740.793 683.941L744.759 683.417ZM764.036 722.431L761.337 725.383L761.347 725.392L761.358 725.402L764.036 722.431ZM865.013 709.35L867.996 706.685L864.799 703.105L861.854 706.896L865.013 709.35ZM897.601 745.839L900.867 748.147L902.704 745.548L900.584 743.174L897.601 745.839ZM857.21 778.886L858.88 782.52L858.893 782.514L858.907 782.508L857.21 778.886ZM761.053 600.111L758.125 597.386L758.112 597.399L758.1 597.413L761.053 600.111ZM745.447 638.207L741.485 637.657L740.853 642.207H745.447V638.207ZM837.703 638.207V642.207H841.703V638.207H837.703ZM837.703 632.929H841.703V632.887L841.702 632.845L837.703 632.929ZM825.77 598.964L822.86 601.709L822.873 601.723L822.886 601.736L825.77 598.964ZM800.755 786.59C765.23 786.59 736.6 775.727 714.502 754.218L708.922 759.95C732.722 783.116 763.455 794.59 800.755 794.59V786.59ZM714.511 754.227C692.61 732.767 681.518 704.106 681.518 667.812H673.518C673.518 705.872 685.221 736.727 708.912 759.941L714.511 754.227ZM681.518 667.812V661.386H673.518V667.812H681.518ZM681.518 661.386C681.518 636.973 686.232 615.33 695.564 596.37L688.387 592.837C678.441 613.044 673.518 635.923 673.518 661.386H681.518ZM695.57 596.359C704.894 577.266 717.999 562.724 734.883 552.594L730.767 545.734C712.462 556.717 698.334 572.468 688.381 592.848L695.57 596.359ZM734.892 552.589C751.959 542.29 771.427 537.1 793.411 537.1V529.1C770.109 529.1 749.187 534.619 730.759 545.739L734.892 552.589ZM793.411 537.1C826.463 537.1 852.003 547.48 870.541 567.916L876.467 562.541C856.144 540.139 828.289 529.1 793.411 529.1V537.1ZM870.552 567.928C889.253 588.382 898.879 617.657 898.879 656.337H906.879C906.879 616.378 896.922 584.914 876.456 562.529L870.552 567.928ZM898.879 656.337V683.417H906.879V656.337H898.879ZM902.879 679.417H744.759V687.417H902.879V679.417ZM740.793 683.941C743.042 700.965 749.844 714.875 761.337 725.383L766.735 719.479C756.809 710.403 750.76 698.304 748.724 682.893L740.793 683.941ZM761.358 725.402C773.052 735.943 787.74 741.118 805.115 741.118V733.118C789.443 733.118 776.746 728.502 766.714 719.46L761.358 725.402ZM805.115 741.118C831.773 741.118 852.957 731.388 868.172 711.804L861.854 706.896C848.305 724.336 829.558 733.118 805.115 733.118V741.118ZM862.029 712.014L894.617 748.503L900.584 743.174L867.996 706.685L862.029 712.014ZM894.334 743.531C884.824 756.99 871.924 767.576 855.513 775.264L858.907 782.508C876.461 774.285 890.487 762.839 900.867 748.147L894.334 743.531ZM855.54 775.251C839.134 782.789 820.894 786.59 800.755 786.59V794.59C821.925 794.59 841.321 790.588 858.88 782.52L855.54 775.251ZM793.182 582.801C779.019 582.801 767.213 587.625 758.125 597.386L763.98 602.837C771.416 594.85 781.029 590.801 793.182 590.801V582.801ZM758.1 597.413C749.271 607.075 743.85 620.633 741.485 637.657L749.409 638.757C751.635 622.734 756.617 610.895 764.006 602.81L758.1 597.413ZM745.447 642.207H837.703V634.207H745.447V642.207ZM841.703 638.207V632.929H833.703V638.207H841.703ZM841.702 632.845C841.382 617.493 837.203 605.084 828.653 596.191L822.886 601.736C829.635 608.755 833.412 618.99 833.704 633.012L841.702 632.845ZM828.679 596.219C820.086 587.11 808.051 582.801 793.182 582.801V590.801C806.463 590.801 816.154 594.6 822.86 601.709L828.679 596.219ZM1010.74 786V790H1014.74V786H1010.74ZM944.188 786H940.188V790H944.188V786ZM944.188 537.689V533.689H940.188V537.689H944.188ZM1010.74 537.689H1014.74V533.689H1010.74V537.689ZM950.154 448.876L947.392 445.983L947.376 445.998L947.359 446.014L950.154 448.876ZM1004.31 498.217L1001.59 495.293L1001.57 495.308L1001.55 495.323L1004.31 498.217ZM950.384 498.217L947.622 501.11L947.638 501.126L947.655 501.141L950.384 498.217ZM1010.74 782H944.188V790H1010.74V782ZM948.188 786V537.689H940.188V786H948.188ZM944.188 541.689H1010.74V533.689H944.188V541.689ZM1006.74 537.689V786H1014.74V537.689H1006.74ZM944.286 473.432C944.286 464.467 947.208 457.345 952.949 451.737L947.359 446.014C939.943 453.258 936.286 462.507 936.286 473.432H944.286ZM952.916 451.769C958.739 446.211 966.765 443.237 977.464 443.237V435.237C965.213 435.237 955.033 438.689 947.392 445.983L952.916 451.769ZM977.464 443.237C987.992 443.237 995.949 446.201 1001.78 451.769L1007.31 445.983C999.675 438.699 989.578 435.237 977.464 435.237V443.237ZM1001.78 451.769C1007.66 457.385 1010.64 464.496 1010.64 473.432H1018.64C1018.64 462.478 1014.89 453.219 1007.31 445.983L1001.78 451.769ZM1010.64 473.432C1010.64 482.51 1007.6 489.682 1001.59 495.293L1007.04 501.141C1014.8 493.9 1018.64 484.548 1018.64 473.432H1010.64ZM1001.55 495.323C995.709 500.901 987.823 503.855 977.464 503.855V511.855C989.442 511.855 999.456 508.384 1007.08 501.11L1001.55 495.323ZM977.464 503.855C967.108 503.855 959.123 500.902 953.113 495.293L947.655 501.141C955.414 508.384 965.482 511.855 977.464 511.855V503.855ZM953.146 495.323C947.276 489.721 944.286 482.539 944.286 473.432H936.286C936.286 484.519 940.028 493.861 947.622 501.11L953.146 495.323ZM1187.91 698.334L1185.86 701.77L1185.9 701.793L1185.94 701.815L1187.91 698.334ZM1149.35 685.712L1148.53 689.627L1148.54 689.629L1149.35 685.712ZM1088.08 555.36L1090.59 558.474L1090.59 558.471L1088.08 555.36ZM1235.41 555.36L1232.94 558.501L1232.94 558.506L1232.95 558.511L1235.41 555.36ZM1263.87 613.192V617.192H1267.87V613.192H1263.87ZM1197.55 613.192H1193.55V617.192H1197.55V613.192ZM1188.37 589.784L1185.5 592.577L1185.52 592.595L1185.54 592.613L1188.37 589.784ZM1134.9 625.126L1132.68 628.454L1132.72 628.482L1132.76 628.51L1134.9 625.126ZM1170.24 636.83L1169.44 640.75L1169.46 640.753L1169.47 640.757L1170.24 636.83ZM1212 647.846L1213.38 644.09L1213.38 644.088L1212 647.846ZM1235.41 769.706L1237.74 772.958L1237.75 772.951L1237.76 772.945L1235.41 769.706ZM1104.6 779.574L1102.91 783.199L1102.93 783.209L1102.95 783.218L1104.6 779.574ZM1066.74 749.052L1063.47 751.358L1063.47 751.368L1063.48 751.377L1066.74 749.052ZM1052.97 707.055V703.055H1048.97V707.055H1052.97ZM1115.85 707.055L1119.84 706.847L1119.65 703.055H1115.85V707.055ZM1190.2 736.43L1192.58 739.648L1192.58 739.643L1192.59 739.639L1190.2 736.43ZM1204.07 717.382C1204.07 707.591 1199.02 700.026 1189.88 694.853L1185.94 701.815C1193.02 705.822 1196.07 710.955 1196.07 717.382H1204.07ZM1189.96 694.898C1181.41 689.801 1168.01 685.488 1150.16 681.795L1148.54 689.629C1166.19 693.28 1178.5 697.382 1185.86 701.77L1189.96 694.898ZM1150.18 681.797C1120.97 675.669 1099.56 666.489 1085.51 654.551C1071.61 642.743 1064.77 628.126 1064.77 610.438H1056.77C1056.77 630.541 1064.69 647.364 1080.33 660.647C1095.8 673.8 1118.68 683.363 1148.53 689.627L1150.18 681.797ZM1064.77 610.438C1064.77 589.7 1073.26 572.456 1090.59 558.474L1085.57 552.247C1066.49 567.64 1056.77 587.114 1056.77 610.438H1064.77ZM1090.59 558.471C1108.08 544.338 1131.06 537.1 1159.91 537.1V529.1C1129.7 529.1 1104.8 536.701 1085.56 552.25L1090.59 558.471ZM1159.91 537.1C1190.81 537.1 1215.02 544.371 1232.94 558.501L1237.89 552.22C1218.17 536.669 1192.04 529.1 1159.91 529.1V537.1ZM1232.95 558.511C1250.97 572.607 1259.87 590.731 1259.87 613.192H1267.87C1267.87 588.225 1257.8 567.794 1237.88 552.21L1232.95 558.511ZM1263.87 609.192H1197.55V617.192H1263.87V609.192ZM1201.55 613.192C1201.55 602.758 1198.14 593.901 1191.2 586.956L1185.54 592.613C1190.83 597.907 1193.55 604.656 1193.55 613.192H1201.55ZM1191.23 586.991C1184.06 579.64 1173.24 576.375 1159.68 576.375V584.375C1172.13 584.375 1180.44 587.382 1185.5 592.577L1191.23 586.991ZM1159.68 576.375C1147.96 576.375 1138.28 579.022 1131.2 584.863L1136.29 591.034C1141.45 586.777 1149.07 584.375 1159.68 584.375V576.375ZM1131.2 584.863C1124.18 590.657 1120.57 598.206 1120.57 607.226H1128.57C1128.57 600.64 1131.08 595.337 1136.29 591.034L1131.2 584.863ZM1120.57 607.226C1120.57 616.094 1124.84 623.233 1132.68 628.454L1137.11 621.798C1131.18 617.84 1128.57 613.045 1128.57 607.226H1120.57ZM1132.76 628.51C1140.44 633.353 1152.83 637.366 1169.44 640.75L1171.04 632.911C1154.6 629.563 1143.42 625.773 1137.03 621.742L1132.76 628.51ZM1169.47 640.757C1185.86 643.944 1199.57 647.567 1210.63 651.603L1213.38 644.088C1201.8 639.863 1187.66 636.142 1171 632.904L1169.47 640.757ZM1210.63 651.601C1227.67 657.851 1240.1 666.263 1248.28 676.654C1256.42 686.996 1260.56 699.578 1260.56 714.628H1268.56C1268.56 698.008 1263.94 683.625 1254.56 671.706C1245.22 659.836 1231.38 650.692 1213.38 644.09L1210.63 651.601ZM1260.56 714.628C1260.56 735.902 1251.53 753.091 1233.07 766.467L1237.76 772.945C1258.16 758.17 1268.56 738.641 1268.56 714.628H1260.56ZM1233.08 766.455C1214.5 779.767 1190.3 786.59 1160.14 786.59V794.59C1191.49 794.59 1217.46 787.49 1237.74 772.958L1233.08 766.455ZM1160.14 786.59C1139.81 786.59 1121.87 783.003 1106.25 775.93L1102.95 783.218C1119.77 790.833 1138.86 794.59 1160.14 794.59V786.59ZM1106.29 775.949C1090.78 768.708 1078.72 758.952 1069.99 746.727L1063.48 751.377C1073.11 764.855 1086.3 775.447 1102.91 783.199L1106.29 775.949ZM1070 746.745C1061.27 734.371 1056.97 721.17 1056.97 707.055H1048.97C1048.97 722.927 1053.84 737.723 1063.47 751.358L1070 746.745ZM1052.97 711.055H1115.85V703.055H1052.97V711.055ZM1111.85 707.262C1112.52 720.012 1117.31 730.201 1126.48 737.299L1131.38 730.971C1124.33 725.523 1120.4 717.659 1119.84 706.847L1111.85 707.262ZM1126.48 737.299C1135.49 744.268 1147.3 747.544 1161.52 747.544V739.544C1148.5 739.544 1138.58 736.547 1131.38 730.971L1126.48 737.299ZM1161.52 747.544C1174.6 747.544 1185.17 745.119 1192.58 739.648L1187.83 733.211C1182.39 737.226 1173.83 739.544 1161.52 739.544V747.544ZM1192.59 739.639C1200.12 734.033 1204.07 726.522 1204.07 717.382H1196.07C1196.07 723.847 1193.44 729.035 1187.82 733.221L1192.59 739.639ZM1332.72 757.084L1329.92 759.941L1329.93 759.95L1332.72 757.084ZM1312.98 594.604L1316.57 596.37L1316.58 596.359L1312.98 594.604ZM1353.83 549.164L1355.89 552.594L1355.9 552.589L1353.83 549.164ZM1494.51 565.229L1491.55 567.916L1491.55 567.922L1491.56 567.928L1494.51 565.229ZM1523.88 683.417V687.417H1527.88V683.417H1523.88ZM1365.76 683.417V679.417H1361.2L1361.8 683.941L1365.76 683.417ZM1385.04 722.431L1382.34 725.383L1382.35 725.392L1382.36 725.402L1385.04 722.431ZM1486.02 709.35L1489 706.685L1485.8 703.105L1482.86 706.896L1486.02 709.35ZM1518.61 745.839L1521.87 748.147L1523.71 745.548L1521.59 743.174L1518.61 745.839ZM1478.22 778.886L1479.89 782.52L1479.9 782.514L1479.91 782.508L1478.22 778.886ZM1382.06 600.111L1379.13 597.386L1379.12 597.399L1379.11 597.413L1382.06 600.111ZM1366.45 638.207L1362.49 637.657L1361.86 642.207H1366.45V638.207ZM1458.71 638.207V642.207H1462.71V638.207H1458.71ZM1458.71 632.929H1462.71V632.887L1462.71 632.845L1458.71 632.929ZM1446.78 598.964L1443.87 601.709L1443.88 601.723L1443.89 601.736L1446.78 598.964ZM1421.76 786.59C1386.24 786.59 1357.61 775.727 1335.51 754.218L1329.93 759.95C1353.73 783.116 1384.46 794.59 1421.76 794.59V786.59ZM1335.52 754.227C1313.62 732.767 1302.52 704.106 1302.52 667.812H1294.52C1294.52 705.872 1306.23 736.727 1329.92 759.941L1335.52 754.227ZM1302.52 667.812V661.386H1294.52V667.812H1302.52ZM1302.52 661.386C1302.52 636.973 1307.24 615.33 1316.57 596.37L1309.39 592.837C1299.45 613.044 1294.52 635.923 1294.52 661.386H1302.52ZM1316.58 596.359C1325.9 577.266 1339.01 562.724 1355.89 552.594L1351.77 545.734C1333.47 556.717 1319.34 572.468 1309.39 592.848L1316.58 596.359ZM1355.9 552.589C1372.96 542.29 1392.43 537.1 1414.42 537.1V529.1C1391.11 529.1 1370.19 534.619 1351.76 545.739L1355.9 552.589ZM1414.42 537.1C1447.47 537.1 1473.01 547.48 1491.55 567.916L1497.47 562.541C1477.15 540.139 1449.29 529.1 1414.42 529.1V537.1ZM1491.56 567.928C1510.26 588.382 1519.88 617.657 1519.88 656.337H1527.88C1527.88 616.378 1517.93 584.914 1497.46 562.529L1491.56 567.928ZM1519.88 656.337V683.417H1527.88V656.337H1519.88ZM1523.88 679.417H1365.76V687.417H1523.88V679.417ZM1361.8 683.941C1364.05 700.965 1370.85 714.875 1382.34 725.383L1387.74 719.479C1377.81 710.403 1371.77 698.304 1369.73 682.893L1361.8 683.941ZM1382.36 725.402C1394.06 735.943 1408.75 741.118 1426.12 741.118V733.118C1410.45 733.118 1397.75 728.502 1387.72 719.46L1382.36 725.402ZM1426.12 741.118C1452.78 741.118 1473.96 731.388 1489.18 711.804L1482.86 706.896C1469.31 724.336 1450.56 733.118 1426.12 733.118V741.118ZM1483.04 712.014L1515.62 748.503L1521.59 743.174L1489 706.685L1483.04 712.014ZM1515.34 743.531C1505.83 756.99 1492.93 767.576 1476.52 775.264L1479.91 782.508C1497.47 774.285 1511.49 762.839 1521.87 748.147L1515.34 743.531ZM1476.55 775.251C1460.14 782.789 1441.9 786.59 1421.76 786.59V794.59C1442.93 794.59 1462.33 790.588 1479.89 782.52L1476.55 775.251ZM1414.19 582.801C1400.03 582.801 1388.22 587.625 1379.13 597.386L1384.99 602.837C1392.42 594.85 1402.03 590.801 1414.19 590.801V582.801ZM1379.11 597.413C1370.28 607.075 1364.86 620.633 1362.49 637.657L1370.42 638.757C1372.64 622.734 1377.62 610.895 1385.01 602.81L1379.11 597.413ZM1366.45 642.207H1458.71V634.207H1366.45V642.207ZM1462.71 638.207V632.929H1454.71V638.207H1462.71ZM1462.71 632.845C1462.39 617.493 1458.21 605.084 1449.66 596.191L1443.89 601.736C1450.64 608.755 1454.42 618.99 1454.71 633.012L1462.71 632.845ZM1449.68 596.219C1441.09 587.11 1429.06 582.801 1414.19 582.801V590.801C1427.47 590.801 1437.16 594.6 1443.87 601.709L1449.68 596.219ZM1622.8 537.689L1626.79 537.402L1626.52 533.689H1622.8V537.689ZM1624.86 566.376L1620.87 566.663L1621.61 576.849L1627.98 568.875L1624.86 566.376ZM1754.98 556.278L1758.06 553.721L1754.98 556.278ZM1774.72 625.585H1778.72V625.565L1778.72 625.545L1774.72 625.585ZM1774.72 786V790H1778.72V786H1774.72ZM1708.4 786H1704.4V790H1708.4V786ZM1699.22 596.669L1696.32 599.428L1696.34 599.445L1696.35 599.462L1699.22 596.669ZM1626.7 610.897L1623.25 608.874L1622.7 609.811V610.897H1626.7ZM1626.7 786V790H1630.7V786H1626.7ZM1560.37 786H1556.37V790H1560.37V786ZM1560.37 537.689V533.689H1556.37V537.689H1560.37ZM1618.81 537.977L1620.87 566.663L1628.85 566.089L1626.79 537.402L1618.81 537.977ZM1627.98 568.875C1644.93 547.693 1667.54 537.1 1696.23 537.1V529.1C1665.25 529.1 1640.29 540.69 1621.74 563.877L1627.98 568.875ZM1696.23 537.1C1721.75 537.1 1740.04 544.562 1751.91 558.836L1758.06 553.721C1744.23 537.089 1723.34 529.1 1696.23 529.1V537.1ZM1751.91 558.836C1763.93 573.291 1770.42 595.329 1770.72 625.625L1778.72 625.545C1778.41 594.338 1771.74 570.171 1758.06 553.721L1751.91 558.836ZM1770.72 625.585V786H1778.72V625.585H1770.72ZM1774.72 782H1708.4V790H1774.72V782ZM1712.4 786V627.191H1704.4V786H1712.4ZM1712.4 627.191C1712.4 612.678 1709.26 601.239 1702.08 593.876L1696.35 599.462C1701.41 604.645 1704.4 613.554 1704.4 627.191H1712.4ZM1702.11 593.91C1694.89 586.324 1683.38 583.03 1668.69 583.03V591.03C1682.47 591.03 1691.31 594.162 1696.32 599.428L1702.11 593.91ZM1668.69 583.03C1648.63 583.03 1633.31 591.72 1623.25 608.874L1630.15 612.921C1638.75 598.252 1651.43 591.03 1668.69 591.03V583.03ZM1622.7 610.897V786H1630.7V610.897H1622.7ZM1626.7 782H1560.37V790H1626.7V782ZM1564.37 786V537.689H1556.37V786H1564.37ZM1560.37 541.689H1622.8V533.689H1560.37V541.689Z" fill="#F64C72"/>
<path d="M164.546 101.859H233.394V333.188C233.394 354.454 228.651 373.272 219.165 389.643C209.832 405.86 196.598 418.406 179.463 427.279C162.327 436.153 142.974 440.59 121.401 440.59C86.0596 440.59 58.5205 431.64 38.7842 413.739C19.0479 395.686 9.17969 370.212 9.17969 337.318H78.4863C78.4863 353.689 81.9287 365.775 88.8135 373.578C95.6982 381.381 106.561 385.282 121.401 385.282C134.559 385.282 145.039 380.769 152.842 371.742C160.645 362.715 164.546 349.864 164.546 333.188V101.859ZM431.904 436C428.844 430.033 426.626 422.613 425.249 413.739C409.185 431.64 388.301 440.59 362.598 440.59C338.271 440.59 318.076 433.552 302.012 419.477C286.1 405.401 278.145 387.654 278.145 366.234C278.145 339.919 287.86 319.724 307.29 305.648C326.873 291.573 355.101 284.459 391.973 284.306H422.495V270.077C422.495 258.603 419.512 249.423 413.545 242.538C407.731 235.653 398.475 232.211 385.776 232.211C374.608 232.211 365.811 234.888 359.385 240.243C353.112 245.598 349.976 252.942 349.976 262.274H283.652C283.652 247.893 288.089 234.582 296.963 222.343C305.837 210.103 318.382 200.541 334.6 193.656C350.817 186.618 369.023 183.1 389.219 183.1C419.818 183.1 444.067 190.826 461.968 206.278C480.021 221.578 489.048 243.15 489.048 270.995V378.627C489.201 402.188 492.49 420.012 498.916 432.099V436H431.904ZM377.056 389.872C386.847 389.872 395.874 387.73 404.136 383.446C412.397 379.009 418.517 373.119 422.495 365.775V323.09H397.71C364.51 323.09 346.839 334.564 344.697 357.514L344.468 361.415C344.468 369.677 347.375 376.485 353.188 381.84C359.002 387.195 366.958 389.872 377.056 389.872ZM643.267 387.118C655.506 387.118 665.451 383.752 673.101 377.021C680.75 370.289 684.728 361.339 685.034 350.17H747.227C747.074 366.999 742.484 382.452 733.457 396.527C724.43 410.45 712.038 421.312 696.279 429.115C680.674 436.765 663.385 440.59 644.414 440.59C608.919 440.59 580.921 429.345 560.42 406.854C539.919 384.211 529.668 353 529.668 313.222V308.861C529.668 270.613 539.842 240.09 560.19 217.294C580.539 194.498 608.46 183.1 643.955 183.1C675.013 183.1 699.875 191.973 718.54 209.721C737.358 227.315 746.921 250.8 747.227 280.175H685.034C684.728 267.323 680.75 256.92 673.101 248.964C665.451 240.855 655.353 236.801 642.808 236.801C627.355 236.801 615.651 242.462 607.695 253.783C599.893 264.952 595.991 283.158 595.991 308.402V315.287C595.991 340.837 599.893 359.197 607.695 370.365C615.498 381.534 627.355 387.118 643.267 387.118ZM875.283 336.4L851.416 360.268V436H785.093V83.5H851.416V278.798L864.268 262.274L927.837 187.689H1007.47L917.739 291.19L1015.27 436H939.082L875.283 336.4Z" fill="white"/>
<path d="M1879.98 74.8965H1816V61.7129H1879.98V74.8965ZM1852.65 100.385H1842.37V71.293H1852.65V100.385ZM1879.98 103.461H1869.66V71.293H1879.98V103.461ZM1827.38 137.475H1863.55V150.131H1816V138.222L1827.38 137.475ZM1837.14 138.881L1837.23 142.616C1834.06 142.616 1831.12 142.25 1828.39 141.518C1825.7 140.785 1823.35 139.687 1821.36 138.222C1819.4 136.757 1817.86 134.911 1816.75 132.685C1815.66 130.458 1815.12 127.836 1815.12 124.818C1815.12 122.504 1815.44 120.365 1816.09 118.402C1816.76 116.469 1817.8 114.799 1819.21 113.393C1820.64 112.016 1822.47 110.932 1824.7 110.141C1826.96 109.379 1829.67 108.998 1832.83 108.998H1863.55V121.654H1832.74C1831.34 121.654 1830.15 121.815 1829.18 122.138C1828.22 122.489 1827.43 122.973 1826.81 123.588C1826.2 124.203 1825.76 124.921 1825.49 125.741C1825.23 126.591 1825.1 127.528 1825.1 128.554C1825.1 131.161 1825.62 133.212 1826.68 134.706C1827.73 136.229 1829.17 137.299 1830.99 137.914C1832.83 138.559 1834.88 138.881 1837.14 138.881ZM1883.5 173.158H1816V160.458H1883.5V173.158ZM1883.5 196.977H1816V184.276H1883.5V196.977ZM1832.74 263.949C1833.89 263.949 1834.91 263.773 1835.82 263.422C1836.76 263.1 1837.61 262.484 1838.37 261.576C1839.16 260.668 1839.94 259.394 1840.7 257.753C1841.46 256.112 1842.25 253.988 1843.07 251.381C1844.01 248.48 1845.06 245.727 1846.23 243.119C1847.41 240.541 1848.77 238.256 1850.32 236.264C1851.9 234.301 1853.73 232.748 1855.81 231.605C1857.89 230.492 1860.31 229.936 1863.07 229.936C1865.73 229.936 1868.15 230.521 1870.32 231.693C1872.51 232.865 1874.39 234.506 1875.94 236.615C1877.52 238.725 1878.74 241.215 1879.59 244.086C1880.44 246.986 1880.86 250.165 1880.86 253.622C1880.86 258.339 1880.01 262.455 1878.31 265.971C1876.62 269.486 1874.29 272.211 1871.33 274.145C1868.37 276.107 1864.98 277.089 1861.18 277.089V263.993C1863.05 263.993 1864.69 263.598 1866.1 262.807C1867.53 262.045 1868.66 260.873 1869.48 259.291C1870.3 257.738 1870.71 255.775 1870.71 253.402C1870.71 251.117 1870.36 249.213 1869.66 247.689C1868.98 246.166 1868.06 245.023 1866.89 244.262C1865.75 243.5 1864.46 243.119 1863.02 243.119C1861.94 243.119 1860.96 243.383 1860.08 243.91C1859.2 244.467 1858.38 245.287 1857.62 246.371C1856.85 247.455 1856.14 248.788 1855.46 250.37C1854.79 251.952 1854.13 253.783 1853.49 255.863C1852.43 259.35 1851.24 262.411 1849.93 265.048C1848.61 267.714 1847.13 269.94 1845.49 271.728C1843.85 273.515 1841.99 274.862 1839.91 275.771C1837.83 276.679 1835.47 277.133 1832.83 277.133C1830.05 277.133 1827.56 276.591 1825.36 275.507C1823.16 274.423 1821.3 272.855 1819.78 270.805C1818.26 268.754 1817.1 266.308 1816.31 263.466C1815.52 260.624 1815.12 257.445 1815.12 253.93C1815.12 250.766 1815.53 247.646 1816.35 244.569C1817.2 241.493 1818.48 238.695 1820.17 236.176C1821.87 233.686 1824.04 231.693 1826.68 230.199C1829.32 228.705 1832.44 227.958 1836.04 227.958V241.186C1834.05 241.186 1832.36 241.493 1830.99 242.108C1829.61 242.724 1828.5 243.588 1827.65 244.701C1826.8 245.844 1826.18 247.191 1825.8 248.744C1825.42 250.326 1825.23 252.055 1825.23 253.93C1825.23 256.215 1825.55 258.09 1826.2 259.555C1826.84 261.049 1827.73 262.147 1828.88 262.851C1830.02 263.583 1831.31 263.949 1832.74 263.949ZM1863.55 308.598H1854.58V280.912H1863.55V308.598ZM1875.28 287.768V300.424H1830.33C1828.95 300.424 1827.89 300.6 1827.16 300.951C1826.43 301.332 1825.92 301.889 1825.62 302.621C1825.36 303.354 1825.23 304.276 1825.23 305.39C1825.23 306.181 1825.26 306.884 1825.32 307.499C1825.4 308.144 1825.49 308.686 1825.58 309.125L1816.26 309.169C1815.91 308.085 1815.63 306.913 1815.43 305.653C1815.22 304.394 1815.12 303.002 1815.12 301.479C1815.12 298.695 1815.58 296.264 1816.48 294.184C1817.42 292.133 1818.92 290.551 1820.97 289.438C1823.02 288.324 1825.71 287.768 1829.05 287.768H1875.28ZM1826.72 341.469H1847.9C1849.43 341.469 1850.73 341.22 1851.82 340.722C1852.93 340.224 1853.79 339.447 1854.41 338.393C1855.02 337.367 1855.33 336.034 1855.33 334.394C1855.33 332.987 1855.08 331.771 1854.58 330.746C1854.12 329.721 1853.43 328.93 1852.52 328.373C1851.64 327.816 1850.6 327.538 1849.4 327.538V314.882C1851.42 314.882 1853.34 315.351 1855.16 316.288C1856.97 317.226 1858.57 318.588 1859.95 320.375C1861.35 322.162 1862.45 324.286 1863.24 326.747C1864.03 329.237 1864.43 332.021 1864.43 335.097C1864.43 338.788 1863.81 342.069 1862.58 344.94C1861.35 347.812 1859.51 350.067 1857.04 351.708C1854.58 353.378 1851.51 354.213 1847.82 354.213H1827.47C1824.86 354.213 1822.72 354.374 1821.05 354.696C1819.41 355.019 1817.98 355.487 1816.75 356.103H1816V343.314C1817.29 342.699 1818.9 342.23 1820.83 341.908C1822.8 341.615 1824.76 341.469 1826.72 341.469ZM1844.96 343.139L1837.8 343.227V336.151C1837.8 334.481 1837.61 333.031 1837.23 331.801C1836.84 330.57 1836.3 329.56 1835.6 328.769C1834.93 327.978 1834.13 327.392 1833.23 327.011C1832.32 326.659 1831.32 326.483 1830.24 326.483C1829.15 326.483 1828.17 326.732 1827.29 327.23C1826.44 327.729 1825.77 328.446 1825.27 329.384C1824.8 330.321 1824.57 331.42 1824.57 332.68C1824.57 334.584 1824.95 336.239 1825.71 337.646C1826.47 339.052 1827.41 340.136 1828.52 340.897C1829.64 341.688 1830.69 342.099 1831.69 342.128L1826.33 345.468C1825.13 344.999 1823.88 344.354 1822.59 343.534C1821.3 342.743 1820.09 341.732 1818.94 340.502C1817.83 339.271 1816.91 337.792 1816.18 336.063C1815.47 334.335 1815.12 332.284 1815.12 329.911C1815.12 326.894 1815.72 324.154 1816.92 321.693C1818.15 319.262 1819.84 317.328 1821.98 315.893C1824.14 314.486 1826.61 313.783 1829.36 313.783C1831.85 313.783 1834.06 314.252 1836 315.189C1837.93 316.127 1839.55 317.504 1840.87 319.32C1842.22 321.166 1843.23 323.466 1843.91 326.22C1844.61 328.974 1844.96 332.167 1844.96 335.8V343.139ZM1825.01 383.612C1825.01 385.165 1825.3 386.542 1825.89 387.743C1826.5 388.944 1827.35 389.882 1828.44 390.556C1829.55 391.259 1830.85 391.625 1832.35 391.654V403.563C1829.01 403.534 1826.03 402.641 1823.43 400.883C1820.85 399.125 1818.81 396.767 1817.32 393.808C1815.85 390.849 1815.12 387.538 1815.12 383.876C1815.12 380.185 1815.74 376.962 1816.97 374.208C1818.2 371.483 1819.9 369.213 1822.06 367.396C1824.26 365.58 1826.81 364.218 1829.71 363.31C1832.64 362.401 1835.78 361.947 1839.12 361.947H1840.39C1843.76 361.947 1846.89 362.401 1849.79 363.31C1852.72 364.218 1855.27 365.58 1857.44 367.396C1859.64 369.213 1861.35 371.483 1862.58 374.208C1863.81 376.933 1864.43 380.126 1864.43 383.788C1864.43 387.685 1863.68 391.098 1862.19 394.027C1860.69 396.986 1858.55 399.301 1855.77 400.971C1853.02 402.67 1849.75 403.534 1845.97 403.563V391.654C1847.55 391.625 1848.99 391.288 1850.28 390.644C1851.57 390.028 1852.59 389.12 1853.35 387.919C1854.14 386.747 1854.54 385.297 1854.54 383.568C1854.54 381.723 1854.14 380.214 1853.35 379.042C1852.59 377.87 1851.54 376.962 1850.19 376.317C1848.87 375.673 1847.36 375.219 1845.66 374.955C1843.99 374.721 1842.24 374.604 1840.39 374.604H1839.12C1837.27 374.604 1835.5 374.721 1833.8 374.955C1832.1 375.189 1830.59 375.629 1829.27 376.273C1827.95 376.947 1826.91 377.87 1826.15 379.042C1825.39 380.214 1825.01 381.737 1825.01 383.612ZM1883.54 423.559H1816V410.902H1883.54V423.559ZM1863.55 453.529L1839.99 432.875L1828.79 421.801L1837.93 417.187L1849.09 425.976L1863.55 438.324V453.529ZM1816 440.39L1837.97 426.327L1845.62 435.072L1816 454.979V440.39ZM1826.15 497.606L1879.98 510.351V517.47L1871.02 519.096L1816 505.517V497.87L1826.15 497.606ZM1879.98 491.059L1826.15 501.605L1816 500.727V492.201L1879.98 478.007V491.059ZM1826.37 530.302L1879.98 540.717V553.769L1816 539.618V531.093L1826.37 530.302ZM1879.98 521.469L1825.93 534.301L1816 533.949V526.303L1871.06 512.636L1879.98 514.394V521.469ZM1815.12 580.619C1815.12 576.928 1815.71 573.617 1816.88 570.688C1818.08 567.758 1819.74 565.268 1821.84 563.217C1823.95 561.195 1826.4 559.643 1829.18 558.559C1832 557.475 1834.98 556.933 1838.15 556.933H1839.91C1843.51 556.933 1846.81 557.445 1849.79 558.471C1852.78 559.496 1855.38 560.961 1857.57 562.865C1859.77 564.799 1861.45 567.143 1862.63 569.896C1863.83 572.65 1864.43 575.756 1864.43 579.213C1864.43 582.582 1863.87 585.57 1862.76 588.178C1861.64 590.785 1860.06 592.968 1858.01 594.726C1855.96 596.513 1853.5 597.86 1850.63 598.769C1847.79 599.677 1844.62 600.131 1841.14 600.131H1835.86V562.338H1844.3V587.694H1845.27C1847.03 587.694 1848.59 587.372 1849.97 586.728C1851.38 586.112 1852.49 585.175 1853.31 583.915C1854.13 582.655 1854.54 581.044 1854.54 579.081C1854.54 577.411 1854.17 575.976 1853.44 574.774C1852.71 573.573 1851.68 572.592 1850.37 571.83C1849.05 571.098 1847.49 570.541 1845.71 570.16C1843.95 569.809 1842.02 569.633 1839.91 569.633H1838.15C1836.24 569.633 1834.49 569.896 1832.88 570.424C1831.26 570.98 1829.87 571.757 1828.7 572.753C1827.53 573.778 1826.62 575.009 1825.98 576.444C1825.33 577.909 1825.01 579.564 1825.01 581.41C1825.01 583.695 1825.45 585.819 1826.33 587.782C1827.24 589.774 1828.6 591.488 1830.41 592.924L1823.73 599.076C1822.3 598.08 1820.92 596.718 1819.6 594.989C1818.29 593.29 1817.2 591.239 1816.35 588.837C1815.53 586.435 1815.12 583.695 1815.12 580.619ZM1883.5 607.338V619.994H1826.9L1816 618.72V607.338H1883.5ZM1840.26 650.097H1839.33C1835.79 650.097 1832.54 649.716 1829.58 648.954C1826.62 648.222 1824.06 647.079 1821.89 645.526C1819.75 643.974 1818.08 642.04 1816.88 639.726C1815.71 637.44 1815.12 634.745 1815.12 631.64C1815.12 628.739 1815.71 626.22 1816.88 624.081C1818.05 621.972 1819.71 620.199 1821.84 618.764C1823.98 617.328 1826.49 616.171 1829.36 615.292C1832.23 614.413 1835.37 613.754 1838.76 613.314H1840.79C1844.18 613.754 1847.32 614.413 1850.19 615.292C1853.06 616.171 1855.57 617.328 1857.7 618.764C1859.84 620.199 1861.5 621.972 1862.67 624.081C1863.84 626.19 1864.43 628.681 1864.43 631.552C1864.43 634.687 1863.83 637.411 1862.63 639.726C1861.45 642.069 1859.78 644.003 1857.62 645.526C1855.48 647.079 1852.93 648.222 1849.97 648.954C1847.04 649.716 1843.8 650.097 1840.26 650.097ZM1839.33 637.44H1840.26C1842.19 637.44 1844.01 637.294 1845.71 637.001C1847.44 636.737 1848.94 636.269 1850.23 635.595C1851.55 634.921 1852.59 633.998 1853.35 632.826C1854.12 631.684 1854.5 630.204 1854.5 628.388C1854.5 626.659 1854.2 625.194 1853.62 623.993C1853.03 622.792 1852.21 621.796 1851.16 621.005C1850.1 620.243 1848.84 619.672 1847.38 619.291C1845.94 618.91 1844.36 618.676 1842.63 618.588H1836.87C1834.56 618.676 1832.51 619.057 1830.72 619.73C1828.96 620.434 1827.57 621.488 1826.55 622.895C1825.55 624.33 1825.05 626.19 1825.05 628.476C1825.05 630.263 1825.4 631.742 1826.11 632.914C1826.81 634.086 1827.81 634.994 1829.1 635.639C1830.38 636.312 1831.89 636.781 1833.62 637.045C1835.38 637.309 1837.28 637.44 1839.33 637.44ZM1711 81.3564V67.4258L1721.28 67.5137V81.3564C1721.28 84.8135 1722.06 87.7285 1723.61 90.1016C1725.19 92.4746 1727.49 94.2617 1730.51 95.4629C1733.53 96.6934 1737.18 97.3086 1741.45 97.3086H1744.57C1747.86 97.3086 1750.74 96.957 1753.23 96.2539C1755.72 95.5801 1757.82 94.5693 1759.52 93.2217C1761.21 91.874 1762.49 90.2188 1763.34 88.2559C1764.22 86.293 1764.66 84.0371 1764.66 81.4883V67.1621H1774.98V81.4883C1774.98 85.7656 1774.25 89.6768 1772.79 93.2217C1771.35 96.7959 1769.29 99.8867 1766.59 102.494C1763.9 105.102 1760.67 107.108 1756.92 108.515C1753.2 109.95 1749.06 110.668 1744.49 110.668H1741.45C1736.91 110.668 1732.77 109.95 1729.02 108.515C1725.27 107.108 1722.04 105.102 1719.35 102.494C1716.68 99.916 1714.62 96.8252 1713.15 93.2217C1711.72 89.6475 1711 85.6924 1711 81.3564ZM1774.98 74.8965H1711V61.7129H1774.98V74.8965ZM1710.12 141.342C1710.12 137.65 1710.71 134.34 1711.88 131.41C1713.08 128.48 1714.74 125.99 1716.84 123.939C1718.95 121.918 1721.4 120.365 1724.18 119.281C1727 118.197 1729.98 117.655 1733.15 117.655H1734.91C1738.51 117.655 1741.81 118.168 1744.79 119.193C1747.78 120.219 1750.38 121.684 1752.57 123.588C1754.77 125.521 1756.45 127.865 1757.63 130.619C1758.83 133.373 1759.43 136.479 1759.43 139.936C1759.43 143.305 1758.87 146.293 1757.76 148.9C1756.64 151.508 1755.06 153.69 1753.01 155.448C1750.96 157.235 1748.5 158.583 1745.63 159.491C1742.79 160.399 1739.62 160.854 1736.14 160.854H1730.86V123.061H1739.3V148.417H1740.27C1742.03 148.417 1743.59 148.095 1744.97 147.45C1746.38 146.835 1747.49 145.897 1748.31 144.638C1749.13 143.378 1749.54 141.767 1749.54 139.804C1749.54 138.134 1749.17 136.698 1748.44 135.497C1747.71 134.296 1746.68 133.314 1745.37 132.553C1744.05 131.82 1742.49 131.264 1740.71 130.883C1738.95 130.531 1737.02 130.355 1734.91 130.355H1733.15C1731.24 130.355 1729.49 130.619 1727.88 131.146C1726.26 131.703 1724.87 132.479 1723.7 133.476C1722.53 134.501 1721.62 135.731 1720.98 137.167C1720.33 138.632 1720.01 140.287 1720.01 142.133C1720.01 144.418 1720.45 146.542 1721.33 148.505C1722.24 150.497 1723.6 152.211 1725.41 153.646L1718.73 159.799C1717.3 158.803 1715.92 157.44 1714.6 155.712C1713.29 154.013 1712.2 151.962 1711.35 149.56C1710.53 147.157 1710.12 144.418 1710.12 141.342ZM1720.23 183.617L1758.55 194.164V207.392L1711 191.352V183.354L1720.23 183.617ZM1758.55 176.366L1720.18 186.957L1711 187.177V179.135L1758.55 163.095V176.366ZM1710.12 234.33C1710.12 230.639 1710.71 227.328 1711.88 224.398C1713.08 221.469 1714.74 218.979 1716.84 216.928C1718.95 214.906 1721.4 213.354 1724.18 212.27C1727 211.186 1729.98 210.644 1733.15 210.644H1734.91C1738.51 210.644 1741.81 211.156 1744.79 212.182C1747.78 213.207 1750.38 214.672 1752.57 216.576C1754.77 218.51 1756.45 220.854 1757.63 223.607C1758.83 226.361 1759.43 229.467 1759.43 232.924C1759.43 236.293 1758.87 239.281 1757.76 241.889C1756.64 244.496 1755.06 246.679 1753.01 248.437C1750.96 250.224 1748.5 251.571 1745.63 252.479C1742.79 253.388 1739.62 253.842 1736.14 253.842H1730.86V216.049H1739.3V241.405H1740.27C1742.03 241.405 1743.59 241.083 1744.97 240.438C1746.38 239.823 1747.49 238.886 1748.31 237.626C1749.13 236.366 1749.54 234.755 1749.54 232.792C1749.54 231.122 1749.17 229.687 1748.44 228.485C1747.71 227.284 1746.68 226.303 1745.37 225.541C1744.05 224.809 1742.49 224.252 1740.71 223.871C1738.95 223.52 1737.02 223.344 1734.91 223.344H1733.15C1731.24 223.344 1729.49 223.607 1727.88 224.135C1726.26 224.691 1724.87 225.468 1723.7 226.464C1722.53 227.489 1721.62 228.72 1720.98 230.155C1720.33 231.62 1720.01 233.275 1720.01 235.121C1720.01 237.406 1720.45 239.53 1721.33 241.493C1722.24 243.485 1723.6 245.199 1725.41 246.635L1718.73 252.787C1717.3 251.791 1715.92 250.429 1714.6 248.7C1713.29 247.001 1712.2 244.95 1711.35 242.548C1710.53 240.146 1710.12 237.406 1710.12 234.33ZM1778.5 274.408H1711V261.708H1778.5V274.408ZM1734.29 282.846H1735.21C1738.7 282.846 1741.91 283.344 1744.84 284.34C1747.8 285.336 1750.36 286.786 1752.53 288.69C1754.7 290.595 1756.38 292.938 1757.58 295.722C1758.81 298.505 1759.43 301.698 1759.43 305.302C1759.43 308.905 1758.81 312.113 1757.58 314.926C1756.38 317.738 1754.7 320.097 1752.53 322.001C1750.36 323.935 1747.8 325.399 1744.84 326.396C1741.91 327.392 1738.7 327.89 1735.21 327.89H1734.29C1730.83 327.89 1727.63 327.392 1724.67 326.396C1721.74 325.399 1719.17 323.935 1716.98 322.001C1714.81 320.097 1713.12 317.753 1711.92 314.97C1710.72 312.187 1710.12 308.993 1710.12 305.39C1710.12 301.786 1710.72 298.578 1711.92 295.766C1713.12 292.982 1714.81 290.624 1716.98 288.69C1719.17 286.786 1721.74 285.336 1724.67 284.34C1727.63 283.344 1730.83 282.846 1734.29 282.846ZM1735.21 295.502H1734.29C1732.3 295.502 1730.44 295.678 1728.71 296.029C1726.98 296.381 1725.46 296.938 1724.14 297.699C1722.85 298.49 1721.84 299.516 1721.11 300.775C1720.38 302.035 1720.01 303.573 1720.01 305.39C1720.01 307.147 1720.38 308.656 1721.11 309.916C1721.84 311.176 1722.85 312.187 1724.14 312.948C1725.46 313.71 1726.98 314.267 1728.71 314.618C1730.44 314.999 1732.3 315.189 1734.29 315.189H1735.21C1737.15 315.189 1738.96 314.999 1740.66 314.618C1742.39 314.267 1743.92 313.695 1745.23 312.904C1746.58 312.143 1747.64 311.132 1748.4 309.872C1749.16 308.612 1749.54 307.089 1749.54 305.302C1749.54 303.515 1749.16 301.991 1748.4 300.731C1747.64 299.501 1746.58 298.49 1745.23 297.699C1743.92 296.938 1742.39 296.381 1740.66 296.029C1738.96 295.678 1737.15 295.502 1735.21 295.502ZM1749.41 348.324H1692.72V335.668H1758.55V347.401L1749.41 348.324ZM1735.3 378.427H1734.38C1730.92 378.427 1727.71 378.017 1724.75 377.196C1721.8 376.405 1719.22 375.233 1717.02 373.681C1714.85 372.128 1713.15 370.194 1711.92 367.88C1710.72 365.595 1710.12 362.958 1710.12 359.97C1710.12 357.069 1710.71 354.55 1711.88 352.411C1713.05 350.272 1714.69 348.471 1716.8 347.006C1718.94 345.57 1721.42 344.413 1724.23 343.534C1727.04 342.655 1730.06 341.981 1733.28 341.513H1735.7C1739.15 341.981 1742.32 342.655 1745.19 343.534C1748.09 344.413 1750.59 345.57 1752.7 347.006C1754.84 348.471 1756.5 350.258 1757.67 352.367C1758.84 354.506 1759.43 357.011 1759.43 359.882C1759.43 362.899 1758.86 365.551 1757.71 367.836C1756.57 370.15 1754.93 372.084 1752.79 373.637C1750.65 375.219 1748.1 376.405 1745.15 377.196C1742.19 378.017 1738.91 378.427 1735.3 378.427ZM1734.38 365.727H1735.3C1737.32 365.727 1739.18 365.551 1740.88 365.199C1742.61 364.877 1744.12 364.35 1745.41 363.617C1746.7 362.914 1747.69 361.977 1748.4 360.805C1749.13 359.662 1749.5 358.271 1749.5 356.63C1749.5 354.901 1749.22 353.422 1748.66 352.191C1748.1 350.99 1747.3 350.009 1746.24 349.247C1745.19 348.485 1743.93 347.914 1742.46 347.533C1741 347.152 1739.34 346.918 1737.5 346.83H1731.39C1729.22 346.977 1727.27 347.387 1725.55 348.061C1723.85 348.734 1722.5 349.774 1721.5 351.181C1720.51 352.587 1720.01 354.433 1720.01 356.718C1720.01 358.388 1720.38 359.794 1721.11 360.937C1721.87 362.079 1722.91 363.002 1724.23 363.705C1725.55 364.438 1727.07 364.95 1728.8 365.243C1730.53 365.565 1732.39 365.727 1734.38 365.727ZM1710.12 408.178C1710.12 404.486 1710.71 401.176 1711.88 398.246C1713.08 395.316 1714.74 392.826 1716.84 390.775C1718.95 388.754 1721.4 387.201 1724.18 386.117C1727 385.033 1729.98 384.491 1733.15 384.491H1734.91C1738.51 384.491 1741.81 385.004 1744.79 386.029C1747.78 387.055 1750.38 388.52 1752.57 390.424C1754.77 392.357 1756.45 394.701 1757.63 397.455C1758.83 400.209 1759.43 403.314 1759.43 406.771C1759.43 410.141 1758.87 413.129 1757.76 415.736C1756.64 418.344 1755.06 420.526 1753.01 422.284C1750.96 424.071 1748.5 425.419 1745.63 426.327C1742.79 427.235 1739.62 427.689 1736.14 427.689H1730.86V389.896H1739.3V415.253H1740.27C1742.03 415.253 1743.59 414.931 1744.97 414.286C1746.38 413.671 1747.49 412.733 1748.31 411.474C1749.13 410.214 1749.54 408.603 1749.54 406.64C1749.54 404.97 1749.17 403.534 1748.44 402.333C1747.71 401.132 1746.68 400.15 1745.37 399.389C1744.05 398.656 1742.49 398.1 1740.71 397.719C1738.95 397.367 1737.02 397.191 1734.91 397.191H1733.15C1731.24 397.191 1729.49 397.455 1727.88 397.982C1726.26 398.539 1724.87 399.315 1723.7 400.312C1722.53 401.337 1721.62 402.567 1720.98 404.003C1720.33 405.468 1720.01 407.123 1720.01 408.969C1720.01 411.254 1720.45 413.378 1721.33 415.341C1722.24 417.333 1723.6 419.047 1725.41 420.482L1718.73 426.635C1717.3 425.639 1715.92 424.276 1714.6 422.548C1713.29 420.849 1712.2 418.798 1711.35 416.396C1710.53 413.993 1710.12 411.254 1710.12 408.178ZM1748.18 447.553H1711V434.896H1758.55V446.806L1748.18 447.553ZM1758.86 461.879L1747.12 461.659C1747.21 461.044 1747.28 460.297 1747.34 459.418C1747.43 458.568 1747.47 457.792 1747.47 457.089C1747.47 455.302 1747.24 453.749 1746.77 452.431C1746.33 451.142 1745.67 450.058 1744.79 449.179C1743.92 448.329 1742.85 447.685 1741.59 447.245C1740.33 446.835 1738.89 446.601 1737.28 446.542L1738.07 443.993C1741.15 443.993 1743.97 444.301 1746.55 444.916C1749.16 445.531 1751.43 446.425 1753.36 447.597C1755.3 448.798 1756.79 450.263 1757.85 451.991C1758.9 453.72 1759.43 455.697 1759.43 457.924C1759.43 458.627 1759.37 459.345 1759.25 460.077C1759.16 460.81 1759.03 461.41 1758.86 461.879Z" fill="white"/>
</svg>
