<svg width="400" height="1494" viewBox="0 0 400 1494" fill="none" xmlns="http://www.w3.org/2000/svg">
<path d="M198.195 84.3047H202.195V80.3047H198.195V84.3047ZM98 84.3047H94V88.3047H98V84.3047ZM98 25.7109V21.7109H94V25.7109H98ZM382.375 25.7109H386.375V21.7109H382.375V25.7109ZM370.656 192.898L367.056 191.156L367.05 191.168L370.656 192.898ZM337.258 230.398L335.191 226.974L335.184 226.978L335.177 226.982L337.258 230.398ZM222.219 214.773L219.16 217.351L219.161 217.353L222.219 214.773ZM245.656 84.3047V80.3047H241.656V84.3047H245.656ZM256.594 172L259.583 169.343L259.573 169.331L259.562 169.319L256.594 172ZM334.914 138.016L338.913 138.088L338.914 138.052V138.016H334.914ZM334.914 84.3047H338.914V80.3047H334.914V84.3047ZM198.195 80.3047H98V88.3047H198.195V80.3047ZM102 84.3047V25.7109H94V84.3047H102ZM98 29.7109L382.375 29.7109V21.7109L98 21.7109V29.7109ZM378.375 25.7109V136.648H386.375V25.7109H378.375ZM378.375 136.648C378.375 157.513 374.56 175.647 367.056 191.156L374.257 194.641C382.378 177.858 386.375 158.492 386.375 136.648H378.375ZM367.05 191.168C359.55 206.792 348.93 218.681 335.191 226.974L339.325 233.823C354.492 224.668 366.137 211.557 374.262 194.629L367.05 191.168ZM335.177 226.982C321.54 235.289 305.932 239.484 288.234 239.484V247.484C307.256 247.484 324.33 242.956 339.339 233.815L335.177 226.982ZM288.234 239.484C261.399 239.484 240.571 230.325 225.276 212.194L219.161 217.353C236.159 237.503 259.341 247.484 288.234 247.484V239.484ZM225.278 212.196C210.056 194.129 202.195 168.79 202.195 135.672H194.195C194.195 170.002 202.35 197.397 219.16 217.351L225.278 212.196ZM202.195 135.672V84.3047H194.195V135.672H202.195ZM241.656 84.3047V136.648H249.656V84.3047H241.656ZM241.656 136.648C241.656 152.716 245.435 165.613 253.625 174.681L259.562 169.319C253.169 162.241 249.656 151.57 249.656 136.648H241.656ZM253.604 174.657C261.828 183.909 273.448 188.305 287.844 188.305V180.305C275.156 180.305 265.943 176.497 259.583 169.343L253.604 174.657ZM287.844 188.305C302.615 188.305 314.93 183.928 324.395 174.893L318.871 169.107C311.148 176.478 300.938 180.305 287.844 180.305V188.305ZM324.395 174.893C333.923 165.798 338.638 153.362 338.913 138.088L330.915 137.944C330.669 151.576 326.53 161.796 318.871 169.107L324.395 174.893ZM338.914 138.016V84.3047H330.914V138.016H338.914ZM334.914 80.3047L245.656 80.3047V88.3047L334.914 88.3047V80.3047ZM256.398 398.953L252.435 398.416L251.828 402.888L256.341 402.953L256.398 398.953ZM236.281 336.648L237.951 333.014L237.156 332.648H236.281V336.648ZM98 336.648H94V340.648H98V336.648ZM98 280.203V276.203H94V280.203H98ZM309.328 280.203H313.328V276.203H309.328V280.203ZM309.328 333.523L309.576 337.516L313.328 337.283V333.523H309.328ZM284.133 335.086L283.885 331.094L270.757 331.908L282.116 338.54L284.133 335.086ZM310.695 399.734L310.638 403.734L313.631 403.777L314.516 400.917L310.695 399.734ZM260.362 399.491C261.421 391.683 261.961 384.726 261.961 378.641H253.961C253.961 384.274 253.459 390.858 252.435 398.416L260.362 399.491ZM261.961 378.641C261.961 356.358 254.322 340.536 237.951 333.014L234.611 340.283C247.146 346.043 253.961 358.215 253.961 378.641H261.961ZM236.281 332.648H98V340.648H236.281V332.648ZM102 336.648V280.203H94V336.648H102ZM98 284.203H309.328V276.203H98V284.203ZM305.328 280.203V333.523H313.328V280.203H305.328ZM309.081 329.531L283.885 331.094L284.38 339.078L309.576 337.516L309.081 329.531ZM282.116 338.54C300.467 349.255 309.234 363.721 309.234 382.156H317.234C317.234 360.487 306.601 343.573 286.15 331.632L282.116 338.54ZM309.234 382.156C309.234 388.042 308.438 393.499 306.874 398.552L314.516 400.917C316.338 395.032 317.234 388.771 317.234 382.156H309.234ZM310.753 395.735L256.456 394.954L256.341 402.953L310.638 403.734L310.753 395.735ZM261.672 422.586L263.438 418.997L261.672 422.586ZM299.758 457.352L303.203 455.32L303.199 455.313L303.196 455.307L299.758 457.352ZM287.062 580.008L284.193 577.221L284.188 577.226L284.183 577.232L287.062 580.008ZM215.969 610.281L216.077 614.28L216.162 614.278L216.246 614.272L215.969 610.281ZM201.516 610.672V614.672H201.57L201.624 614.67L201.516 610.672ZM123.391 583.523L120.672 586.457L120.682 586.466L123.391 583.523ZM123.391 437.625L120.672 434.691L120.667 434.696L120.661 434.701L123.391 437.625ZM155.422 478.25L153.112 474.984L153.103 474.991L153.093 474.998L155.422 478.25ZM155.227 542.703L152.852 545.922L152.862 545.929L152.872 545.936L155.227 542.703ZM251.32 478.25L249.01 481.516L249.02 481.522L249.029 481.529L251.32 478.25ZM205.617 414.477C226.058 414.477 244.124 418.41 259.906 426.175L263.438 418.997C246.407 410.617 227.103 406.477 205.617 406.477V414.477ZM259.906 426.175C275.647 433.92 287.748 444.986 296.32 459.396L303.196 455.307C293.799 439.509 280.51 427.397 263.438 418.997L259.906 426.175ZM296.312 459.384C304.887 473.923 309.234 490.846 309.234 510.281H317.234C317.234 489.612 312.597 471.249 303.203 455.32L296.312 459.384ZM309.234 510.281C309.234 537.912 300.814 560.104 284.193 577.221L289.932 582.794C308.207 563.974 317.234 539.681 317.234 510.281H309.234ZM284.183 577.232C267.551 594.484 244.854 604.262 215.691 606.291L216.246 614.272C246.98 612.134 271.678 601.729 289.942 582.784L284.183 577.232ZM215.861 606.283L201.408 606.673L201.624 614.67L216.077 614.28L215.861 606.283ZM201.516 606.672C169.872 606.672 144.872 597.861 126.1 580.581L120.682 586.466C141.232 605.384 168.316 614.672 201.516 614.672V606.672ZM126.109 580.589C107.516 563.36 98.0938 540.204 98.0938 510.672H90.0938C90.0938 542.078 100.203 567.489 120.672 586.457L126.109 580.589ZM98.0938 510.672C98.0938 481.141 107.516 457.913 126.12 440.549L120.661 434.701C100.202 453.796 90.0938 479.266 90.0938 510.672H98.0938ZM126.109 440.559C144.722 423.312 170.218 414.477 203.078 414.477V406.477C168.751 406.477 141.122 415.741 120.672 434.691L126.109 440.559ZM203.078 414.477H205.617V406.477H203.078V414.477ZM201.516 462.922C181.049 462.922 164.738 466.761 153.112 474.984L157.732 481.516C167.46 474.634 181.878 470.922 201.516 470.922V462.922ZM153.093 474.998C141.398 483.372 135.602 495.446 135.602 510.672H143.602C143.602 497.773 148.352 488.232 157.751 481.502L153.093 474.998ZM135.602 510.672C135.602 525.53 141.348 537.438 152.852 545.922L157.601 539.484C148.272 532.604 143.602 523.157 143.602 510.672H135.602ZM152.872 545.936C164.453 554.373 182.297 558.227 205.617 558.227V550.227C182.843 550.227 167.093 546.398 157.582 539.47L152.872 545.936ZM205.617 558.227C225.729 558.227 241.898 554.308 253.638 545.963L249.003 539.443C239.128 546.463 224.829 550.227 205.617 550.227V558.227ZM253.638 545.963C265.562 537.487 271.531 525.431 271.531 510.281H263.531C263.531 522.996 258.693 532.555 249.003 539.443L253.638 545.963ZM271.531 510.281C271.531 495.245 265.548 483.312 253.612 474.971L249.029 481.529C258.707 488.292 263.531 497.713 263.531 510.281H271.531ZM253.63 474.984C241.944 466.719 224.336 462.922 201.516 462.922V470.922C223.747 470.922 239.342 474.677 249.01 481.516L253.63 474.984ZM309.328 705.203V709.203H313.328V705.203H309.328ZM32.1797 686.648L34.9492 683.762L34.942 683.755L34.9347 683.748L32.1797 686.648ZM15.9688 605.203V601.203H12.8456L12.0882 604.233L15.9688 605.203ZM60.6953 605.203L64.6367 605.885L65.4471 601.203H60.6953V605.203ZM309.328 648.562H313.328V644.562H309.328V648.562ZM384.914 652.469L387.807 649.707L387.792 649.69L387.776 649.674L384.914 652.469ZM384.914 698.758L382.053 695.963L382.037 695.979L382.021 695.996L384.914 698.758ZM342.922 698.562L345.846 695.833L345.831 695.817L345.815 695.801L342.922 698.562ZM342.922 652.664L340.028 649.902L340.013 649.918L339.998 649.935L342.922 652.664ZM309.328 701.203H86.4766V709.203H309.328V701.203ZM86.4766 701.203C63.8763 701.203 46.8893 695.22 34.9492 683.762L29.4102 689.535C43.2513 702.816 62.4622 709.203 86.4766 709.203V701.203ZM34.9347 683.748C22.9274 672.341 16.6484 655.687 16.6484 633.133H8.64844C8.64844 657.193 15.3903 676.216 29.4247 689.548L34.9347 683.748ZM16.6484 633.133C16.6484 623.672 17.7204 614.689 19.8493 606.173L12.0882 604.233C9.78998 613.426 8.64844 623.063 8.64844 633.133H16.6484ZM15.9688 609.203H60.6953V601.203H15.9688V609.203ZM56.7539 604.521C55.5557 611.444 54.9375 617.606 54.9375 622.977H62.9375C62.9375 618.191 63.4912 612.504 64.6367 605.885L56.7539 604.521ZM54.9375 622.977C54.9375 632.184 57.3915 639.809 62.9812 645.077C68.5264 650.303 76.477 652.562 86.0859 652.562V644.562C77.5959 644.562 71.9723 642.558 68.468 639.255C65.0083 635.994 62.9375 630.826 62.9375 622.977H54.9375ZM86.0859 652.562H309.328V644.562H86.0859V652.562ZM305.328 648.562V705.203H313.328V648.562H305.328ZM364.016 648.07C371.499 648.07 377.402 650.502 382.053 655.264L387.776 649.674C381.489 643.237 373.459 640.07 364.016 640.07V648.07ZM382.021 655.231C386.622 660.051 389.117 666.721 389.117 675.711H397.117C397.117 665.169 394.144 656.345 387.807 649.707L382.021 655.231ZM389.117 675.711C389.117 684.705 386.621 691.286 382.053 695.963L387.776 701.553C394.145 695.032 397.117 686.249 397.117 675.711H389.117ZM382.021 695.996C377.363 700.876 371.47 703.352 364.016 703.352V711.352C373.489 711.352 381.528 708.098 387.807 701.52L382.021 695.996ZM364.016 703.352C356.441 703.352 350.499 700.819 345.846 695.833L339.998 701.292C346.282 708.025 354.403 711.352 364.016 711.352V703.352ZM345.815 695.801C341.195 690.96 338.719 684.406 338.719 675.711H330.719C330.719 686.026 333.712 694.707 340.028 701.324L345.815 695.801ZM338.719 675.711C338.719 667.019 341.194 660.378 345.846 655.393L339.998 649.935C333.712 656.669 330.719 665.393 330.719 675.711H338.719ZM345.815 655.426C350.461 650.559 356.412 648.07 364.016 648.07V640.07C354.432 640.07 346.32 643.311 340.028 649.902L345.815 655.426ZM122.609 770.828L119.752 768.029L119.743 768.038L122.609 770.828ZM260.891 754.031L259.124 757.62L259.135 757.626L260.891 754.031ZM299.563 788.797L296.133 790.855L296.138 790.864L299.563 788.797ZM285.891 908.523L283.203 905.561L283.197 905.566L283.192 905.571L285.891 908.523ZM185.305 933.523H181.305V937.523H185.305V933.523ZM185.305 798.953H189.305V794.39L184.781 794.988L185.305 798.953ZM152.102 815.359L149.149 812.66L149.14 812.671L149.13 812.681L152.102 815.359ZM163.234 901.297L165.899 904.28L169.479 901.083L165.688 898.138L163.234 901.297ZM132.18 929.031L129.872 932.298L132.471 934.134L134.844 932.015L132.18 929.031ZM104.055 894.656L100.42 896.326L100.426 896.34L100.432 896.353L104.055 894.656ZM256.203 812.82L258.929 809.893L258.915 809.88L258.901 809.867L256.203 812.82ZM223.781 799.539L224.332 795.577L219.781 794.945V799.539H223.781ZM223.781 878.055H219.781V882.055H223.781V878.055ZM228.273 878.055V882.055H228.315L228.357 882.054L228.273 878.055ZM257.18 867.898L254.435 864.989L254.421 865.002L254.407 865.015L257.18 867.898ZM98.0938 846.609C98.0938 816.507 107.293 792.299 125.476 773.618L119.743 768.038C99.9045 788.42 90.0938 814.732 90.0938 846.609H98.0938ZM125.466 773.628C143.6 755.122 167.828 745.727 198.586 745.727V737.727C166.062 737.727 139.64 747.733 119.752 768.029L125.466 773.628ZM198.586 745.727H204.055V737.727H198.586V745.727ZM204.055 745.727C224.754 745.727 243.081 749.724 259.124 757.62L262.657 750.442C245.367 741.933 225.804 737.727 204.055 737.727V745.727ZM259.135 757.626C275.288 765.514 287.574 776.591 296.133 790.855L302.992 786.739C293.582 771.054 280.087 758.954 262.646 750.437L259.135 757.626ZM296.138 790.864C304.842 805.287 309.234 821.747 309.234 840.359H317.234C317.234 820.43 312.513 802.515 302.987 786.73L296.138 790.864ZM309.234 840.359C309.234 868.353 300.449 889.916 283.203 905.561L288.578 911.486C307.79 894.058 317.234 870.179 317.234 840.359H309.234ZM283.192 905.571C265.928 921.355 241.175 929.523 208.352 929.523V937.523C242.455 937.523 269.395 929.025 288.59 911.476L283.192 905.571ZM208.352 929.523H185.305V937.523H208.352V929.523ZM189.305 933.523V798.953H181.305V933.523H189.305ZM184.781 794.988C170.172 796.917 158.199 802.762 149.149 812.66L155.054 818.058C162.671 809.727 172.833 804.635 185.828 802.919L184.781 794.988ZM149.13 812.681C140.048 822.757 135.602 835.406 135.602 850.32H143.602C143.602 837.109 147.489 826.451 155.073 818.038L149.13 812.681ZM135.602 850.32C135.602 873.173 143.953 891.383 160.78 904.456L165.688 898.138C151.005 886.731 143.602 870.958 143.602 850.32H135.602ZM160.57 898.313L129.515 926.048L134.844 932.015L165.899 904.28L160.57 898.313ZM134.488 925.764C123.125 917.736 114.18 906.841 107.677 892.959L100.432 896.353C107.471 911.378 117.276 923.399 129.872 932.298L134.488 925.764ZM107.689 892.986C101.314 879.11 98.0938 863.672 98.0938 846.609H90.0938C90.0938 864.703 93.5144 881.296 100.42 896.326L107.689 892.986ZM271.531 840.164C271.531 827.961 267.368 817.75 258.929 809.893L253.477 815.748C260.143 821.953 263.531 829.971 263.531 840.164H271.531ZM258.901 809.867C250.561 802.246 238.894 797.6 224.332 795.577L223.231 803.501C236.793 805.385 246.741 809.592 253.505 815.773L258.901 809.867ZM219.781 799.539V878.055H227.781V799.539H219.781ZM223.781 882.055H228.273V874.055H223.781V882.055ZM228.357 882.054C241.522 881.78 252.244 878.193 259.952 870.782L254.407 865.015C248.573 870.625 240.025 873.809 228.19 874.056L228.357 882.054ZM259.925 870.808C267.826 863.354 271.531 852.937 271.531 840.164H263.531C263.531 851.349 260.336 859.422 254.435 864.989L259.925 870.808ZM148.195 1079.03L151.198 1076.39L148.195 1079.03ZM171.047 1089.19H175.047V1085.3L171.156 1085.19L171.047 1089.19ZM171.047 1142.12L171.011 1146.12L175.047 1146.15V1142.12H171.047ZM131.594 1130.4L129.418 1133.75L129.426 1133.76L129.434 1133.77L131.594 1130.4ZM103.859 1098.76L100.268 1100.52L100.271 1100.53L100.275 1100.53L103.859 1098.76ZM122.805 983.133L120.12 980.168L120.11 980.177L122.805 983.133ZM284.133 982.938L286.796 979.953L284.133 982.938ZM290.578 1117.7L287.679 1114.95L287.668 1114.96L287.656 1114.97L290.578 1117.7ZM230.617 1142.12H226.617V1146.16L230.659 1146.12L230.617 1142.12ZM230.617 1089.19L230.522 1085.19L226.617 1085.28V1089.19H230.617ZM257.18 1079.03L254.435 1076.12L254.421 1076.13L254.407 1076.15L257.18 1079.03ZM253.078 1023.37L255.378 1020.09L255.369 1020.09L253.078 1023.37ZM153.859 1023.37L151.569 1020.09L153.859 1023.37ZM135.602 1053.64C135.602 1064.82 138.697 1074.29 145.192 1081.67L151.198 1076.39C146.236 1070.75 143.602 1063.29 143.602 1053.64H135.602ZM145.192 1081.67C151.731 1089.1 160.44 1092.9 170.937 1093.19L171.156 1085.19C162.643 1084.96 156.118 1081.98 151.198 1076.39L145.192 1081.67ZM167.047 1089.19V1142.12H175.047V1089.19H167.047ZM171.083 1138.12C157.508 1137.99 145.094 1134.3 133.753 1127.03L129.434 1133.77C142.052 1141.86 155.94 1145.98 171.011 1146.12L171.083 1138.12ZM133.77 1127.04C122.56 1119.77 113.786 1109.79 107.444 1096.98L100.275 1100.53C107.214 1114.55 116.929 1125.66 129.418 1133.75L133.77 1127.04ZM107.451 1097C101.233 1084.31 98.0938 1070.21 98.0938 1054.62H90.0938C90.0938 1071.32 93.4647 1086.64 100.268 1100.52L107.451 1097ZM98.0938 1054.62C98.0938 1025.33 107.331 1002.65 125.499 986.089L120.11 980.177C99.9975 998.511 90.0938 1023.49 90.0938 1054.62H98.0938ZM125.489 986.098C143.825 969.497 169.322 960.961 202.492 960.961V952.961C167.954 952.961 140.327 961.873 120.12 980.168L125.489 986.098ZM202.492 960.961H206.203V952.961H202.492V960.961ZM206.203 960.961C238.029 960.961 262.972 969.411 281.469 985.922L286.796 979.953C266.491 961.829 239.481 952.961 206.203 952.961V960.961ZM281.469 985.922C299.88 1002.36 309.234 1024.96 309.234 1054.23H317.234C317.234 1023.08 307.188 998.155 286.796 979.953L281.469 985.922ZM309.234 1054.23C309.234 1079.86 301.936 1099.95 287.679 1114.95L293.477 1120.46C309.429 1103.68 317.234 1081.46 317.234 1054.23H309.234ZM287.656 1114.97C273.536 1130.07 254.65 1137.87 230.576 1138.12L230.659 1146.12C256.584 1145.85 277.672 1137.36 293.5 1120.43L287.656 1114.97ZM234.617 1142.12V1089.19H226.617V1142.12H234.617ZM230.712 1093.19C242.475 1092.91 252.342 1089.23 259.952 1081.91L254.407 1076.15C248.475 1081.85 240.635 1084.95 230.522 1085.19L230.712 1093.19ZM259.925 1081.94C267.731 1074.58 271.531 1064.88 271.531 1053.25H263.531C263.531 1062.98 260.43 1070.47 254.435 1076.12L259.925 1081.94ZM271.531 1053.25C271.531 1038.97 266.216 1027.71 255.378 1020.09L250.778 1026.64C259.211 1032.57 263.531 1041.22 263.531 1053.25H271.531ZM255.369 1020.09C244.827 1012.72 228.296 1009.41 206.594 1009.41V1017.41C227.861 1017.41 242.319 1020.73 250.787 1026.65L255.369 1020.09ZM206.594 1009.41H200.734V1017.41H206.594V1009.41ZM200.734 1009.41C178.784 1009.41 162.116 1012.72 151.569 1020.09L156.15 1026.65C164.613 1020.73 179.195 1017.41 200.734 1017.41V1009.41ZM151.569 1020.09C140.801 1027.61 135.602 1039.04 135.602 1053.64H143.602C143.602 1041.15 147.907 1032.41 156.15 1026.65L151.569 1020.09ZM361.281 1241.92V1245.92H365.281V1241.92H361.281ZM309.328 1241.92V1237.92H305.328V1241.92H309.328ZM309.328 1278.05V1282.05H313.328V1278.05H309.328ZM267.922 1278.05H263.922V1282.05H267.922V1278.05ZM267.922 1241.92H271.922V1237.92H267.922V1241.92ZM145.656 1246.41L148.307 1249.41L145.656 1246.41ZM141.945 1280.2V1284.2H146.773L145.876 1279.46L141.945 1280.2ZM99.1719 1280.2L95.3468 1281.37L96.2125 1284.2H99.1719V1280.2ZM154.055 1185.48V1181.48H154.016L153.977 1181.48L154.055 1185.48ZM267.922 1185.48V1189.48H271.922V1185.48H267.922ZM267.922 1154.62V1150.62H263.922V1154.62H267.922ZM309.328 1154.62H313.328V1150.62H309.328V1154.62ZM309.328 1185.48H305.328V1189.48H309.328V1185.48ZM361.281 1185.48H365.281V1181.48H361.281V1185.48ZM361.281 1237.92H309.328V1245.92H361.281V1237.92ZM305.328 1241.92L305.328 1278.05H313.328L313.328 1241.92H305.328ZM309.328 1274.05H267.922V1282.05H309.328L309.328 1274.05ZM271.922 1278.05V1241.92H263.922V1278.05H271.922ZM267.922 1237.92H162.453V1245.92H267.922V1237.92ZM162.453 1237.92C154.315 1237.92 147.495 1239.45 143.006 1243.42L148.307 1249.41C150.588 1247.39 154.967 1245.92 162.453 1245.92V1237.92ZM143.006 1243.42C138.258 1247.62 136.578 1254.91 136.578 1263.6H144.578C144.578 1255.37 146.284 1251.2 148.307 1249.41L143.006 1243.42ZM136.578 1263.6C136.578 1270.04 137.047 1275.83 138.015 1280.95L145.876 1279.46C145.021 1274.94 144.578 1269.67 144.578 1263.6H136.578ZM141.945 1276.2H99.1719V1284.2H141.945V1276.2ZM102.997 1279.03C99.729 1268.35 98.0938 1257.35 98.0938 1246.02H90.0938C90.0938 1258.13 91.844 1269.92 95.3468 1281.37L102.997 1279.03ZM98.0938 1246.02C98.0938 1226.86 102.926 1213.1 111.926 1204.01C120.933 1194.92 134.759 1189.85 154.133 1189.48L153.977 1181.48C133.377 1181.88 117.221 1187.3 106.242 1198.38C95.2552 1209.48 90.0938 1225.6 90.0938 1246.02H98.0938ZM154.055 1189.48H267.922V1181.48H154.055V1189.48ZM271.922 1185.48L271.922 1154.62H263.922L263.922 1185.48H271.922ZM267.922 1158.62H309.328V1150.62H267.922V1158.62ZM305.328 1154.62V1185.48H313.328V1154.62H305.328ZM309.328 1189.48H361.281V1181.48H309.328V1189.48ZM357.281 1185.48V1241.92H365.281V1185.48H357.281ZM172.609 1413.6L169.174 1411.55L169.151 1411.59L169.128 1411.63L172.609 1413.6ZM183.352 1380.79L179.437 1379.97L179.435 1379.98L183.352 1380.79ZM294.289 1328.64L291.176 1331.15L291.178 1331.16L294.289 1328.64ZM294.289 1454.03L291.148 1451.55L291.143 1451.56L291.139 1451.57L294.289 1454.03ZM245.07 1478.25H241.07V1482.25H245.07V1478.25ZM245.07 1421.8V1417.8H241.07V1421.8H245.07ZM264.992 1413.99L262.199 1411.13L262.181 1411.15L262.164 1411.16L264.992 1413.99ZM234.914 1368.48L231.586 1366.27L231.558 1366.31L231.53 1366.35L234.914 1368.48ZM224.953 1398.56L221.034 1397.76L221.03 1397.78L221.027 1397.8L224.953 1398.56ZM215.578 1434.11L219.333 1435.49L219.336 1435.48L215.578 1434.11ZM111.867 1454.03L108.616 1456.36L108.622 1456.37L108.628 1456.38L111.867 1454.03ZM103.469 1342.7L99.844 1341.01L99.8344 1341.03L99.8249 1341.05L103.469 1342.7ZM129.445 1310.48L127.139 1307.21L127.129 1307.22L127.12 1307.22L129.445 1310.48ZM165.188 1298.76H169.188V1294.76H165.188V1298.76ZM165.188 1352.27L165.395 1356.27L169.188 1356.07V1352.27H165.188ZM140.188 1415.55L136.969 1417.93L136.974 1417.94L136.979 1417.94L140.188 1415.55ZM156.398 1427.95C164.982 1427.95 171.601 1423.5 176.09 1415.57L169.128 1411.63C165.805 1417.5 161.617 1419.95 156.398 1419.95V1427.95ZM176.045 1415.65C180.436 1408.28 184.123 1396.81 187.269 1381.6L179.435 1379.98C176.331 1394.98 172.855 1405.38 169.174 1411.55L176.045 1415.65ZM187.266 1381.61C192.472 1356.8 200.256 1338.69 210.325 1326.84C220.265 1315.14 232.541 1309.4 247.414 1309.4V1301.4C230.126 1301.4 215.644 1308.22 204.229 1321.66C192.945 1334.94 184.778 1354.51 179.437 1379.97L187.266 1381.61ZM247.414 1309.4C264.871 1309.4 279.381 1316.53 291.176 1331.15L297.402 1326.13C284.197 1309.76 267.457 1301.4 247.414 1301.4V1309.4ZM291.178 1331.16C303.101 1345.9 309.234 1365.32 309.234 1389.77H317.234C317.234 1363.96 310.738 1342.63 297.4 1326.13L291.178 1331.16ZM309.234 1389.77C309.234 1415.98 303.068 1436.44 291.148 1451.55L297.43 1456.51C310.77 1439.59 317.234 1417.21 317.234 1389.77H309.234ZM291.139 1451.57C279.253 1466.76 264 1474.25 245.07 1474.25V1482.25C266.505 1482.25 284.065 1473.59 297.44 1456.5L291.139 1451.57ZM249.07 1478.25V1421.8H241.07V1478.25H249.07ZM245.07 1425.8C254.092 1425.8 261.786 1422.85 267.821 1416.82L262.164 1411.16C257.781 1415.55 252.194 1417.8 245.07 1417.8V1425.8ZM267.785 1416.86C274.202 1410.6 277 1401.2 277 1389.58H269C269 1400.09 266.46 1406.97 262.199 1411.13L267.785 1416.86ZM277 1389.58C277 1379.52 274.729 1371.13 269.64 1364.96L263.469 1370.05C266.974 1374.3 269 1380.63 269 1389.58H277ZM269.64 1364.96C264.598 1358.85 258.006 1355.7 250.148 1355.7V1363.7C255.572 1363.7 259.917 1365.75 263.469 1370.05L269.64 1364.96ZM250.148 1355.7C242.374 1355.7 236.124 1359.46 231.586 1366.27L238.242 1370.7C241.517 1365.79 245.423 1363.7 250.148 1363.7V1355.7ZM231.53 1366.35C227.348 1372.99 223.916 1383.61 221.034 1397.76L228.873 1399.36C231.719 1385.39 234.928 1375.96 238.298 1370.62L231.53 1366.35ZM221.027 1397.8C218.318 1411.73 215.242 1423.36 211.82 1432.74L219.336 1435.48C222.946 1425.59 226.12 1413.52 228.88 1399.33L221.027 1397.8ZM211.823 1432.73C206.53 1447.16 199.425 1457.64 190.692 1464.51C182.008 1471.34 171.433 1474.84 158.742 1474.84V1482.84C173.004 1482.84 185.379 1478.87 195.64 1470.8C205.852 1462.76 213.689 1450.88 219.333 1435.49L211.823 1432.73ZM158.742 1474.84C140.841 1474.84 126.386 1467.26 115.107 1451.68L108.628 1456.38C121.307 1473.88 138.102 1482.84 158.742 1482.84V1474.84ZM115.119 1451.7C103.879 1436.02 98.0938 1415.54 98.0938 1389.97H90.0938C90.0938 1416.74 96.157 1438.97 108.616 1456.36L115.119 1451.7ZM98.0938 1389.97C98.0938 1372.73 101.134 1357.56 107.113 1344.35L99.8249 1341.05C93.3039 1355.45 90.0938 1371.79 90.0938 1389.97H98.0938ZM107.093 1344.39C113.219 1331.27 121.46 1321.1 131.77 1313.73L127.12 1307.22C115.556 1315.48 106.479 1326.79 99.844 1341.01L107.093 1344.39ZM131.752 1313.74C142.189 1306.38 153.305 1302.76 165.188 1302.76V1294.76C151.549 1294.76 138.837 1298.95 127.139 1307.21L131.752 1313.74ZM161.188 1298.76V1352.27H169.188V1298.76H161.188ZM164.98 1348.28C153.985 1348.85 145.14 1352.99 138.977 1360.96L145.304 1365.85C149.819 1360.02 156.338 1356.74 165.395 1356.27L164.98 1348.28ZM138.977 1360.96C132.942 1368.76 130.133 1378.96 130.133 1391.14H138.133C138.133 1380.15 140.662 1371.85 145.304 1365.85L138.977 1360.96ZM130.133 1391.14C130.133 1402.34 132.204 1411.47 136.969 1417.93L143.406 1413.18C140.098 1408.7 138.133 1401.56 138.133 1391.14H130.133ZM136.979 1417.94C141.855 1424.5 148.42 1427.95 156.398 1427.95V1419.95C151.096 1419.95 146.853 1417.81 143.396 1413.17L136.979 1417.94Z" fill="#F64C72"/>
</svg>
